UbuntuSans-ExtraBold.ufo
<glyph name="parenleft" format="2">
  <advance width="356"/>
  <unicode hex="0028"/>
  <outline>
    <contour>
      <point x="247" y="-185" type="curve"/>
      <point x="351" y="-118" type="line"/>
      <point x="272" y="-5"/>
      <point x="217" y="143"/>
      <point x="217" y="299" type="curve" smooth="yes"/>
      <point x="217" y="455"/>
      <point x="272" y="603"/>
      <point x="351" y="716" type="curve"/>
      <point x="247" y="783" type="line"/>
      <point x="135" y="652"/>
      <point x="70" y="483"/>
      <point x="70" y="299" type="curve" smooth="yes"/>
      <point x="70" y="115"/>
      <point x="135" y="-54"/>
    </contour>
  </outline>
</glyph>
<glyph name="zero" format="2">
  <advance width="564"/>
  <unicode hex="0030"/>
  <outline>
    <contour>
      <point x="282" y="-14" type="curve" smooth="yes"/>
      <point x="438" y="-14"/>
      <point x="532" y="115"/>
      <point x="532" y="348" type="curve" smooth="yes"/>
      <point x="532" y="580"/>
      <point x="438" y="709"/>
      <point x="282" y="709" type="curve" smooth="yes"/>
      <point x="130" y="709"/>
      <point x="32" y="579"/>
      <point x="32" y="348" type="curve" smooth="yes"/>
      <point x="32" y="115"/>
      <point x="126" y="-14"/>
    </contour>
    <contour>
      <point x="282" y="114" type="curve" smooth="yes"/>
      <point x="208" y="114"/>
      <point x="184" y="209"/>
      <point x="184" y="348" type="curve" smooth="yes"/>
      <point x="184" y="486"/>
      <point x="208" y="581"/>
      <point x="282" y="581" type="curve" smooth="yes"/>
      <point x="357" y="581"/>
      <point x="380" y="486"/>
      <point x="380" y="348" type="curve" smooth="yes"/>
      <point x="380" y="209"/>
      <point x="357" y="114"/>
    </contour>
  </outline>
</glyph>
<glyph name="two" format="2">
  <advance width="564"/>
  <unicode hex="0032"/>
  <outline>
    <contour>
      <point x="53" y="0" type="curve"/>
      <point x="515" y="0" type="line"/>
      <point x="515" y="125" type="line"/>
      <point x="217" y="125" type="line"/>
      <point x="225" y="151"/>
      <point x="289" y="215"/>
      <point x="327" y="251" type="curve" smooth="yes"/>
      <point x="405" y="324"/>
      <point x="494" y="410"/>
      <point x="494" y="511" type="curve" smooth="yes"/>
      <point x="494" y="633"/>
      <point x="424" y="709"/>
      <point x="261" y="709" type="curve" smooth="yes"/>
      <point x="172" y="709"/>
      <point x="92" y="670"/>
      <point x="33" y="615" type="curve"/>
      <point x="107" y="511" type="line"/>
      <point x="125" y="529"/>
      <point x="185" y="581"/>
      <point x="255" y="581" type="curve" smooth="yes"/>
      <point x="304" y="581"/>
      <point x="342" y="560"/>
      <point x="342" y="501" type="curve" smooth="yes"/>
      <point x="342" y="447"/>
      <point x="290" y="400"/>
      <point x="226" y="339" type="curve" smooth="yes"/>
      <point x="143" y="259"/>
      <point x="51" y="182"/>
      <point x="51" y="52" type="curve" smooth="yes"/>
      <point x="51" y="43"/>
      <point x="50" y="15"/>
    </contour>
  </outline>
</glyph>
<glyph name="seven" format="2">
  <advance width="564"/>
  <unicode hex="0037"/>
  <outline>
    <contour>
      <point x="140" y="0" type="curve"/>
      <point x="291" y="0" type="line"/>
      <point x="307" y="241"/>
      <point x="441" y="493"/>
      <point x="526" y="586" type="curve"/>
      <point x="526" y="694" type="line"/>
      <point x="41" y="694" type="line"/>
      <point x="41" y="567" type="line"/>
      <point x="342" y="567" type="line"/>
      <point x="248" y="435"/>
      <point x="156" y="194"/>
    </contour>
  </outline>
</glyph>
<glyph name="nine" format="2">
  <advance width="564"/>
  <unicode hex="0039"/>
  <outline>
    <contour>
      <point x="85" y="-2" type="line"/>
      <point x="390" y="1"/>
      <point x="523" y="141"/>
      <point x="523" y="402" type="curve" smooth="yes"/>
      <point x="523" y="601"/>
      <point x="435" y="710"/>
      <point x="263" y="710" type="curve" smooth="yes"/>
      <point x="96" y="710"/>
      <point x="26" y="578"/>
      <point x="26" y="472" type="curve" smooth="yes"/>
      <point x="26" y="343"/>
      <point x="98" y="256"/>
      <point x="270" y="256" type="curve" smooth="yes"/>
      <point x="294" y="256"/>
      <point x="332" y="262"/>
      <point x="360" y="275" type="curve"/>
      <point x="323" y="158"/>
      <point x="230" y="125"/>
      <point x="78" y="122" type="curve"/>
    </contour>
    <contour>
      <point x="287" y="372" type="curve" smooth="yes"/>
      <point x="207" y="372"/>
      <point x="174" y="406"/>
      <point x="174" y="478" type="curve" smooth="yes"/>
      <point x="174" y="526"/>
      <point x="202" y="586"/>
      <point x="267" y="586" type="curve" smooth="yes"/>
      <point x="349" y="586"/>
      <point x="373" y="509"/>
      <point x="373" y="413" type="curve" smooth="yes"/>
      <point x="373" y="404"/>
      <point x="373" y="399"/>
      <point x="372" y="389" type="curve"/>
      <point x="356" y="378"/>
      <point x="318" y="372"/>
    </contour>
  </outline>
</glyph>
<glyph name="question" format="2">
  <advance width="455"/>
  <unicode hex="003F"/>
  <outline>
    <contour>
      <point x="133" y="221" type="curve"/>
      <point x="265" y="221" type="line"/>
      <point x="264" y="229"/>
      <point x="264" y="242"/>
      <point x="264" y="247" type="curve" smooth="yes"/>
      <point x="264" y="352"/>
      <point x="430" y="393"/>
      <point x="430" y="533" type="curve" smooth="yes"/>
      <point x="430" y="608"/>
      <point x="387" y="709"/>
      <point x="216" y="709" type="curve" smooth="yes"/>
      <point x="148" y="709"/>
      <point x="72" y="690"/>
      <point x="20" y="657" type="curve"/>
      <point x="62" y="544" type="line"/>
      <point x="114" y="571"/>
      <point x="153" y="582"/>
      <point x="201" y="582" type="curve" smooth="yes"/>
      <point x="249" y="582"/>
      <point x="274" y="556"/>
      <point x="274" y="524" type="curve" smooth="yes"/>
      <point x="274" y="446"/>
      <point x="130" y="400"/>
      <point x="130" y="265" type="curve" smooth="yes"/>
      <point x="130" y="253"/>
      <point x="130" y="234"/>
    </contour>
    <contour>
      <point x="201" y="-13" type="curve" smooth="yes"/>
      <point x="249" y="-13"/>
      <point x="294" y="20"/>
      <point x="294" y="79" type="curve" smooth="yes"/>
      <point x="294" y="138"/>
      <point x="249" y="171"/>
      <point x="201" y="171" type="curve" smooth="yes"/>
      <point x="153" y="171"/>
      <point x="108" y="138"/>
      <point x="108" y="79" type="curve" smooth="yes"/>
      <point x="108" y="20"/>
      <point x="153" y="-13"/>
    </contour>
  </outline>
</glyph>
<glyph name="H" format="2">
  <advance width="734"/>
  <unicode hex="0048"/>
  <anchor x="367" y="0" name="bottom"/>
  <anchor x="367" y="347" name="center"/>
  <anchor x="367" y="685" name="top"/>
  <anchor x="20" y="693" name="topleft"/>
  <outline>
    <contour>
      <point x="80" y="0" type="line"/>
      <point x="236" y="0" type="line"/>
      <point x="236" y="294" type="line"/>
      <point x="498" y="294" type="line"/>
      <point x="498" y="0" type="line"/>
      <point x="654" y="0" type="line"/>
      <point x="654" y="693" type="line"/>
      <point x="498" y="693" type="line"/>
      <point x="498" y="428" type="line"/>
      <point x="236" y="428" type="line"/>
      <point x="236" y="693" type="line"/>
      <point x="80" y="693" type="line"/>
    </contour>
  </outline>
</glyph>
<glyph name="K" format="2">
  <advance width="684"/>
  <unicode hex="004B"/>
  <anchor x="338" y="0" name="bottom"/>
  <anchor x="342" y="685" name="top"/>
  <outline>
    <contour>
      <point x="80" y="0" type="line"/>
      <point x="236" y="0" type="line"/>
      <point x="236" y="293" type="line"/>
      <point x="332" y="219"/>
      <point x="433" y="90"/>
      <point x="489" y="0" type="curve"/>
      <point x="674" y="0" type="line"/>
      <point x="579" y="153"/>
      <point x="476" y="282"/>
      <point x="365" y="374" type="curve"/>
      <point x="470" y="479"/>
      <point x="563" y="581"/>
      <point x="658" y="693" type="curve"/>
      <point x="473" y="693" type="line"/>
      <point x="402" y="614"/>
      <point x="317" y="516"/>
      <point x="236" y="431" type="curve"/>
      <point x="236" y="693" type="line"/>
      <point x="80" y="693" type="line"/>
    </contour>
  </outline>
</glyph>
<glyph name="O" format="2">
  <advance width="790"/>
  <unicode hex="004F"/>
  <anchor x="395" y="0" name="bottom"/>
  <anchor x="395" y="347" name="center"/>
  <anchor x="711" y="10" name="ogonek"/>
  <anchor x="395" y="685" name="top"/>
  <anchor x="20" y="693" name="topleft"/>
  <anchor x="770" y="693" name="topright"/>
  <outline>
    <contour>
      <point x="395" y="-14" type="curve" smooth="yes"/>
      <point x="591" y="-14"/>
      <point x="740" y="110"/>
      <point x="740" y="347" type="curve" smooth="yes"/>
      <point x="740" y="584"/>
      <point x="585" y="709"/>
      <point x="395" y="709" type="curve" smooth="yes"/>
      <point x="211" y="709"/>
      <point x="50" y="584"/>
      <point x="50" y="347" type="curve" smooth="yes"/>
      <point x="50" y="110"/>
      <point x="205" y="-14"/>
    </contour>
    <contour>
      <point x="395" y="123" type="curve" smooth="yes"/>
      <point x="279" y="123"/>
      <point x="211" y="212"/>
      <point x="211" y="347" type="curve" smooth="yes"/>
      <point x="211" y="480"/>
      <point x="279" y="572"/>
      <point x="395" y="572" type="curve" smooth="yes"/>
      <point x="511" y="572"/>
      <point x="579" y="483"/>
      <point x="579" y="347" type="curve" smooth="yes"/>
      <point x="579" y="212"/>
      <point x="511" y="123"/>
    </contour>
  </outline>
</glyph>
<glyph name="Q" format="2">
  <advance width="790"/>
  <unicode hex="0051"/>
  <anchor x="395" y="0" name="bottom"/>
  <anchor x="395" y="693" name="top"/>
  <outline>
    <contour>
      <point x="663" y="-188" type="curve"/>
      <point x="695" y="-74" type="line"/>
      <point x="588" y="-66"/>
      <point x="508" y="-55"/>
      <point x="495" y="-2" type="curve"/>
      <point x="639" y="33"/>
      <point x="740" y="153"/>
      <point x="740" y="347" type="curve" smooth="yes"/>
      <point x="740" y="584"/>
      <point x="585" y="709"/>
      <point x="395" y="709" type="curve" smooth="yes"/>
      <point x="211" y="709"/>
      <point x="50" y="584"/>
      <point x="50" y="347" type="curve" smooth="yes"/>
      <point x="50" y="133"/>
      <point x="175" y="11"/>
      <point x="340" y="-10" type="curve"/>
      <point x="372" y="-122"/>
      <point x="455" y="-180"/>
    </contour>
    <contour>
      <point x="395" y="123" type="curve" smooth="yes"/>
      <point x="279" y="123"/>
      <point x="211" y="212"/>
      <point x="211" y="347" type="curve" smooth="yes"/>
      <point x="211" y="480"/>
      <point x="279" y="572"/>
      <point x="395" y="572" type="curve" smooth="yes"/>
      <point x="511" y="572"/>
      <point x="579" y="483"/>
      <point x="579" y="347" type="curve" smooth="yes"/>
      <point x="579" y="212"/>
      <point x="511" y="123"/>
    </contour>
  </outline>
</glyph>
<glyph name="V" format="2">
  <advance width="722"/>
  <unicode hex="0056"/>
  <anchor x="361" y="0" name="bottom"/>
  <anchor x="361" y="693" name="top"/>
  <outline>
    <contour>
      <point x="286" y="0" type="curve"/>
      <point x="436" y="0" type="line"/>
      <point x="545" y="232"/>
      <point x="651" y="517"/>
      <point x="712" y="693" type="curve"/>
      <point x="546" y="693" type="line"/>
      <point x="493" y="534"/>
      <point x="415" y="307"/>
      <point x="364" y="184" type="curve"/>
      <point x="311" y="306"/>
      <point x="235" y="534"/>
      <point x="182" y="693" type="curve"/>
      <point x="10" y="693" type="line"/>
      <point x="69" y="517"/>
      <point x="177" y="231"/>
    </contour>
  </outline>
</glyph>
<glyph name="Z" format="2">
  <advance width="610"/>
  <unicode hex="005A"/>
  <anchor x="305" y="0" name="bottom"/>
  <anchor x="305" y="347" name="center"/>
  <anchor x="307" y="685" name="top"/>
  <outline>
    <contour>
      <point x="35" y="0" type="line"/>
      <point x="580" y="0" type="line"/>
      <point x="580" y="131" type="line"/>
      <point x="227" y="131" type="line"/>
      <point x="323" y="291"/>
      <point x="484" y="497"/>
      <point x="569" y="585" type="curve"/>
      <point x="569" y="693" type="line"/>
      <point x="51" y="693" type="line"/>
      <point x="51" y="562" type="line"/>
      <point x="362" y="562" type="line"/>
      <point x="258" y="437"/>
      <point x="111" y="231"/>
      <point x="35" y="93" type="curve"/>
    </contour>
  </outline>
</glyph>
<glyph name="d" format="2">
  <advance width="604"/>
  <unicode hex="0064"/>
  <anchor x="302" y="0" name="bottom"/>
  <anchor x="302" y="263" name="center"/>
  <anchor x="302" y="776" name="top"/>
  <anchor x="584" y="776" name="topright"/>
  <outline>
    <contour>
      <point x="319" y="-13" type="curve" smooth="yes"/>
      <point x="391" y="-13"/>
      <point x="481" y="1"/>
      <point x="534" y="17" type="curve"/>
      <point x="534" y="776" type="line"/>
      <point x="385" y="752" type="line"/>
      <point x="385" y="514" type="line"/>
      <point x="352" y="529"/>
      <point x="321" y="537"/>
      <point x="280" y="537" type="curve" smooth="yes"/>
      <point x="132" y="537"/>
      <point x="45" y="432"/>
      <point x="45" y="260" type="curve" smooth="yes"/>
      <point x="45" y="92"/>
      <point x="146" y="-13"/>
    </contour>
    <contour>
      <point x="320" y="114" type="curve" smooth="yes"/>
      <point x="239" y="114"/>
      <point x="197" y="175"/>
      <point x="197" y="267" type="curve" smooth="yes"/>
      <point x="197" y="363"/>
      <point x="232" y="411"/>
      <point x="303" y="411" type="curve" smooth="yes"/>
      <point x="334" y="411"/>
      <point x="366" y="402"/>
      <point x="385" y="390" type="curve"/>
      <point x="385" y="119" type="line"/>
      <point x="370" y="116"/>
      <point x="347" y="114"/>
    </contour>
  </outline>
</glyph>
<glyph name="k" format="2">
  <advance width="579"/>
  <unicode hex="006B"/>
  <anchor x="280" y="0" name="bottom"/>
  <anchor x="290" y="776" name="top"/>
  <outline>
    <contour>
      <point x="70" y="0" type="line"/>
      <point x="219" y="0" type="line"/>
      <point x="219" y="230" type="line"/>
      <point x="287" y="176"/>
      <point x="355" y="69"/>
      <point x="398" y="0" type="curve"/>
      <point x="569" y="0" type="line"/>
      <point x="524" y="87"/>
      <point x="429" y="222"/>
      <point x="348" y="295" type="curve"/>
      <point x="428" y="374"/>
      <point x="491" y="445"/>
      <point x="562" y="526" type="curve"/>
      <point x="385" y="526" type="line"/>
      <point x="347" y="480"/>
      <point x="277" y="400"/>
      <point x="219" y="336" type="curve"/>
      <point x="219" y="776" type="line"/>
      <point x="70" y="752" type="line"/>
    </contour>
  </outline>
</glyph>
<glyph name="l" format="2">
  <advance width="316"/>
  <unicode hex="006C"/>
  <anchor x="178" y="0" name="bottom"/>
  <anchor x="158" y="388" name="center"/>
  <anchor x="158" y="776" name="top"/>
  <anchor x="269" y="776" name="topright"/>
  <outline>
    <contour>
      <point x="280" y="-10" type="curve"/>
      <point x="301" y="113" type="line"/>
      <point x="230" y="118"/>
      <point x="219" y="150"/>
      <point x="219" y="203" type="curve" smooth="yes"/>
      <point x="219" y="776" type="line"/>
      <point x="70" y="752" type="line"/>
      <point x="70" y="173" type="line" smooth="yes"/>
      <point x="70" y="61"/>
      <point x="108" y="-7"/>
    </contour>
  </outline>
</glyph>
<glyph name="w" format="2">
  <advance width="784"/>
  <unicode hex="0077"/>
  <anchor x="392" y="0" name="bottom"/>
  <anchor x="391" y="526" name="top"/>
  <outline>
    <contour>
      <point x="184" y="0" type="curve"/>
      <point x="300" y="0" type="line"/>
      <point x="333" y="101"/>
      <point x="363" y="201"/>
      <point x="390" y="302" type="curve"/>
      <point x="417" y="201"/>
      <point x="450" y="101"/>
      <point x="483" y="0" type="curve"/>
      <point x="599" y="0" type="line"/>
      <point x="647" y="112"/>
      <point x="715" y="317"/>
      <point x="774" y="526" type="curve"/>
      <point x="619" y="526" type="line"/>
      <point x="598" y="430"/>
      <point x="567" y="294"/>
      <point x="535" y="182" type="curve"/>
      <point x="500" y="300"/>
      <point x="469" y="431"/>
      <point x="448" y="526" type="curve"/>
      <point x="340" y="526" type="line"/>
      <point x="319" y="430"/>
      <point x="285" y="300"/>
      <point x="250" y="182" type="curve"/>
      <point x="218" y="294"/>
      <point x="188" y="430"/>
      <point x="167" y="526" type="curve"/>
      <point x="10" y="526" type="line"/>
      <point x="69" y="317"/>
      <point x="136" y="111"/>
    </contour>
  </outline>
</glyph>
<glyph name="degree" format="2">
  <advance width="363"/>
  <unicode hex="00B0"/>
  <outline>
    <contour>
      <point x="181" y="471" type="curve" smooth="yes"/>
      <point x="267" y="471"/>
      <point x="342" y="530"/>
      <point x="342" y="626" type="curve" smooth="yes"/>
      <point x="342" y="722"/>
      <point x="267" y="781"/>
      <point x="181" y="781" type="curve" smooth="yes"/>
      <point x="95" y="781"/>
      <point x="20" y="722"/>
      <point x="20" y="626" type="curve" smooth="yes"/>
      <point x="20" y="530"/>
      <point x="95" y="471"/>
    </contour>
    <contour>
      <point x="181" y="569" type="curve" smooth="yes"/>
      <point x="153" y="569"/>
      <point x="126" y="591"/>
      <point x="126" y="626" type="curve" smooth="yes"/>
      <point x="126" y="661"/>
      <point x="153" y="683"/>
      <point x="181" y="683" type="curve" smooth="yes"/>
      <point x="209" y="683"/>
      <point x="236" y="661"/>
      <point x="236" y="626" type="curve" smooth="yes"/>
      <point x="236" y="591"/>
      <point x="209" y="569"/>
    </contour>
  </outline>
</glyph>
<glyph name="plusminus" format="2">
  <advance width="564"/>
  <unicode hex="00B1"/>
  <outline>
    <contour>
      <point x="214" y="160" type="line"/>
      <point x="350" y="160" type="line"/>
      <point x="350" y="330" type="line"/>
      <point x="517" y="330" type="line"/>
      <point x="517" y="455" type="line"/>
      <point x="350" y="455" type="line"/>
      <point x="350" y="625" type="line"/>
      <point x="214" y="625" type="line"/>
      <point x="214" y="455" type="line"/>
      <point x="47" y="455" type="line"/>
      <point x="47" y="330" type="line"/>
      <point x="214" y="330" type="line"/>
    </contour>
    <contour>
      <point x="47" y="0" type="line"/>
      <point x="517" y="0" type="line"/>
      <point x="517" y="125" type="line"/>
      <point x="47" y="125" type="line"/>
    </contour>
  </outline>
</glyph>
<glyph name="ordmasculine" format="2">
  <advance width="457"/>
  <unicode hex="00BA"/>
  <outline>
    <contour>
      <point x="229" y="306" type="curve" smooth="yes"/>
      <point x="344" y="306"/>
      <point x="424" y="382"/>
      <point x="424" y="506" type="curve" smooth="yes"/>
      <point x="424" y="633"/>
      <point x="344" y="709"/>
      <point x="229" y="709" type="curve" smooth="yes"/>
      <point x="114" y="709"/>
      <point x="33" y="633"/>
      <point x="33" y="506" type="curve" smooth="yes"/>
      <point x="33" y="382"/>
      <point x="114" y="306"/>
    </contour>
    <contour>
      <point x="229" y="406" type="curve" smooth="yes"/>
      <point x="177" y="406"/>
      <point x="147" y="446"/>
      <point x="147" y="506" type="curve" smooth="yes"/>
      <point x="147" y="570"/>
      <point x="178" y="609"/>
      <point x="229" y="609" type="curve" smooth="yes"/>
      <point x="281" y="609"/>
      <point x="310" y="570"/>
      <point x="310" y="506" type="curve" smooth="yes"/>
      <point x="310" y="446"/>
      <point x="281" y="406"/>
    </contour>
  </outline>
</glyph>
<glyph name="questiondown" format="2">
  <advance width="455"/>
  <unicode hex="00BF"/>
  <outline>
    <contour>
      <point x="239" y="-197" type="curve" smooth="yes"/>
      <point x="307" y="-197"/>
      <point x="383" y="-178"/>
      <point x="435" y="-145" type="curve"/>
      <point x="393" y="-32" type="line"/>
      <point x="341" y="-59"/>
      <point x="302" y="-70"/>
      <point x="254" y="-70" type="curve" smooth="yes"/>
      <point x="206" y="-70"/>
      <point x="181" y="-44"/>
      <point x="181" y="-12" type="curve" smooth="yes"/>
      <point x="181" y="66"/>
      <point x="325" y="112"/>
      <point x="325" y="247" type="curve" smooth="yes"/>
      <point x="325" y="259"/>
      <point x="325" y="278"/>
      <point x="322" y="291" type="curve"/>
      <point x="190" y="291" type="line"/>
      <point x="191" y="283"/>
      <point x="191" y="270"/>
      <point x="191" y="265" type="curve" smooth="yes"/>
      <point x="191" y="160"/>
      <point x="25" y="119"/>
      <point x="25" y="-21" type="curve" smooth="yes"/>
      <point x="25" y="-96"/>
      <point x="68" y="-197"/>
    </contour>
    <contour>
      <point x="254" y="341" type="curve" smooth="yes"/>
      <point x="302" y="341"/>
      <point x="347" y="374"/>
      <point x="347" y="433" type="curve" smooth="yes"/>
      <point x="347" y="492"/>
      <point x="302" y="525"/>
      <point x="254" y="525" type="curve" smooth="yes"/>
      <point x="206" y="525"/>
      <point x="161" y="492"/>
      <point x="161" y="433" type="curve" smooth="yes"/>
      <point x="161" y="374"/>
      <point x="206" y="341"/>
    </contour>
  </outline>
</glyph>
<glyph name="Eth" format="2">
  <advance width="748"/>
  <unicode hex="00D0"/>
  <outline>
    <contour>
      <point x="299" y="-9" type="curve" smooth="yes"/>
      <point x="544" y="-9"/>
      <point x="698" y="107"/>
      <point x="698" y="347" type="curve" smooth="yes"/>
      <point x="698" y="598"/>
      <point x="541" y="701"/>
      <point x="304" y="701" type="curve" smooth="yes"/>
      <point x="248" y="701"/>
      <point x="163" y="697"/>
      <point x="91" y="684" type="curve"/>
      <point x="91" y="417" type="line"/>
      <point x="10" y="417" type="line"/>
      <point x="10" y="302" type="line"/>
      <point x="91" y="302" type="line"/>
      <point x="91" y="9" type="line"/>
      <point x="163" y="-6"/>
      <point x="243" y="-9"/>
    </contour>
    <contour>
      <point x="307" y="125" type="curve" smooth="yes"/>
      <point x="280" y="125"/>
      <point x="262" y="126"/>
      <point x="247" y="127" type="curve"/>
      <point x="247" y="302" type="line"/>
      <point x="373" y="302" type="line"/>
      <point x="373" y="417" type="line"/>
      <point x="247" y="417" type="line"/>
      <point x="247" y="565" type="line"/>
      <point x="267" y="568"/>
      <point x="291" y="568"/>
      <point x="312" y="568" type="curve" smooth="yes"/>
      <point x="468" y="568"/>
      <point x="537" y="492"/>
      <point x="537" y="347" type="curve" smooth="yes"/>
      <point x="537" y="208"/>
      <point x="463" y="125"/>
    </contour>
  </outline>
</glyph>
<glyph name="ccedilla" format="2">
  <advance width="500"/>
  <unicode hex="00E7"/>
  <outline>
    <contour>
      <point x="246" y="-221" type="curve" smooth="yes"/>
      <point x="329" y="-221"/>
      <point x="384" y="-187"/>
      <point x="384" y="-123" type="curve" smooth="yes"/>
      <point x="384" y="-92"/>
      <point x="371" y="-61"/>
      <point x="328" y="-40" type="curve"/>
      <point x="332" y="-31"/>
      <point x="336" y="-22"/>
      <point x="340" y="-13" type="curve"/>
      <point x="393" y="-10"/>
      <point x="439" y="0"/>
      <point x="470" y="13" type="curve"/>
      <point x="449" y="135" type="line"/>
      <point x="414" y="120"/>
      <point x="370" y="114"/>
      <point x="334" y="114" type="curve" smooth="yes"/>
      <point x="233" y="114"/>
      <point x="197" y="168"/>
      <point x="197" y="263" type="curve" smooth="yes"/>
      <point x="197" y="352"/>
      <point x="240" y="412"/>
      <point x="328" y="412" type="curve" smooth="yes"/>
      <point x="369" y="412"/>
      <point x="402" y="403"/>
      <point x="430" y="392" type="curve"/>
      <point x="461" y="511" type="line"/>
      <point x="417" y="530"/>
      <point x="372" y="540"/>
      <point x="316" y="540" type="curve" smooth="yes"/>
      <point x="146" y="540"/>
      <point x="45" y="415"/>
      <point x="45" y="263" type="curve" smooth="yes"/>
      <point x="45" y="129"/>
      <point x="105" y="20"/>
      <point x="244" y="-7" type="curve"/>
      <point x="235" y="-26"/>
      <point x="224" y="-50"/>
      <point x="219" y="-67" type="curve"/>
      <point x="262" y="-75"/>
      <point x="275" y="-91"/>
      <point x="274" y="-107" type="curve" smooth="yes"/>
      <point x="273" y="-126"/>
      <point x="257" y="-132"/>
      <point x="238" y="-132" type="curve" smooth="yes"/>
      <point x="214" y="-132"/>
      <point x="185" y="-124"/>
      <point x="176" y="-121" type="curve"/>
      <point x="158" y="-208" type="line"/>
      <point x="187" y="-216"/>
      <point x="217" y="-221"/>
    </contour>
  </outline>
</glyph>
<glyph name="thorn" format="2">
  <advance width="604"/>
  <unicode hex="00FE"/>
  <anchor x="302" y="0" name="bottom"/>
  <anchor x="302" y="526" name="top"/>
  <outline>
    <contour>
      <point x="70" y="-185" type="line"/>
      <point x="219" y="-185" type="line"/>
      <point x="219" y="13" type="line"/>
      <point x="252" y="-2"/>
      <point x="288" y="-10"/>
      <point x="329" y="-10" type="curve" smooth="yes"/>
      <point x="478" y="-10"/>
      <point x="559" y="101"/>
      <point x="559" y="263" type="curve" smooth="yes"/>
      <point x="559" y="431"/>
      <point x="457" y="538"/>
      <point x="294" y="538" type="curve" smooth="yes"/>
      <point x="273" y="538"/>
      <point x="242" y="535"/>
      <point x="219" y="528" type="curve"/>
      <point x="219" y="776" type="line"/>
      <point x="70" y="752" type="line"/>
    </contour>
    <contour>
      <point x="301" y="116" type="curve" smooth="yes"/>
      <point x="270" y="116"/>
      <point x="238" y="125"/>
      <point x="219" y="137" type="curve"/>
      <point x="219" y="402" type="line"/>
      <point x="234" y="407"/>
      <point x="262" y="411"/>
      <point x="289" y="411" type="curve" smooth="yes"/>
      <point x="365" y="411"/>
      <point x="407" y="351"/>
      <point x="407" y="259" type="curve" smooth="yes"/>
      <point x="407" y="164"/>
      <point x="372" y="116"/>
    </contour>
  </outline>
</glyph>
<glyph name="Hbar" format="2">
  <advance width="756"/>
  <unicode hex="0126"/>
  <outline>
    <contour>
      <point x="91" y="0" type="line"/>
      <point x="247" y="0" type="line"/>
      <point x="247" y="284" type="line"/>
      <point x="509" y="284" type="line"/>
      <point x="509" y="0" type="line"/>
      <point x="665" y="0" type="line"/>
      <point x="665" y="502" type="line"/>
      <point x="746" y="502" type="line"/>
      <point x="746" y="612" type="line"/>
      <point x="665" y="612" type="line"/>
      <point x="665" y="693" type="line"/>
      <point x="509" y="693" type="line"/>
      <point x="509" y="612" type="line"/>
      <point x="247" y="612" type="line"/>
      <point x="247" y="693" type="line"/>
      <point x="91" y="693" type="line"/>
      <point x="91" y="612" type="line"/>
      <point x="10" y="612" type="line"/>
      <point x="10" y="502" type="line"/>
      <point x="91" y="502" type="line"/>
    </contour>
    <contour>
      <point x="247" y="418" type="line"/>
      <point x="247" y="502" type="line"/>
      <point x="509" y="502" type="line"/>
      <point x="509" y="418" type="line"/>
    </contour>
  </outline>
</glyph>
<glyph name="Iogonek" format="2">
  <advance width="316"/>
  <unicode hex="012E"/>
  <outline>
    <contour>
      <point x="157" y="-221" type="curve" smooth="yes"/>
      <point x="188" y="-221"/>
      <point x="229" y="-216"/>
      <point x="256" y="-205" type="curve"/>
      <point x="244" y="-105" type="line"/>
      <point x="221" y="-112"/>
      <point x="205" y="-113"/>
      <point x="193" y="-113" type="curve" smooth="yes"/>
      <point x="170" y="-113"/>
      <point x="163" y="-103"/>
      <point x="163" y="-88" type="curve" smooth="yes"/>
      <point x="163" y="-59"/>
      <point x="217" y="-16"/>
      <point x="236" y="0" type="curve"/>
      <point x="236" y="693" type="line"/>
      <point x="80" y="693" type="line"/>
      <point x="80" y="0" type="line"/>
      <point x="117" y="0" type="line"/>
      <point x="82" y="-27"/>
      <point x="32" y="-76"/>
      <point x="32" y="-130" type="curve" smooth="yes"/>
      <point x="32" y="-185"/>
      <point x="68" y="-221"/>
    </contour>
  </outline>
</glyph>
<glyph name="iogonek" format="2">
  <advance width="289"/>
  <unicode hex="012F"/>
  <outline>
    <contour>
      <point x="140" y="-221" type="curve" smooth="yes"/>
      <point x="171" y="-221"/>
      <point x="212" y="-216"/>
      <point x="239" y="-205" type="curve"/>
      <point x="227" y="-105" type="line"/>
      <point x="204" y="-112"/>
      <point x="188" y="-113"/>
      <point x="176" y="-113" type="curve" smooth="yes"/>
      <point x="153" y="-113"/>
      <point x="146" y="-103"/>
      <point x="146" y="-88" type="curve" smooth="yes"/>
      <point x="146" y="-59"/>
      <point x="200" y="-16"/>
      <point x="219" y="0" type="curve"/>
      <point x="219" y="526" type="line"/>
      <point x="70" y="526" type="line"/>
      <point x="70" y="0" type="line"/>
      <point x="100" y="0" type="line"/>
      <point x="65" y="-27"/>
      <point x="15" y="-76"/>
      <point x="15" y="-130" type="curve" smooth="yes"/>
      <point x="15" y="-185"/>
      <point x="51" y="-221"/>
    </contour>
    <contour>
      <point x="144" y="590" type="curve" smooth="yes"/>
      <point x="192" y="590"/>
      <point x="233" y="623"/>
      <point x="233" y="678" type="curve" smooth="yes"/>
      <point x="233" y="733"/>
      <point x="192" y="766"/>
      <point x="144" y="766" type="curve" smooth="yes"/>
      <point x="96" y="766"/>
      <point x="55" y="733"/>
      <point x="55" y="678" type="curve" smooth="yes"/>
      <point x="55" y="623"/>
      <point x="96" y="590"/>
    </contour>
  </outline>
</glyph>
<glyph name="kgreenlandic" format="2">
  <advance width="582"/>
  <unicode hex="0138"/>
  <anchor x="291" y="0" name="bottom"/>
  <anchor x="291" y="526" name="top"/>
  <outline>
    <contour>
      <point x="70" y="0" type="line"/>
      <point x="219" y="0" type="line"/>
      <point x="219" y="224" type="line"/>
      <point x="286" y="168"/>
      <point x="358" y="69"/>
      <point x="401" y="0" type="curve"/>
      <point x="572" y="0" type="line"/>
      <point x="524" y="89"/>
      <point x="429" y="210"/>
      <point x="348" y="288" type="curve"/>
      <point x="407" y="347"/>
      <point x="506" y="455"/>
      <point x="564" y="526" type="curve"/>
      <point x="387" y="526" type="line"/>
      <point x="347" y="475"/>
      <point x="278" y="393"/>
      <point x="219" y="329" type="curve"/>
      <point x="219" y="526" type="line"/>
      <point x="70" y="526" type="line"/>
    </contour>
  </outline>
</glyph>
<glyph name="eng" format="2">
  <advance width="589"/>
  <unicode hex="014B"/>
  <anchor x="295" y="0" name="bottom"/>
  <anchor x="295" y="526" name="top"/>
  <outline>
    <contour>
      <point x="337" y="-185" type="curve" smooth="yes"/>
      <point x="474" y="-185"/>
      <point x="524" y="-125"/>
      <point x="524" y="3" type="curve" smooth="yes"/>
      <point x="524" y="297" type="line" smooth="yes"/>
      <point x="524" y="440"/>
      <point x="473" y="538"/>
      <point x="294" y="538" type="curve" smooth="yes"/>
      <point x="206" y="538"/>
      <point x="121" y="523"/>
      <point x="70" y="508" type="curve"/>
      <point x="70" y="0" type="line"/>
      <point x="219" y="0" type="line"/>
      <point x="219" y="406" type="line"/>
      <point x="238" y="409"/>
      <point x="264" y="411"/>
      <point x="285" y="411" type="curve" smooth="yes"/>
      <point x="354" y="411"/>
      <point x="375" y="375"/>
      <point x="375" y="279" type="curve" smooth="yes"/>
      <point x="375" y="-2" type="line"/>
      <point x="375" y="-49"/>
      <point x="357" y="-73"/>
      <point x="320" y="-73" type="curve" smooth="yes"/>
      <point x="303" y="-73"/>
      <point x="290" y="-70"/>
      <point x="275" y="-66" type="curve"/>
      <point x="257" y="-173" type="line"/>
      <point x="286" y="-184"/>
      <point x="320" y="-185"/>
    </contour>
  </outline>
</glyph>
<glyph name="uogonek" format="2">
  <advance width="589"/>
  <unicode hex="0173"/>
  <outline>
    <contour>
      <point x="422" y="-218" type="curve" smooth="yes"/>
      <point x="453" y="-218"/>
      <point x="494" y="-213"/>
      <point x="521" y="-202" type="curve"/>
      <point x="509" y="-102" type="line"/>
      <point x="486" y="-109"/>
      <point x="470" y="-110"/>
      <point x="458" y="-110" type="curve" smooth="yes"/>
      <point x="435" y="-110"/>
      <point x="428" y="-100"/>
      <point x="428" y="-85" type="curve" smooth="yes"/>
      <point x="428" y="-52"/>
      <point x="506" y="7"/>
      <point x="519" y="18" type="curve"/>
      <point x="519" y="526" type="line"/>
      <point x="370" y="526" type="line"/>
      <point x="370" y="120" type="line"/>
      <point x="351" y="117"/>
      <point x="325" y="115"/>
      <point x="304" y="115" type="curve" smooth="yes"/>
      <point x="235" y="115"/>
      <point x="214" y="155"/>
      <point x="214" y="251" type="curve" smooth="yes"/>
      <point x="214" y="526" type="line"/>
      <point x="65" y="526" type="line"/>
      <point x="65" y="233" type="line" smooth="yes"/>
      <point x="65" y="89"/>
      <point x="116" y="-12"/>
      <point x="295" y="-12" type="curve" smooth="yes"/>
      <point x="318" y="-12"/>
      <point x="345" y="-12"/>
      <point x="366" y="-9" type="curve"/>
      <point x="332" y="-40"/>
      <point x="297" y="-81"/>
      <point x="297" y="-127" type="curve" smooth="yes"/>
      <point x="297" y="-182"/>
      <point x="333" y="-218"/>
    </contour>
  </outline>
</glyph>
<glyph name="bstroke" format="2">
  <advance width="604"/>
  <unicode hex="0180"/>
  <outline>
    <contour>
      <point x="285" y="-13" type="curve" smooth="yes"/>
      <point x="458" y="-13"/>
      <point x="559" y="96"/>
      <point x="559" y="256" type="curve" smooth="yes"/>
      <point x="559" y="412"/>
      <point x="478" y="523"/>
      <point x="329" y="523" type="curve" smooth="yes"/>
      <point x="288" y="523"/>
      <point x="252" y="515"/>
      <point x="219" y="500" type="curve"/>
      <point x="219" y="596" type="line"/>
      <point x="362" y="596" type="line"/>
      <point x="362" y="689" type="line"/>
      <point x="219" y="689" type="line"/>
      <point x="219" y="776" type="line"/>
      <point x="70" y="752" type="line"/>
      <point x="70" y="689" type="line"/>
      <point x="8" y="689" type="line"/>
      <point x="8" y="596" type="line"/>
      <point x="70" y="596" type="line"/>
      <point x="70" y="17" type="line"/>
      <point x="123" y="1"/>
      <point x="213" y="-13"/>
    </contour>
    <contour>
      <point x="284" y="114" type="curve" smooth="yes"/>
      <point x="257" y="114"/>
      <point x="234" y="116"/>
      <point x="219" y="119" type="curve"/>
      <point x="219" y="376" type="line"/>
      <point x="238" y="388"/>
      <point x="270" y="397"/>
      <point x="301" y="397" type="curve" smooth="yes"/>
      <point x="372" y="397"/>
      <point x="407" y="347"/>
      <point x="407" y="260" type="curve" smooth="yes"/>
      <point x="407" y="176"/>
      <point x="364" y="114"/>
    </contour>
  </outline>
</glyph>
<glyph name="Oopen" format="2">
  <advance width="648"/>
  <unicode hex="0186"/>
  <anchor x="324" y="0" name="bottom"/>
  <anchor x="324" y="693" name="top"/>
  <outline>
    <contour>
      <point x="244" y="-14" type="curve" smooth="yes"/>
      <point x="447" y="-14"/>
      <point x="598" y="118"/>
      <point x="598" y="348" type="curve" smooth="yes"/>
      <point x="598" y="578"/>
      <point x="477" y="709"/>
      <point x="252" y="709" type="curve" smooth="yes"/>
      <point x="147" y="709"/>
      <point x="64" y="684"/>
      <point x="20" y="657" type="curve"/>
      <point x="63" y="532" type="line"/>
      <point x="96" y="548"/>
      <point x="146" y="571"/>
      <point x="238" y="571" type="curve" smooth="yes"/>
      <point x="383" y="571"/>
      <point x="436" y="473"/>
      <point x="436" y="345" type="curve" smooth="yes"/>
      <point x="436" y="185"/>
      <point x="343" y="124"/>
      <point x="246" y="124" type="curve" smooth="yes"/>
      <point x="174" y="124"/>
      <point x="118" y="142"/>
      <point x="75" y="165" type="curve"/>
      <point x="30" y="39" type="line"/>
      <point x="52" y="26"/>
      <point x="126" y="-14"/>
    </contour>
  </outline>
</glyph>
<glyph name="chook" format="2">
  <advance width="548"/>
  <unicode hex="0188"/>
  <anchor x="274" y="0" name="bottom"/>
  <anchor x="274" y="526" name="top"/>
  <outline>
    <contour>
      <point x="319" y="-14" type="curve" smooth="yes"/>
      <point x="382" y="-14"/>
      <point x="435" y="-2"/>
      <point x="470" y="13" type="curve"/>
      <point x="449" y="135" type="line"/>
      <point x="414" y="120"/>
      <point x="370" y="114"/>
      <point x="334" y="114" type="curve" smooth="yes"/>
      <point x="233" y="114"/>
      <point x="197" y="168"/>
      <point x="197" y="263" type="curve" smooth="yes"/>
      <point x="197" y="352"/>
      <point x="240" y="412"/>
      <point x="328" y="412" type="curve" smooth="yes"/>
      <point x="369" y="412"/>
      <point x="402" y="403"/>
      <point x="430" y="392" type="curve"/>
      <point x="447" y="456" type="line" smooth="yes"/>
      <point x="458" y="496"/>
      <point x="484" y="502"/>
      <point x="504" y="502" type="curve" smooth="yes"/>
      <point x="523" y="502"/>
      <point x="535" y="499"/>
      <point x="550" y="492" type="curve"/>
      <point x="583" y="603" type="line"/>
      <point x="564" y="612"/>
      <point x="532" y="622"/>
      <point x="495" y="622" type="curve" smooth="yes"/>
      <point x="434" y="622"/>
      <point x="394" y="600"/>
      <point x="369" y="536" type="curve"/>
      <point x="350" y="539"/>
      <point x="335" y="540"/>
      <point x="316" y="540" type="curve" smooth="yes"/>
      <point x="146" y="540"/>
      <point x="45" y="415"/>
      <point x="45" y="263" type="curve" smooth="yes"/>
      <point x="45" y="107"/>
      <point x="126" y="-14"/>
    </contour>
  </outline>
</glyph>
<glyph name="Dtopbar" format="2">
  <advance width="650"/>
  <unicode hex="018B"/>
  <anchor x="325" y="0" name="bottom"/>
  <anchor x="325" y="693" name="top"/>
  <outline>
    <contour>
      <point x="367" y="-7" type="curve" smooth="yes"/>
      <point x="423" y="-7"/>
      <point x="498" y="-1"/>
      <point x="570" y="16" type="curve"/>
      <point x="570" y="693" type="line"/>
      <point x="110" y="693" type="line"/>
      <point x="110" y="561" type="line"/>
      <point x="421" y="561" type="line"/>
      <point x="421" y="447" type="line"/>
      <point x="370" y="447" type="line" smooth="yes"/>
      <point x="165" y="447"/>
      <point x="45" y="386"/>
      <point x="45" y="221" type="curve" smooth="yes"/>
      <point x="45" y="68"/>
      <point x="160" y="-7"/>
    </contour>
    <contour>
      <point x="359" y="126" type="curve" smooth="yes"/>
      <point x="277" y="126"/>
      <point x="203" y="144"/>
      <point x="203" y="220" type="curve" smooth="yes"/>
      <point x="203" y="300"/>
      <point x="268" y="318"/>
      <point x="375" y="318" type="curve" smooth="yes"/>
      <point x="421" y="318" type="line"/>
      <point x="421" y="128" type="line"/>
      <point x="406" y="127"/>
      <point x="386" y="126"/>
    </contour>
  </outline>
</glyph>
<glyph name="deltaturned" format="2">
  <advance width="593"/>
  <unicode hex="018D"/>
  <outline>
    <contour>
      <point x="273" y="-188" type="curve" smooth="yes"/>
      <point x="409" y="-188"/>
      <point x="475" y="-129"/>
      <point x="475" y="-42" type="curve" smooth="yes"/>
      <point x="475" y="18"/>
      <point x="446" y="48"/>
      <point x="404" y="82" type="curve"/>
      <point x="497" y="130"/>
      <point x="551" y="206"/>
      <point x="551" y="301" type="curve" smooth="yes"/>
      <point x="551" y="444"/>
      <point x="452" y="539"/>
      <point x="296" y="539" type="curve" smooth="yes"/>
      <point x="141" y="539"/>
      <point x="42" y="439"/>
      <point x="42" y="292" type="curve" smooth="yes"/>
      <point x="42" y="196"/>
      <point x="91" y="126"/>
      <point x="183" y="73" type="curve" smooth="yes"/>
      <point x="275" y="19"/>
      <point x="326" y="4"/>
      <point x="326" y="-34" type="curve" smooth="yes"/>
      <point x="326" y="-66"/>
      <point x="288" y="-66"/>
      <point x="264" y="-66" type="curve" smooth="yes"/>
      <point x="208" y="-66"/>
      <point x="162" y="-56"/>
      <point x="122" y="-40" type="curve"/>
      <point x="91" y="-156" type="line"/>
      <point x="144" y="-176"/>
      <point x="190" y="-188"/>
    </contour>
    <contour>
      <point x="302" y="155" type="curve"/>
      <point x="219" y="198"/>
      <point x="193" y="236"/>
      <point x="193" y="293" type="curve" smooth="yes"/>
      <point x="193" y="376"/>
      <point x="237" y="412"/>
      <point x="296" y="412" type="curve" smooth="yes"/>
      <point x="355" y="412"/>
      <point x="400" y="376"/>
      <point x="400" y="293" type="curve" smooth="yes"/>
      <point x="400" y="243"/>
      <point x="369" y="182"/>
    </contour>
  </outline>
</glyph>
<glyph name="Schwa" format="2">
  <advance width="730"/>
  <unicode hex="018F"/>
  <anchor x="365" y="0" name="bottom"/>
  <anchor x="348" y="685" name="top"/>
  <outline>
    <contour>
      <point x="355" y="-14" type="curve" smooth="yes"/>
      <point x="544" y="-14"/>
      <point x="680" y="106"/>
      <point x="680" y="350" type="curve" smooth="yes"/>
      <point x="680" y="553"/>
      <point x="576" y="709"/>
      <point x="322" y="709" type="curve" smooth="yes"/>
      <point x="213" y="709"/>
      <point x="124" y="670"/>
      <point x="92" y="651" type="curve"/>
      <point x="132" y="529" type="line"/>
      <point x="166" y="545"/>
      <point x="234" y="574"/>
      <point x="312" y="574" type="curve" smooth="yes"/>
      <point x="442" y="574"/>
      <point x="503" y="527"/>
      <point x="516" y="396" type="curve"/>
      <point x="57" y="396" type="line"/>
      <point x="54" y="381"/>
      <point x="50" y="348"/>
      <point x="50" y="333" type="curve" smooth="yes"/>
      <point x="50" y="104"/>
      <point x="172" y="-14"/>
    </contour>
    <contour>
      <point x="356" y="118" type="curve" smooth="yes"/>
      <point x="271" y="118"/>
      <point x="220" y="173"/>
      <point x="212" y="268" type="curve"/>
      <point x="511" y="268" type="line"/>
      <point x="500" y="186"/>
      <point x="457" y="118"/>
    </contour>
  </outline>
</glyph>
<glyph name="Ghook" format="2">
  <advance width="729"/>
  <unicode hex="0193"/>
  <anchor x="365" y="0" name="bottom"/>
  <anchor x="365" y="693" name="top"/>
  <outline>
    <contour>
      <point x="394" y="-13" type="curve" smooth="yes"/>
      <point x="515" y="-13"/>
      <point x="600" y="8"/>
      <point x="637" y="23" type="curve"/>
      <point x="637" y="366" type="line"/>
      <point x="481" y="366" type="line"/>
      <point x="481" y="125" type="line"/>
      <point x="462" y="121"/>
      <point x="439" y="120"/>
      <point x="404" y="120" type="curve" smooth="yes"/>
      <point x="276" y="120"/>
      <point x="212" y="212"/>
      <point x="212" y="347" type="curve" smooth="yes"/>
      <point x="212" y="487"/>
      <point x="273" y="573"/>
      <point x="418" y="573" type="curve" smooth="yes"/>
      <point x="483" y="573"/>
      <point x="539" y="554"/>
      <point x="582" y="531" type="curve"/>
      <point x="605" y="603" type="line"/>
      <point x="620" y="648"/>
      <point x="648" y="656"/>
      <point x="671" y="656" type="curve" smooth="yes"/>
      <point x="691" y="656"/>
      <point x="707" y="652"/>
      <point x="723" y="645" type="curve"/>
      <point x="759" y="764" type="line"/>
      <point x="738" y="775"/>
      <point x="701" y="786"/>
      <point x="658" y="786" type="curve" smooth="yes"/>
      <point x="591" y="786"/>
      <point x="547" y="767"/>
      <point x="519" y="696" type="curve"/>
      <point x="486" y="703"/>
      <point x="445" y="709"/>
      <point x="397" y="709" type="curve" smooth="yes"/>
      <point x="204" y="709"/>
      <point x="50" y="578"/>
      <point x="50" y="347" type="curve" smooth="yes"/>
      <point x="50" y="118"/>
      <point x="186" y="-13"/>
    </contour>
  </outline>
</glyph>
<glyph name="Oi" format="2">
  <advance width="1074"/>
  <unicode hex="01A2"/>
  <outline>
    <contour>
      <point x="382" y="-14" type="curve" smooth="yes"/>
      <point x="563" y="-14"/>
      <point x="714" y="110"/>
      <point x="714" y="347" type="curve" smooth="yes"/>
      <point x="714" y="427"/>
      <point x="697" y="492"/>
      <point x="666" y="547" type="curve"/>
      <point x="691" y="564"/>
      <point x="717" y="573"/>
      <point x="744" y="573" type="curve" smooth="yes"/>
      <point x="808" y="573"/>
      <point x="838" y="544"/>
      <point x="838" y="425" type="curve" smooth="yes"/>
      <point x="838" y="0" type="line"/>
      <point x="994" y="0" type="line"/>
      <point x="994" y="428" type="line" smooth="yes"/>
      <point x="994" y="593"/>
      <point x="960" y="709"/>
      <point x="760" y="709" type="curve" smooth="yes"/>
      <point x="689" y="709"/>
      <point x="633" y="688"/>
      <point x="580" y="645" type="curve"/>
      <point x="524" y="688"/>
      <point x="454" y="709"/>
      <point x="382" y="709" type="curve" smooth="yes"/>
      <point x="213" y="709"/>
      <point x="50" y="584"/>
      <point x="50" y="347" type="curve" smooth="yes"/>
      <point x="50" y="110"/>
      <point x="207" y="-14"/>
    </contour>
    <contour>
      <point x="382" y="123" type="curve" smooth="yes"/>
      <point x="281" y="123"/>
      <point x="211" y="212"/>
      <point x="211" y="347" type="curve" smooth="yes"/>
      <point x="211" y="480"/>
      <point x="281" y="572"/>
      <point x="382" y="572" type="curve" smooth="yes"/>
      <point x="483" y="572"/>
      <point x="553" y="483"/>
      <point x="553" y="347" type="curve" smooth="yes"/>
      <point x="553" y="212"/>
      <point x="483" y="123"/>
    </contour>
  </outline>
</glyph>
<glyph name="Thook" format="2">
  <advance width="654"/>
  <unicode hex="01AC"/>
  <anchor x="327" y="0" name="bottom"/>
  <anchor x="327" y="693" name="top"/>
  <outline>
    <contour>
      <point x="269" y="0" type="line"/>
      <point x="425" y="0" type="line"/>
      <point x="425" y="560" type="line"/>
      <point x="634" y="560" type="line"/>
      <point x="634" y="693" type="line"/>
      <point x="353" y="693" type="line" smooth="yes"/>
      <point x="205" y="693"/>
      <point x="15" y="698"/>
      <point x="15" y="518" type="curve" smooth="yes"/>
      <point x="15" y="493"/>
      <point x="22" y="460"/>
      <point x="27" y="441" type="curve"/>
      <point x="147" y="457" type="line"/>
      <point x="142" y="478"/>
      <point x="142" y="494"/>
      <point x="142" y="501" type="curve" smooth="yes"/>
      <point x="142" y="532"/>
      <point x="160" y="560"/>
      <point x="215" y="560" type="curve" smooth="yes"/>
      <point x="269" y="560" type="line"/>
    </contour>
  </outline>
</glyph>
<glyph name="Tretroflexhook" format="2">
  <advance width="614"/>
  <unicode hex="01AE"/>
  <anchor x="307" y="0" name="bottom"/>
  <anchor x="307" y="693" name="top"/>
  <outline>
    <contour>
      <point x="426" y="-187" type="curve" smooth="yes"/>
      <point x="445" y="-187"/>
      <point x="481" y="-185"/>
      <point x="513" y="-174" type="curve"/>
      <point x="493" y="-53" type="line"/>
      <point x="473" y="-60"/>
      <point x="465" y="-61"/>
      <point x="440" y="-61" type="curve" smooth="yes"/>
      <point x="399" y="-61"/>
      <point x="385" y="-32"/>
      <point x="385" y="21" type="curve" smooth="yes"/>
      <point x="385" y="560" type="line"/>
      <point x="594" y="560" type="line"/>
      <point x="594" y="693" type="line"/>
      <point x="20" y="693" type="line"/>
      <point x="20" y="560" type="line"/>
      <point x="229" y="560" type="line"/>
      <point x="229" y="17" type="line" smooth="yes"/>
      <point x="229" y="-122"/>
      <point x="289" y="-187"/>
    </contour>
  </outline>
</glyph>
<glyph name="Yhook" format="2">
  <advance width="715"/>
  <unicode hex="01B3"/>
  <anchor x="358" y="0" name="bottom"/>
  <anchor x="358" y="693" name="top"/>
  <outline>
    <contour>
      <point x="253" y="0" type="line"/>
      <point x="409" y="0" type="line"/>
      <point x="409" y="265" type="line"/>
      <point x="458" y="353"/>
      <point x="503" y="444"/>
      <point x="553" y="530" type="curve" smooth="yes"/>
      <point x="568" y="557"/>
      <point x="580" y="568"/>
      <point x="607" y="568" type="curve" smooth="yes"/>
      <point x="631" y="568"/>
      <point x="645" y="559"/>
      <point x="660" y="544" type="curve"/>
      <point x="725" y="646" type="line"/>
      <point x="680" y="690"/>
      <point x="634" y="703"/>
      <point x="581" y="703" type="curve" smooth="yes"/>
      <point x="481" y="703"/>
      <point x="445" y="627"/>
      <point x="417" y="572" type="curve" smooth="yes"/>
      <point x="389" y="517"/>
      <point x="362" y="463"/>
      <point x="334" y="408" type="curve"/>
      <point x="278" y="503"/>
      <point x="229" y="597"/>
      <point x="186" y="693" type="curve"/>
      <point x="5" y="693" type="line"/>
      <point x="81" y="544"/>
      <point x="162" y="404"/>
      <point x="253" y="263" type="curve"/>
    </contour>
  </outline>
</glyph>
<glyph name="yhook" format="2">
  <advance width="607"/>
  <unicode hex="01B4"/>
  <anchor x="304" y="0" name="bottom"/>
  <anchor x="304" y="526" name="top"/>
  <outline>
    <contour>
      <point x="118" y="-185" type="curve" smooth="yes"/>
      <point x="233" y="-185"/>
      <point x="300" y="-129"/>
      <point x="344" y="-12" type="curve" smooth="yes"/>
      <point x="391" y="116"/>
      <point x="428" y="246"/>
      <point x="476" y="374" type="curve" smooth="yes"/>
      <point x="488" y="405"/>
      <point x="503" y="415"/>
      <point x="527" y="415" type="curve" smooth="yes"/>
      <point x="538" y="415"/>
      <point x="551" y="414"/>
      <point x="571" y="405" type="curve"/>
      <point x="602" y="514" type="line"/>
      <point x="567" y="529"/>
      <point x="528" y="534"/>
      <point x="499" y="534" type="curve" smooth="yes"/>
      <point x="411" y="534"/>
      <point x="375" y="497"/>
      <point x="351" y="417" type="curve"/>
      <point x="328" y="345"/>
      <point x="303" y="256"/>
      <point x="280" y="179" type="curve"/>
      <point x="243" y="274"/>
      <point x="195" y="422"/>
      <point x="168" y="526" type="curve"/>
      <point x="10" y="526" type="line"/>
      <point x="70" y="321"/>
      <point x="141" y="154"/>
      <point x="208" y="22" type="curve"/>
      <point x="188" y="-29"/>
      <point x="163" y="-59"/>
      <point x="110" y="-59" type="curve" smooth="yes"/>
      <point x="83" y="-59"/>
      <point x="62" y="-56"/>
      <point x="31" y="-45" type="curve"/>
      <point x="5" y="-164" type="line"/>
      <point x="30" y="-175"/>
      <point x="71" y="-185"/>
    </contour>
  </outline>
</glyph>
<glyph name="zstroke" format="2">
  <advance width="500"/>
  <unicode hex="01B6"/>
  <outline>
    <contour>
      <point x="35" y="0" type="line"/>
      <point x="470" y="0" type="line"/>
      <point x="470" y="119" type="line"/>
      <point x="206" y="119" type="line"/>
      <point x="229" y="151"/>
      <point x="255" y="187"/>
      <point x="283" y="222" type="curve"/>
      <point x="445" y="222" type="line"/>
      <point x="445" y="310" type="line"/>
      <point x="358" y="310" type="line"/>
      <point x="402" y="361"/>
      <point x="442" y="407"/>
      <point x="465" y="431" type="curve"/>
      <point x="465" y="526" type="line"/>
      <point x="47" y="526" type="line"/>
      <point x="47" y="407" type="line"/>
      <point x="281" y="407" type="line"/>
      <point x="258" y="380"/>
      <point x="231" y="345"/>
      <point x="202" y="310" type="curve"/>
      <point x="67" y="310" type="line"/>
      <point x="67" y="222" type="line"/>
      <point x="131" y="222" type="line"/>
      <point x="92" y="171"/>
      <point x="58" y="123"/>
      <point x="35" y="83" type="curve"/>
    </contour>
  </outline>
</glyph>
<glyph name="Ezhreversed" format="2">
  <advance width="614"/>
  <unicode hex="01B8"/>
  <anchor x="307" y="0" name="bottom"/>
  <anchor x="307" y="693" name="top"/>
  <outline>
    <contour>
      <point x="355" y="-15" type="curve" smooth="yes"/>
      <point x="466" y="-15"/>
      <point x="556" y="21"/>
      <point x="594" y="42" type="curve"/>
      <point x="548" y="166" type="line"/>
      <point x="504" y="143"/>
      <point x="433" y="118"/>
      <point x="356" y="118" type="curve" smooth="yes"/>
      <point x="268" y="118"/>
      <point x="216" y="143"/>
      <point x="216" y="207" type="curve" smooth="yes"/>
      <point x="216" y="284"/>
      <point x="286" y="306"/>
      <point x="387" y="306" type="curve" smooth="yes"/>
      <point x="436" y="306" type="line"/>
      <point x="436" y="392" type="line"/>
      <point x="386" y="442"/>
      <point x="314" y="516"/>
      <point x="275" y="563" type="curve"/>
      <point x="558" y="563" type="line"/>
      <point x="558" y="693" type="line"/>
      <point x="73" y="693" type="line"/>
      <point x="73" y="600" type="line"/>
      <point x="105" y="559"/>
      <point x="191" y="466"/>
      <point x="252" y="403" type="curve"/>
      <point x="109" y="378"/>
      <point x="55" y="313"/>
      <point x="55" y="205" type="curve" smooth="yes"/>
      <point x="55" y="53"/>
      <point x="175" y="-15"/>
    </contour>
  </outline>
</glyph>
<glyph name="clickalveolar" format="2">
  <advance width="570"/>
  <unicode hex="01C2"/>
  <outline>
    <contour>
      <point x="214" y="-185" type="line"/>
      <point x="357" y="-185" type="line"/>
      <point x="357" y="151" type="line"/>
      <point x="540" y="151" type="line"/>
      <point x="540" y="259" type="line"/>
      <point x="357" y="259" type="line"/>
      <point x="357" y="349" type="line"/>
      <point x="540" y="349" type="line"/>
      <point x="540" y="457" type="line"/>
      <point x="357" y="457" type="line"/>
      <point x="357" y="783" type="line"/>
      <point x="214" y="783" type="line"/>
      <point x="214" y="457" type="line"/>
      <point x="30" y="457" type="line"/>
      <point x="30" y="349" type="line"/>
      <point x="214" y="349" type="line"/>
      <point x="214" y="259" type="line"/>
      <point x="30" y="259" type="line"/>
      <point x="30" y="151" type="line"/>
      <point x="214" y="151" type="line"/>
    </contour>
  </outline>
</glyph>
<glyph name="Hwair" format="2">
  <advance width="1061"/>
  <unicode hex="01F6"/>
  <outline>
    <contour>
      <point x="747" y="-14" type="curve" smooth="yes"/>
      <point x="951" y="-14"/>
      <point x="1001" y="99"/>
      <point x="1001" y="248" type="curve" smooth="yes"/>
      <point x="1001" y="534" type="line"/>
      <point x="846" y="534" type="line"/>
      <point x="846" y="266" type="line" smooth="yes"/>
      <point x="846" y="166"/>
      <point x="819" y="120"/>
      <point x="747" y="120" type="curve" smooth="yes"/>
      <point x="674" y="120"/>
      <point x="647" y="166"/>
      <point x="647" y="266" type="curve" smooth="yes"/>
      <point x="647" y="693" type="line"/>
      <point x="491" y="693" type="line"/>
      <point x="491" y="428" type="line"/>
      <point x="236" y="428" type="line"/>
      <point x="236" y="693" type="line"/>
      <point x="80" y="693" type="line"/>
      <point x="80" y="0" type="line"/>
      <point x="236" y="0" type="line"/>
      <point x="236" y="294" type="line"/>
      <point x="491" y="294" type="line"/>
      <point x="491" y="245" type="line" smooth="yes"/>
      <point x="491" y="96"/>
      <point x="547" y="-14"/>
    </contour>
  </outline>
</glyph>
<glyph name="Nlongrightleg" format="2">
  <advance width="704"/>
  <unicode hex="0220"/>
  <outline>
    <contour>
      <point x="473" y="-185" type="line"/>
      <point x="629" y="-185" type="line"/>
      <point x="629" y="412" type="line" smooth="yes"/>
      <point x="629" y="585"/>
      <point x="559" y="709"/>
      <point x="341" y="709" type="curve" smooth="yes"/>
      <point x="234" y="709"/>
      <point x="144" y="694"/>
      <point x="80" y="678" type="curve"/>
      <point x="80" y="0" type="line"/>
      <point x="236" y="0" type="line"/>
      <point x="236" y="567" type="line"/>
      <point x="260" y="571"/>
      <point x="296" y="574"/>
      <point x="331" y="574" type="curve" smooth="yes"/>
      <point x="415" y="574"/>
      <point x="473" y="531"/>
      <point x="473" y="414" type="curve" smooth="yes"/>
    </contour>
  </outline>
</glyph>
<glyph name="ncurl" format="2">
  <advance width="772"/>
  <unicode hex="0235"/>
  <outline>
    <contour>
      <point x="581" y="-185" type="curve" smooth="yes"/>
      <point x="681" y="-185"/>
      <point x="764" y="-129"/>
      <point x="764" y="-12" type="curve" smooth="yes"/>
      <point x="764" y="96"/>
      <point x="690" y="155"/>
      <point x="605" y="155" type="curve" smooth="yes"/>
      <point x="566" y="155"/>
      <point x="539" y="141"/>
      <point x="524" y="134" type="curve"/>
      <point x="524" y="297" type="line" smooth="yes"/>
      <point x="524" y="440"/>
      <point x="473" y="538"/>
      <point x="294" y="538" type="curve" smooth="yes"/>
      <point x="206" y="538"/>
      <point x="121" y="523"/>
      <point x="70" y="508" type="curve"/>
      <point x="70" y="0" type="line"/>
      <point x="219" y="0" type="line"/>
      <point x="219" y="406" type="line"/>
      <point x="238" y="409"/>
      <point x="264" y="411"/>
      <point x="285" y="411" type="curve" smooth="yes"/>
      <point x="354" y="411"/>
      <point x="375" y="375"/>
      <point x="375" y="279" type="curve" smooth="yes"/>
      <point x="375" y="51" type="line"/>
      <point x="375" y="44"/>
      <point x="375" y="37"/>
      <point x="376" y="28" type="curve"/>
      <point x="258" y="-103" type="line"/>
      <point x="334" y="-175" type="line"/>
      <point x="410" y="-92" type="line"/>
      <point x="443" y="-151"/>
      <point x="500" y="-185"/>
    </contour>
    <contour>
      <point x="581" y="-75" type="curve" smooth="yes"/>
      <point x="538" y="-75"/>
      <point x="523" y="-43"/>
      <point x="523" y="-2" type="curve" smooth="yes"/>
      <point x="523" y="19" type="line"/>
      <point x="536" y="34"/>
      <point x="560" y="42"/>
      <point x="581" y="42" type="curve" smooth="yes"/>
      <point x="616" y="42"/>
      <point x="636" y="15"/>
      <point x="636" y="-18" type="curve" smooth="yes"/>
      <point x="636" y="-46"/>
      <point x="617" y="-75"/>
    </contour>
  </outline>
</glyph>
<glyph name="sswashtail" format="2">
  <advance width="485"/>
  <unicode hex="023F"/>
  <outline>
    <contour>
      <point x="333" y="-185" type="curve" smooth="yes"/>
      <point x="350" y="-185"/>
      <point x="392" y="-182"/>
      <point x="425" y="-173" type="curve"/>
      <point x="411" y="-59" type="line"/>
      <point x="385" y="-63"/>
      <point x="365" y="-65"/>
      <point x="350" y="-65" type="curve" smooth="yes"/>
      <point x="318" y="-65"/>
      <point x="299" y="-56"/>
      <point x="270" y="-32" type="curve" smooth="yes"/>
      <point x="260" y="-23"/>
      <point x="249" y="-12"/>
      <point x="236" y="1" type="curve"/>
      <point x="245" y="0"/>
      <point x="254" y="0"/>
      <point x="263" y="0" type="curve" smooth="yes"/>
      <point x="376" y="0"/>
      <point x="444" y="52"/>
      <point x="444" y="144" type="curve" smooth="yes"/>
      <point x="444" y="232"/>
      <point x="412" y="272"/>
      <point x="281" y="320" type="curve"/>
      <point x="221" y="343"/>
      <point x="200" y="356"/>
      <point x="200" y="381" type="curve" smooth="yes"/>
      <point x="200" y="407"/>
      <point x="223" y="420"/>
      <point x="270" y="420" type="curve" smooth="yes"/>
      <point x="321" y="420"/>
      <point x="360" y="409"/>
      <point x="395" y="397" type="curve"/>
      <point x="421" y="513" type="line"/>
      <point x="386" y="526"/>
      <point x="323" y="540"/>
      <point x="259" y="540" type="curve" smooth="yes"/>
      <point x="131" y="540"/>
      <point x="53" y="479"/>
      <point x="53" y="380" type="curve" smooth="yes"/>
      <point x="53" y="278"/>
      <point x="117" y="242"/>
      <point x="209" y="208" type="curve" smooth="yes"/>
      <point x="269" y="185"/>
      <point x="296" y="170"/>
      <point x="296" y="146" type="curve" smooth="yes"/>
      <point x="296" y="117"/>
      <point x="277" y="107"/>
      <point x="222" y="107" type="curve" smooth="yes"/>
      <point x="170" y="107"/>
      <point x="131" y="113"/>
      <point x="80" y="133" type="curve"/>
      <point x="40" y="30" type="line"/>
      <point x="56" y="21"/>
      <point x="71" y="9"/>
      <point x="85" y="-5" type="curve" smooth="yes"/>
      <point x="110" y="-30"/>
      <point x="133" y="-60"/>
      <point x="158" y="-89" type="curve" smooth="yes"/>
      <point x="202" y="-140"/>
      <point x="252" y="-185"/>
    </contour>
  </outline>
</glyph>
<glyph name="glottalstopsmall" format="2">
  <advance width="450"/>
  <unicode hex="0242"/>
  <outline>
    <contour>
      <point x="97" y="0" type="line"/>
      <point x="246" y="0" type="line"/>
      <point x="246" y="103" type="line"/>
      <point x="246" y="167"/>
      <point x="298" y="193"/>
      <point x="349" y="230" type="curve"/>
      <point x="388" y="256"/>
      <point x="420" y="296"/>
      <point x="420" y="375" type="curve" smooth="yes"/>
      <point x="420" y="476"/>
      <point x="343" y="540"/>
      <point x="202" y="540" type="curve" smooth="yes"/>
      <point x="122" y="540"/>
      <point x="36" y="509"/>
      <point x="7" y="493" type="curve"/>
      <point x="53" y="375" type="line"/>
      <point x="93" y="396"/>
      <point x="152" y="412"/>
      <point x="201" y="412" type="curve" smooth="yes"/>
      <point x="257" y="412"/>
      <point x="273" y="393"/>
      <point x="273" y="366" type="curve" smooth="yes"/>
      <point x="273" y="323"/>
      <point x="234" y="303"/>
      <point x="193" y="273" type="curve" smooth="yes"/>
      <point x="147" y="240"/>
      <point x="97" y="202"/>
      <point x="97" y="115" type="curve" smooth="yes"/>
    </contour>
  </outline>
</glyph>
<glyph name="Ubar" format="2">
  <advance width="749"/>
  <unicode hex="0244"/>
  <anchor x="375" y="0" name="bottom"/>
  <anchor x="375" y="693" name="top"/>
  <outline>
    <contour>
      <point x="372" y="-14" type="curve" smooth="yes"/>
      <point x="569" y="-14"/>
      <point x="658" y="98"/>
      <point x="658" y="262" type="curve" smooth="yes"/>
      <point x="658" y="327" type="line"/>
      <point x="739" y="327" type="line"/>
      <point x="739" y="437" type="line"/>
      <point x="658" y="437" type="line"/>
      <point x="658" y="693" type="line"/>
      <point x="502" y="693" type="line"/>
      <point x="502" y="437" type="line"/>
      <point x="247" y="437" type="line"/>
      <point x="247" y="693" type="line"/>
      <point x="91" y="693" type="line"/>
      <point x="91" y="437" type="line"/>
      <point x="10" y="437" type="line"/>
      <point x="10" y="327" type="line"/>
      <point x="91" y="327" type="line"/>
      <point x="91" y="262" type="line" smooth="yes"/>
      <point x="91" y="100"/>
      <point x="177" y="-14"/>
    </contour>
    <contour>
      <point x="374" y="121" type="curve" smooth="yes"/>
      <point x="299" y="121"/>
      <point x="247" y="162"/>
      <point x="247" y="275" type="curve" smooth="yes"/>
      <point x="247" y="327" type="line"/>
      <point x="502" y="327" type="line"/>
      <point x="502" y="275" type="line" smooth="yes"/>
      <point x="502" y="163"/>
      <point x="450" y="121"/>
    </contour>
  </outline>
</glyph>
<glyph name="Estroke" format="2">
  <advance width="606"/>
  <unicode hex="0246"/>
  <outline>
    <contour>
      <point x="270" y="-101" type="line"/>
      <point x="308" y="0" type="line"/>
      <point x="576" y="0" type="line"/>
      <point x="576" y="131" type="line"/>
      <point x="358" y="131" type="line"/>
      <point x="422" y="298" type="line"/>
      <point x="518" y="298" type="line"/>
      <point x="518" y="426" type="line"/>
      <point x="470" y="426" type="line"/>
      <point x="593" y="747" type="line"/>
      <point x="506" y="776" type="line"/>
      <point x="474" y="693" type="line"/>
      <point x="80" y="693" type="line"/>
      <point x="80" y="0" type="line"/>
      <point x="212" y="0" type="line"/>
      <point x="185" y="-71" type="line"/>
    </contour>
    <contour>
      <point x="236" y="131" type="line"/>
      <point x="236" y="298" type="line"/>
      <point x="325" y="298" type="line"/>
      <point x="261" y="131" type="line"/>
    </contour>
    <contour>
      <point x="236" y="426" type="line"/>
      <point x="236" y="562" type="line"/>
      <point x="425" y="562" type="line"/>
      <point x="373" y="426" type="line"/>
    </contour>
  </outline>
</glyph>
<glyph name="Jstroke" format="2">
  <advance width="550"/>
  <unicode hex="0248"/>
  <anchor x="275" y="0" name="bottom"/>
  <anchor x="275" y="693" name="top"/>
  <outline>
    <contour>
      <point x="208" y="-14" type="curve" smooth="yes"/>
      <point x="405" y="-14"/>
      <point x="459" y="97"/>
      <point x="459" y="233" type="curve" smooth="yes"/>
      <point x="459" y="311" type="line"/>
      <point x="540" y="311" type="line"/>
      <point x="540" y="421" type="line"/>
      <point x="459" y="421" type="line"/>
      <point x="459" y="693" type="line"/>
      <point x="303" y="693" type="line"/>
      <point x="303" y="421" type="line"/>
      <point x="182" y="421" type="line"/>
      <point x="182" y="311" type="line"/>
      <point x="303" y="311" type="line"/>
      <point x="303" y="241" type="line" smooth="yes"/>
      <point x="303" y="153"/>
      <point x="272" y="119"/>
      <point x="196" y="119" type="curve" smooth="yes"/>
      <point x="144" y="119"/>
      <point x="101" y="139"/>
      <point x="62" y="162" type="curve"/>
      <point x="10" y="41" type="line"/>
      <point x="53" y="12"/>
      <point x="117" y="-14"/>
    </contour>
  </outline>
</glyph>
<glyph name="qhooktail" format="2">
  <advance width="604"/>
  <unicode hex="024B"/>
  <anchor x="302" y="0" name="bottom"/>
  <anchor x="302" y="526" name="top"/>
  <outline>
    <contour>
      <point x="551" y="-185" type="curve" smooth="yes"/>
      <point x="570" y="-185"/>
      <point x="622" y="-181"/>
      <point x="654" y="-170" type="curve"/>
      <point x="633" y="-55" type="line"/>
      <point x="616" y="-59"/>
      <point x="600" y="-62"/>
      <point x="581" y="-62" type="curve" smooth="yes"/>
      <point x="542" y="-62"/>
      <point x="534" y="-32"/>
      <point x="534" y="11" type="curve" smooth="yes"/>
      <point x="534" y="508" type="line"/>
      <point x="481" y="524"/>
      <point x="391" y="538"/>
      <point x="319" y="538" type="curve" smooth="yes"/>
      <point x="146" y="538"/>
      <point x="45" y="426"/>
      <point x="45" y="263" type="curve" smooth="yes"/>
      <point x="45" y="95"/>
      <point x="126" y="-10"/>
      <point x="275" y="-10" type="curve" smooth="yes"/>
      <point x="316" y="-10"/>
      <point x="352" y="-2"/>
      <point x="385" y="13" type="curve"/>
      <point x="385" y="-17" type="line" smooth="yes"/>
      <point x="385" y="-137"/>
      <point x="440" y="-185"/>
    </contour>
    <contour>
      <point x="303" y="116" type="curve" smooth="yes"/>
      <point x="232" y="116"/>
      <point x="197" y="164"/>
      <point x="197" y="259" type="curve" smooth="yes"/>
      <point x="197" y="351"/>
      <point x="239" y="411"/>
      <point x="320" y="411" type="curve" smooth="yes"/>
      <point x="347" y="411"/>
      <point x="370" y="409"/>
      <point x="385" y="406" type="curve"/>
      <point x="385" y="137" type="line"/>
      <point x="366" y="125"/>
      <point x="334" y="116"/>
    </contour>
  </outline>
</glyph>
<glyph name="ystroke" format="2">
  <advance width="563"/>
  <unicode hex="024F"/>
  <anchor x="282" y="0" name="bottom"/>
  <anchor x="282" y="526" name="top"/>
  <outline>
    <contour>
      <point x="126" y="-185" type="curve" smooth="yes"/>
      <point x="238" y="-185"/>
      <point x="288" y="-136"/>
      <point x="344" y="-17" type="curve" smooth="yes"/>
      <point x="387" y="75"/>
      <point x="425" y="169"/>
      <point x="461" y="270" type="curve"/>
      <point x="553" y="270" type="line"/>
      <point x="553" y="363" type="line"/>
      <point x="494" y="363" type="line"/>
      <point x="511" y="415"/>
      <point x="528" y="470"/>
      <point x="545" y="526" type="curve"/>
      <point x="393" y="526" type="line"/>
      <point x="381" y="481"/>
      <point x="367" y="423"/>
      <point x="351" y="363" type="curve"/>
      <point x="219" y="363" type="line"/>
      <point x="200" y="423"/>
      <point x="185" y="481"/>
      <point x="174" y="526" type="curve"/>
      <point x="18" y="526" type="line"/>
      <point x="35" y="469"/>
      <point x="52" y="414"/>
      <point x="71" y="363" type="curve"/>
      <point x="10" y="363" type="line"/>
      <point x="10" y="270" type="line"/>
      <point x="105" y="270" type="line"/>
      <point x="142" y="175"/>
      <point x="180" y="94"/>
      <point x="216" y="22" type="curve"/>
      <point x="196" y="-29"/>
      <point x="171" y="-59"/>
      <point x="118" y="-59" type="curve" smooth="yes"/>
      <point x="91" y="-59"/>
      <point x="70" y="-56"/>
      <point x="39" y="-45" type="curve"/>
      <point x="13" y="-164" type="line"/>
      <point x="38" y="-175"/>
      <point x="79" y="-185"/>
    </contour>
    <contour>
      <point x="288" y="150" type="curve"/>
      <point x="275" y="182"/>
      <point x="262" y="223"/>
      <point x="247" y="270" type="curve"/>
      <point x="326" y="270" type="line"/>
      <point x="313" y="223"/>
      <point x="300" y="182"/>
    </contour>
  </outline>
</glyph>
<glyph name="ring" format="2">
  <advance width="324"/>
  <unicode hex="02DA"/>
  <outline>
    <contour>
      <point x="161" y="584" type="curve" smooth="yes"/>
      <point x="225" y="584"/>
      <point x="280" y="624"/>
      <point x="280" y="699" type="curve" smooth="yes"/>
      <point x="280" y="774"/>
      <point x="225" y="814"/>
      <point x="161" y="814" type="curve" smooth="yes"/>
      <point x="100" y="814"/>
      <point x="44" y="774"/>
      <point x="44" y="699" type="curve" smooth="yes"/>
      <point x="44" y="624"/>
      <point x="100" y="584"/>
    </contour>
    <contour>
      <point x="161" y="652" type="curve" smooth="yes"/>
      <point x="138" y="652"/>
      <point x="116" y="668"/>
      <point x="116" y="699" type="curve" smooth="yes"/>
      <point x="116" y="730"/>
      <point x="138" y="746"/>
      <point x="161" y="746" type="curve" smooth="yes"/>
      <point x="185" y="746"/>
      <point x="207" y="730"/>
      <point x="207" y="699" type="curve" smooth="yes"/>
      <point x="207" y="668"/>
      <point x="185" y="652"/>
    </contour>
  </outline>
</glyph>
<glyph name="brevecomb" format="2">
  <unicode hex="0306"/>
  <anchor x="0" y="526" name="_top"/>
  <anchor x="0" y="764" name="top"/>
  <outline>
    <contour>
      <point x="0" y="598" type="curve" smooth="yes"/>
      <point x="92" y="598"/>
      <point x="162" y="657"/>
      <point x="162" y="764" type="curve"/>
      <point x="61" y="764" type="line"/>
      <point x="57" y="708"/>
      <point x="32" y="693"/>
      <point x="0" y="693" type="curve" smooth="yes"/>
      <point x="-32" y="693"/>
      <point x="-57" y="708"/>
      <point x="-61" y="764" type="curve"/>
      <point x="-162" y="764" type="line"/>
      <point x="-162" y="657"/>
      <point x="-92" y="598"/>
    </contour>
  </outline>
</glyph>
<glyph name="dieresiscomb" format="2">
  <unicode hex="0308"/>
  <anchor x="0" y="526" name="_top"/>
  <anchor x="0" y="754" name="top"/>
  <outline>
    <contour>
      <point x="111" y="602" type="curve" smooth="yes"/>
      <point x="152" y="602"/>
      <point x="188" y="631"/>
      <point x="188" y="678" type="curve" smooth="yes"/>
      <point x="188" y="725"/>
      <point x="152" y="754"/>
      <point x="111" y="754" type="curve" smooth="yes"/>
      <point x="70" y="754"/>
      <point x="34" y="725"/>
      <point x="34" y="678" type="curve" smooth="yes"/>
      <point x="34" y="631"/>
      <point x="70" y="602"/>
    </contour>
    <contour>
      <point x="-111" y="602" type="curve" smooth="yes"/>
      <point x="-70" y="602"/>
      <point x="-34" y="631"/>
      <point x="-34" y="678" type="curve" smooth="yes"/>
      <point x="-34" y="725"/>
      <point x="-70" y="754"/>
      <point x="-111" y="754" type="curve" smooth="yes"/>
      <point x="-152" y="754"/>
      <point x="-188" y="725"/>
      <point x="-188" y="678" type="curve" smooth="yes"/>
      <point x="-188" y="631"/>
      <point x="-152" y="602"/>
    </contour>
  </outline>
</glyph>
<glyph name="hungarumlautcomb" format="2">
  <unicode hex="030B"/>
  <anchor x="0" y="526" name="_top"/>
  <anchor x="0" y="799" name="top"/>
  <outline>
    <contour>
      <point x="98" y="577" type="line"/>
      <point x="238" y="729" type="line"/>
      <point x="151" y="799" type="line"/>
      <point x="31" y="628" type="line"/>
    </contour>
    <contour>
      <point x="-104" y="577" type="line"/>
      <point x="36" y="729" type="line"/>
      <point x="-51" y="799" type="line"/>
      <point x="-171" y="628" type="line"/>
    </contour>
  </outline>
</glyph>
<glyph name="caroncomb" format="2">
  <unicode hex="030C"/>
  <anchor x="0" y="526" name="_top"/>
  <anchor x="0" y="789" name="top"/>
  <outline>
    <contour>
      <point x="0" y="586" type="line"/>
      <point x="156" y="723" type="line"/>
      <point x="99" y="789" type="line"/>
      <point x="0" y="712" type="line"/>
      <point x="-101" y="789" type="line"/>
      <point x="-156" y="723" type="line"/>
    </contour>
  </outline>
</glyph>
<glyph name="breveinvertedcomb" format="2">
  <unicode hex="0311"/>
  <anchor x="0" y="526" name="_top"/>
  <anchor x="0" y="756" name="top"/>
  <outline>
    <contour>
      <point x="-162" y="590" type="curve"/>
      <point x="-61" y="590" type="line"/>
      <point x="-57" y="646"/>
      <point x="-32" y="661"/>
      <point x="0" y="661" type="curve" smooth="yes"/>
      <point x="32" y="661"/>
      <point x="57" y="646"/>
      <point x="61" y="590" type="curve"/>
      <point x="162" y="590" type="line"/>
      <point x="162" y="697"/>
      <point x="92" y="756"/>
      <point x="0" y="756" type="curve" smooth="yes"/>
      <point x="-92" y="756"/>
      <point x="-162" y="697"/>
    </contour>
  </outline>
</glyph>
<glyph name="commaaccentcomb" format="2">
  <unicode hex="0326"/>
  <anchor x="0" y="0" name="_bottom"/>
  <anchor x="0" y="-220" name="bottom"/>
  <outline>
    <contour>
      <point x="-48" y="-220" type="curve" smooth="yes"/>
      <point x="24" y="-220"/>
      <point x="94" y="-189"/>
      <point x="94" y="-89" type="curve" smooth="yes"/>
      <point x="94" y="-84"/>
      <point x="94" y="-67"/>
      <point x="91" y="-52" type="curve"/>
      <point x="-27" y="-52" type="line"/>
      <point x="-27" y="-57"/>
      <point x="-27" y="-61"/>
      <point x="-27" y="-66" type="curve"/>
      <point x="-27" y="-124"/>
      <point x="-58" y="-130"/>
      <point x="-99" y="-130" type="curve"/>
      <point x="-99" y="-214" type="line"/>
      <point x="-91" y="-217"/>
      <point x="-68" y="-220"/>
    </contour>
  </outline>
</glyph>
<glyph name="strokeshortcomb" format="2">
  <unicode hex="0335"/>
  <anchor x="177" y="281" name="_center"/>
  <outline>
    <contour>
      <point x="25" y="234" type="line"/>
      <point x="329" y="234" type="line"/>
      <point x="329" y="327" type="line"/>
      <point x="25" y="327" type="line"/>
    </contour>
  </outline>
</glyph>
<glyph name="Xi" format="2">
  <advance width="558"/>
  <unicode hex="039E"/>
  <outline>
    <contour>
      <point x="35" y="0" type="line"/>
      <point x="523" y="0" type="line"/>
      <point x="523" y="133" type="line"/>
      <point x="35" y="133" type="line"/>
    </contour>
    <contour>
      <point x="78" y="297" type="line"/>
      <point x="480" y="297" type="line"/>
      <point x="480" y="427" type="line"/>
      <point x="78" y="427" type="line"/>
    </contour>
    <contour>
      <point x="35" y="560" type="line"/>
      <point x="523" y="560" type="line"/>
      <point x="523" y="693" type="line"/>
      <point x="35" y="693" type="line"/>
    </contour>
  </outline>
</glyph>
<glyph name="delta" format="2">
  <advance width="607"/>
  <unicode hex="03B4"/>
  <outline>
    <contour>
      <point x="304" y="-14" type="curve" smooth="yes"/>
      <point x="461" y="-14"/>
      <point x="562" y="88"/>
      <point x="562" y="253" type="curve" smooth="yes"/>
      <point x="562" y="369"/>
      <point x="503" y="432"/>
      <point x="418" y="493" type="curve"/>
      <point x="357" y="535"/>
      <point x="274" y="572"/>
      <point x="274" y="615" type="curve" smooth="yes"/>
      <point x="274" y="646"/>
      <point x="292" y="659"/>
      <point x="336" y="659" type="curve" smooth="yes"/>
      <point x="399" y="659"/>
      <point x="437" y="644"/>
      <point x="477" y="627" type="curve"/>
      <point x="509" y="740" type="line"/>
      <point x="454" y="762"/>
      <point x="411" y="776"/>
      <point x="327" y="776" type="curve" smooth="yes"/>
      <point x="191" y="776"/>
      <point x="125" y="704"/>
      <point x="125" y="617" type="curve" smooth="yes"/>
      <point x="125" y="557"/>
      <point x="153" y="516"/>
      <point x="196" y="481" type="curve"/>
      <point x="103" y="433"/>
      <point x="45" y="348"/>
      <point x="45" y="244" type="curve" smooth="yes"/>
      <point x="45" y="81"/>
      <point x="150" y="-14"/>
    </contour>
    <contour>
      <point x="304" y="114" type="curve" smooth="yes"/>
      <point x="236" y="114"/>
      <point x="197" y="163"/>
      <point x="197" y="255" type="curve" smooth="yes"/>
      <point x="197" y="326"/>
      <point x="230" y="389"/>
      <point x="298" y="417" type="curve"/>
      <point x="373" y="374"/>
      <point x="410" y="320"/>
      <point x="410" y="255" type="curve" smooth="yes"/>
      <point x="410" y="163"/>
      <point x="372" y="114"/>
    </contour>
  </outline>
</glyph>
<glyph name="epsilon" format="2">
  <advance width="515"/>
  <unicode hex="03B5"/>
  <anchor x="268" y="526" name="top"/>
  <outline>
    <contour>
      <point x="273" y="-14" type="curve" smooth="yes"/>
      <point x="381" y="-14"/>
      <point x="459" y="7"/>
      <point x="490" y="22" type="curve"/>
      <point x="458" y="134" type="line"/>
      <point x="430" y="123"/>
      <point x="363" y="106"/>
      <point x="291" y="106" type="curve" smooth="yes"/>
      <point x="224" y="106"/>
      <point x="195" y="122"/>
      <point x="195" y="161" type="curve" smooth="yes"/>
      <point x="195" y="208"/>
      <point x="235" y="215"/>
      <point x="278" y="215" type="curve" smooth="yes"/>
      <point x="381" y="215" type="line"/>
      <point x="381" y="324" type="line"/>
      <point x="280" y="324" type="line" smooth="yes"/>
      <point x="250" y="324"/>
      <point x="210" y="329"/>
      <point x="210" y="374" type="curve" smooth="yes"/>
      <point x="210" y="409"/>
      <point x="248" y="423"/>
      <point x="299" y="423" type="curve" smooth="yes"/>
      <point x="338" y="423"/>
      <point x="391" y="418"/>
      <point x="436" y="399" type="curve"/>
      <point x="460" y="510" type="line"/>
      <point x="431" y="523"/>
      <point x="355" y="540"/>
      <point x="290" y="540" type="curve" smooth="yes"/>
      <point x="151" y="540"/>
      <point x="54" y="484"/>
      <point x="54" y="377" type="curve" smooth="yes"/>
      <point x="54" y="333"/>
      <point x="75" y="298"/>
      <point x="114" y="275" type="curve"/>
      <point x="59" y="246"/>
      <point x="37" y="200"/>
      <point x="37" y="153" type="curve" smooth="yes"/>
      <point x="37" y="14"/>
      <point x="173" y="-14"/>
    </contour>
  </outline>
</glyph>
<glyph name="theta" format="2">
  <advance width="615"/>
  <unicode hex="03B8"/>
  <outline>
    <contour>
      <point x="308" y="-14" type="curve" smooth="yes"/>
      <point x="469" y="-14"/>
      <point x="567" y="115"/>
      <point x="567" y="382" type="curve" smooth="yes"/>
      <point x="567" y="647"/>
      <point x="469" y="776"/>
      <point x="308" y="776" type="curve" smooth="yes"/>
      <point x="147" y="776"/>
      <point x="48" y="647"/>
      <point x="48" y="382" type="curve" smooth="yes"/>
      <point x="48" y="115"/>
      <point x="147" y="-14"/>
    </contour>
    <contour>
      <point x="308" y="114" type="curve" smooth="yes"/>
      <point x="236" y="114"/>
      <point x="200" y="191"/>
      <point x="197" y="320" type="curve"/>
      <point x="417" y="320" type="line"/>
      <point x="414" y="191"/>
      <point x="380" y="114"/>
    </contour>
    <contour>
      <point x="197" y="444" type="line"/>
      <point x="200" y="573"/>
      <point x="236" y="648"/>
      <point x="308" y="648" type="curve" smooth="yes"/>
      <point x="380" y="648"/>
      <point x="414" y="573"/>
      <point x="417" y="444" type="curve"/>
    </contour>
  </outline>
</glyph>
<glyph name="iota" format="2">
  <advance width="309"/>
  <unicode hex="03B9"/>
  <anchor x="155" y="526" name="top"/>
  <outline>
    <contour>
      <point x="271" y="-11" type="curve"/>
      <point x="289" y="103" type="line"/>
      <point x="229" y="107"/>
      <point x="217" y="130"/>
      <point x="217" y="177" type="curve" smooth="yes"/>
      <point x="217" y="526" type="line"/>
      <point x="68" y="526" type="line"/>
      <point x="68" y="161" type="line" smooth="yes"/>
      <point x="68" y="58"/>
      <point x="111" y="-11"/>
    </contour>
  </outline>
</glyph>
<glyph name="lambda" format="2">
  <advance width="547"/>
  <unicode hex="03BB"/>
  <outline>
    <contour>
      <point x="11" y="0" type="curve"/>
      <point x="164" y="0" type="line"/>
      <point x="191" y="104"/>
      <point x="242" y="273"/>
      <point x="279" y="368" type="curve"/>
      <point x="313" y="273"/>
      <point x="358" y="104"/>
      <point x="385" y="0" type="curve"/>
      <point x="544" y="0" type="line"/>
      <point x="504" y="148"/>
      <point x="414" y="441"/>
      <point x="321" y="639" type="curve" smooth="yes"/>
      <point x="273" y="741"/>
      <point x="217" y="776"/>
      <point x="125" y="776" type="curve" smooth="yes"/>
      <point x="78" y="776"/>
      <point x="44" y="767"/>
      <point x="19" y="759" type="curve"/>
      <point x="45" y="639" type="line"/>
      <point x="66" y="647"/>
      <point x="83" y="649"/>
      <point x="100" y="649" type="curve" smooth="yes"/>
      <point x="156" y="649"/>
      <point x="176" y="614"/>
      <point x="203" y="547" type="curve" smooth="yes"/>
      <point x="206" y="539"/>
      <point x="209" y="531"/>
      <point x="212" y="523" type="curve"/>
      <point x="145" y="391"/>
      <point x="71" y="205"/>
    </contour>
  </outline>
</glyph>
<glyph name="tau" format="2">
  <advance width="483"/>
  <unicode hex="03C4"/>
  <outline>
    <contour>
      <point x="326" y="-12" type="curve" smooth="yes"/>
      <point x="371" y="-12"/>
      <point x="404" y="-6"/>
      <point x="436" y="3" type="curve"/>
      <point x="423" y="121" type="line"/>
      <point x="398" y="116"/>
      <point x="380" y="114"/>
      <point x="355" y="114" type="curve" smooth="yes"/>
      <point x="306" y="114"/>
      <point x="294" y="137"/>
      <point x="294" y="200" type="curve" smooth="yes"/>
      <point x="294" y="402" type="line"/>
      <point x="453" y="402" type="line"/>
      <point x="453" y="526" type="line"/>
      <point x="10" y="526" type="line"/>
      <point x="10" y="402" type="line"/>
      <point x="145" y="402" type="line"/>
      <point x="145" y="212" type="line" smooth="yes"/>
      <point x="145" y="76"/>
      <point x="175" y="-12"/>
    </contour>
  </outline>
</glyph>
<glyph name="chi" format="2">
  <advance width="540"/>
  <unicode hex="03C7"/>
  <outline>
    <contour>
      <point x="3" y="-184" type="curve"/>
      <point x="155" y="-184" type="line"/>
      <point x="188" y="-108"/>
      <point x="217" y="-35"/>
      <point x="264" y="67" type="curve"/>
      <point x="313" y="-30"/>
      <point x="349" y="-110"/>
      <point x="377" y="-184" type="curve"/>
      <point x="537" y="-184" type="line"/>
      <point x="487" y="-68"/>
      <point x="435" y="30"/>
      <point x="348" y="177" type="curve"/>
      <point x="530" y="526" type="line"/>
      <point x="376" y="526" type="line"/>
      <point x="274" y="291" type="line"/>
      <point x="168" y="526" type="line"/>
      <point x="7" y="526" type="line"/>
      <point x="190" y="181" type="line"/>
      <point x="108" y="34"/>
      <point x="42" y="-90"/>
    </contour>
  </outline>
</glyph>
<glyph name="omega" format="2">
  <advance width="842"/>
  <unicode hex="03C9"/>
  <anchor x="423" y="0" name="bottom"/>
  <anchor x="421" y="526" name="top"/>
  <outline>
    <contour>
      <point x="265" y="-10" type="curve" smooth="yes"/>
      <point x="345" y="-10"/>
      <point x="388" y="27"/>
      <point x="421" y="79" type="curve"/>
      <point x="454" y="27"/>
      <point x="497" y="-10"/>
      <point x="577" y="-10" type="curve" smooth="yes"/>
      <point x="704" y="-10"/>
      <point x="794" y="60"/>
      <point x="794" y="252" type="curve" smooth="yes"/>
      <point x="794" y="353"/>
      <point x="759" y="459"/>
      <point x="684" y="540" type="curve"/>
      <point x="562" y="498" type="line"/>
      <point x="622" y="417"/>
      <point x="644" y="340"/>
      <point x="644" y="259" type="curve" smooth="yes"/>
      <point x="644" y="167"/>
      <point x="623" y="114"/>
      <point x="567" y="114" type="curve" smooth="yes"/>
      <point x="507" y="114"/>
      <point x="495" y="167"/>
      <point x="495" y="248" type="curve" smooth="yes"/>
      <point x="495" y="420" type="line"/>
      <point x="347" y="420" type="line"/>
      <point x="347" y="248" type="line" smooth="yes"/>
      <point x="347" y="167"/>
      <point x="335" y="114"/>
      <point x="275" y="114" type="curve" smooth="yes"/>
      <point x="219" y="114"/>
      <point x="198" y="167"/>
      <point x="198" y="259" type="curve" smooth="yes"/>
      <point x="198" y="340"/>
      <point x="220" y="417"/>
      <point x="280" y="498" type="curve"/>
      <point x="158" y="540" type="line"/>
      <point x="83" y="459"/>
      <point x="48" y="353"/>
      <point x="48" y="252" type="curve" smooth="yes"/>
      <point x="48" y="60"/>
      <point x="138" y="-10"/>
    </contour>
  </outline>
</glyph>
<glyph name="Dje-cy" format="2">
  <advance width="814"/>
  <unicode hex="0402"/>
  <outline>
    <contour>
      <point x="534" y="-7" type="curve" smooth="yes"/>
      <point x="664" y="-7"/>
      <point x="769" y="58"/>
      <point x="769" y="207" type="curve" smooth="yes"/>
      <point x="769" y="351"/>
      <point x="687" y="437"/>
      <point x="471" y="437" type="curve" smooth="yes"/>
      <point x="444" y="437"/>
      <point x="393" y="432"/>
      <point x="365" y="429" type="curve"/>
      <point x="365" y="560" type="line"/>
      <point x="594" y="560" type="line"/>
      <point x="594" y="693" type="line"/>
      <point x="20" y="693" type="line"/>
      <point x="20" y="560" type="line"/>
      <point x="209" y="560" type="line"/>
      <point x="209" y="0" type="line"/>
      <point x="365" y="0" type="line"/>
      <point x="365" y="301" type="line"/>
      <point x="389" y="304"/>
      <point x="435" y="307"/>
      <point x="462" y="307" type="curve" smooth="yes"/>
      <point x="575" y="307"/>
      <point x="621" y="277"/>
      <point x="621" y="205" type="curve" smooth="yes"/>
      <point x="621" y="132"/>
      <point x="578" y="112"/>
      <point x="510" y="112" type="curve" smooth="yes"/>
      <point x="492" y="112"/>
      <point x="477" y="113"/>
      <point x="464" y="115" type="curve"/>
      <point x="459" y="-1" type="line"/>
      <point x="482" y="-5"/>
      <point x="513" y="-7"/>
    </contour>
  </outline>
</glyph>
<glyph name="E-cy" format="2">
  <advance width="686"/>
  <unicode hex="0404"/>
  <outline>
    <contour>
      <point x="400" y="-14" type="curve" smooth="yes"/>
      <point x="492" y="-14"/>
      <point x="565" y="6"/>
      <point x="641" y="45" type="curve"/>
      <point x="591" y="170" type="line"/>
      <point x="553" y="154"/>
      <point x="490" y="122"/>
      <point x="403" y="122" type="curve" smooth="yes"/>
      <point x="296" y="122"/>
      <point x="231" y="178"/>
      <point x="215" y="286" type="curve"/>
      <point x="505" y="286" type="line"/>
      <point x="505" y="418" type="line"/>
      <point x="218" y="418" type="line"/>
      <point x="234" y="525"/>
      <point x="296" y="574"/>
      <point x="403" y="574" type="curve" smooth="yes"/>
      <point x="482" y="574"/>
      <point x="551" y="550"/>
      <point x="588" y="531" type="curve"/>
      <point x="634" y="653" type="line"/>
      <point x="558" y="693"/>
      <point x="476" y="710"/>
      <point x="397" y="710" type="curve" smooth="yes"/>
      <point x="203" y="710"/>
      <point x="50" y="595"/>
      <point x="50" y="347" type="curve" smooth="yes"/>
      <point x="50" y="92"/>
      <point x="207" y="-14"/>
    </contour>
  </outline>
</glyph>
<glyph name="Nje-cy" format="2">
  <advance width="1075"/>
  <unicode hex="040A"/>
  <outline>
    <contour>
      <point x="708" y="-7" type="curve" smooth="yes"/>
      <point x="915" y="-7"/>
      <point x="1030" y="68"/>
      <point x="1030" y="221" type="curve" smooth="yes"/>
      <point x="1030" y="386"/>
      <point x="910" y="447"/>
      <point x="705" y="447" type="curve" smooth="yes"/>
      <point x="688" y="447"/>
      <point x="671" y="447"/>
      <point x="654" y="447" type="curve"/>
      <point x="654" y="693" type="line"/>
      <point x="498" y="693" type="line"/>
      <point x="498" y="428" type="line"/>
      <point x="236" y="428" type="line"/>
      <point x="236" y="693" type="line"/>
      <point x="80" y="693" type="line"/>
      <point x="80" y="0" type="line"/>
      <point x="236" y="0" type="line"/>
      <point x="236" y="294" type="line"/>
      <point x="498" y="294" type="line"/>
      <point x="498" y="16" type="line"/>
      <point x="570" y="-1"/>
      <point x="653" y="-7"/>
    </contour>
    <contour>
      <point x="716" y="126" type="curve" smooth="yes"/>
      <point x="689" y="126"/>
      <point x="669" y="127"/>
      <point x="654" y="128" type="curve"/>
      <point x="654" y="318" type="line"/>
      <point x="669" y="318"/>
      <point x="685" y="318"/>
      <point x="700" y="318" type="curve" smooth="yes"/>
      <point x="807" y="318"/>
      <point x="872" y="300"/>
      <point x="872" y="220" type="curve" smooth="yes"/>
      <point x="872" y="144"/>
      <point x="798" y="126"/>
    </contour>
  </outline>
</glyph>
<glyph name="Ii-cy" format="2">
  <advance width="756"/>
  <unicode hex="0418"/>
  <anchor x="736" y="0" name="bottomright"/>
  <anchor x="391" y="685" name="top"/>
  <outline>
    <contour>
      <point x="80" y="0" type="line"/>
      <point x="211" y="0" type="line"/>
      <point x="300" y="159"/>
      <point x="405" y="317"/>
      <point x="522" y="454" type="curve"/>
      <point x="522" y="0" type="line"/>
      <point x="676" y="0" type="line"/>
      <point x="676" y="693" type="line"/>
      <point x="549" y="693" type="line"/>
      <point x="460" y="604"/>
      <point x="331" y="429"/>
      <point x="235" y="284" type="curve"/>
      <point x="235" y="693" type="line"/>
      <point x="80" y="693" type="line"/>
    </contour>
  </outline>
</glyph>
<glyph name="El-cy" format="2">
  <advance width="789"/>
  <unicode hex="041B"/>
  <outline>
    <contour>
      <point x="37" y="-14" type="line"/>
      <point x="196" y="-8"/>
      <point x="279" y="66"/>
      <point x="324" y="172" type="curve" smooth="yes"/>
      <point x="371" y="282"/>
      <point x="377" y="425"/>
      <point x="383" y="561" type="curve"/>
      <point x="553" y="561" type="line"/>
      <point x="553" y="0" type="line"/>
      <point x="709" y="0" type="line"/>
      <point x="709" y="693" type="line"/>
      <point x="236" y="693" type="line"/>
      <point x="236" y="504"/>
      <point x="223" y="343"/>
      <point x="190" y="246" type="curve" smooth="yes"/>
      <point x="163" y="167"/>
      <point x="116" y="133"/>
      <point x="20" y="122" type="curve"/>
    </contour>
  </outline>
</glyph>
<glyph name="Shcha-cy" format="2">
  <advance width="1080"/>
  <unicode hex="0429"/>
  <outline>
    <contour>
      <point x="910" y="-185" type="line"/>
      <point x="1060" y="-185" type="line"/>
      <point x="1060" y="132" type="line"/>
      <point x="940" y="132" type="line"/>
      <point x="940" y="693" type="line"/>
      <point x="784" y="693" type="line"/>
      <point x="784" y="132" type="line"/>
      <point x="588" y="132" type="line"/>
      <point x="588" y="693" type="line"/>
      <point x="432" y="693" type="line"/>
      <point x="432" y="132" type="line"/>
      <point x="236" y="132" type="line"/>
      <point x="236" y="693" type="line"/>
      <point x="80" y="693" type="line"/>
      <point x="80" y="0" type="line"/>
      <point x="910" y="0" type="line"/>
    </contour>
  </outline>
</glyph>
<glyph name="de-cy" format="2">
  <advance width="678"/>
  <unicode hex="0434"/>
  <outline>
    <contour>
      <point x="20" y="-150" type="line"/>
      <point x="147" y="-150" type="line"/>
      <point x="147" y="0" type="line"/>
      <point x="531" y="0" type="line"/>
      <point x="531" y="-150" type="line"/>
      <point x="658" y="-150" type="line"/>
      <point x="658" y="122" type="line"/>
      <point x="569" y="122" type="line"/>
      <point x="569" y="526" type="line"/>
      <point x="159" y="526" type="line"/>
      <point x="159" y="407"/>
      <point x="160" y="213"/>
      <point x="85" y="122" type="curve"/>
      <point x="20" y="122" type="line"/>
    </contour>
    <contour>
      <point x="238" y="122" type="line"/>
      <point x="287" y="201"/>
      <point x="293" y="311"/>
      <point x="298" y="404" type="curve"/>
      <point x="420" y="404" type="line"/>
      <point x="420" y="122" type="line"/>
    </contour>
  </outline>
</glyph>
<glyph name="ka-cy" format="2">
  <advance width="586"/>
  <unicode hex="043A"/>
  <anchor x="566" y="0" name="bottomright"/>
  <anchor x="322" y="526" name="top"/>
  <outline>
    <contour>
      <point x="70" y="0" type="line"/>
      <point x="219" y="0" type="line"/>
      <point x="219" y="211" type="line"/>
      <point x="278" y="163"/>
      <point x="358" y="72"/>
      <point x="406" y="0" type="curve"/>
      <point x="576" y="0" type="line"/>
      <point x="520" y="93"/>
      <point x="413" y="223"/>
      <point x="333" y="284" type="curve"/>
      <point x="412" y="352"/>
      <point x="521" y="469"/>
      <point x="575" y="526" type="curve"/>
      <point x="394" y="526" type="line"/>
      <point x="351" y="478"/>
      <point x="279" y="399"/>
      <point x="219" y="342" type="curve"/>
      <point x="219" y="526" type="line"/>
      <point x="70" y="526" type="line"/>
    </contour>
  </outline>
</glyph>
<glyph name="che-cy" format="2">
  <advance width="568"/>
  <unicode hex="0447"/>
  <anchor x="548" y="0" name="bottomright"/>
  <anchor x="273" y="526" name="top"/>
  <outline>
    <contour>
      <point x="349" y="0" type="line"/>
      <point x="498" y="0" type="line"/>
      <point x="498" y="526" type="line"/>
      <point x="349" y="526" type="line"/>
      <point x="349" y="293" type="line"/>
      <point x="329" y="290"/>
      <point x="299" y="288"/>
      <point x="287" y="288" type="curve" smooth="yes"/>
      <point x="228" y="288"/>
      <point x="194" y="305"/>
      <point x="194" y="356" type="curve" smooth="yes"/>
      <point x="194" y="526" type="line"/>
      <point x="45" y="526" type="line"/>
      <point x="45" y="355" type="line" smooth="yes"/>
      <point x="45" y="211"/>
      <point x="134" y="166"/>
      <point x="270" y="166" type="curve" smooth="yes"/>
      <point x="286" y="166"/>
      <point x="322" y="169"/>
      <point x="349" y="173" type="curve"/>
    </contour>
  </outline>
</glyph>
<glyph name="ereversed-cy" format="2">
  <advance width="521"/>
  <unicode hex="044D"/>
  <anchor x="246" y="526" name="top"/>
  <outline>
    <contour>
      <point x="216" y="-12" type="curve" smooth="yes"/>
      <point x="375" y="-12"/>
      <point x="486" y="87"/>
      <point x="486" y="266" type="curve" smooth="yes"/>
      <point x="486" y="438"/>
      <point x="375" y="540"/>
      <point x="213" y="540" type="curve" smooth="yes"/>
      <point x="161" y="540"/>
      <point x="105" y="531"/>
      <point x="45" y="510" type="curve"/>
      <point x="73" y="395" type="line"/>
      <point x="117" y="408"/>
      <point x="154" y="418"/>
      <point x="205" y="418" type="curve" smooth="yes"/>
      <point x="273" y="418"/>
      <point x="324" y="395"/>
      <point x="335" y="320" type="curve"/>
      <point x="136" y="320" type="line"/>
      <point x="136" y="213" type="line"/>
      <point x="336" y="213" type="line"/>
      <point x="325" y="137"/>
      <point x="266" y="112"/>
      <point x="199" y="112" type="curve" smooth="yes"/>
      <point x="152" y="112"/>
      <point x="96" y="125"/>
      <point x="57" y="138" type="curve"/>
      <point x="29" y="21" type="line"/>
      <point x="96" y="-4"/>
      <point x="149" y="-12"/>
    </contour>
  </outline>
</glyph>
<glyph name="yat-cy" format="2">
  <advance width="636"/>
  <unicode hex="0463"/>
  <outline>
    <contour>
      <point x="365" y="-11" type="curve" smooth="yes"/>
      <point x="501" y="-11"/>
      <point x="591" y="43"/>
      <point x="591" y="166" type="curve" smooth="yes"/>
      <point x="591" y="290"/>
      <point x="484" y="338"/>
      <point x="369" y="338" type="curve" smooth="yes"/>
      <point x="330" y="338"/>
      <point x="300" y="334"/>
      <point x="281" y="329" type="curve"/>
      <point x="281" y="423" type="line"/>
      <point x="473" y="423" type="line"/>
      <point x="473" y="526" type="line"/>
      <point x="281" y="526" type="line"/>
      <point x="281" y="777" type="line"/>
      <point x="132" y="752" type="line"/>
      <point x="132" y="526" type="line"/>
      <point x="10" y="526" type="line"/>
      <point x="10" y="423" type="line"/>
      <point x="132" y="423" type="line"/>
      <point x="132" y="16" type="line"/>
      <point x="208" y="-3"/>
      <point x="277" y="-11"/>
    </contour>
    <contour>
      <point x="355" y="104" type="curve" smooth="yes"/>
      <point x="326" y="104"/>
      <point x="297" y="105"/>
      <point x="281" y="108" type="curve"/>
      <point x="281" y="228" type="line"/>
      <point x="293" y="231"/>
      <point x="321" y="234"/>
      <point x="341" y="234" type="curve" smooth="yes"/>
      <point x="397" y="234"/>
      <point x="443" y="219"/>
      <point x="443" y="170" type="curve" smooth="yes"/>
      <point x="443" y="123"/>
      <point x="410" y="104"/>
    </contour>
  </outline>
</glyph>
<glyph name="gestroke-cy" format="2">
  <advance width="525"/>
  <unicode hex="0493"/>
  <outline>
    <contour>
      <point x="132" y="0" type="line"/>
      <point x="281" y="0" type="line"/>
      <point x="281" y="182" type="line"/>
      <point x="414" y="182" type="line"/>
      <point x="414" y="275" type="line"/>
      <point x="281" y="275" type="line"/>
      <point x="281" y="404" type="line"/>
      <point x="505" y="404" type="line"/>
      <point x="505" y="526" type="line"/>
      <point x="132" y="526" type="line"/>
      <point x="132" y="275" type="line"/>
      <point x="50" y="275" type="line"/>
      <point x="50" y="182" type="line"/>
      <point x="132" y="182" type="line"/>
    </contour>
  </outline>
</glyph>
<glyph name="Zedescender-cy" format="2">
  <advance width="610"/>
  <unicode hex="0498"/>
  <outline>
    <contour>
      <point x="249" y="-221" type="curve" smooth="yes"/>
      <point x="332" y="-221"/>
      <point x="387" y="-187"/>
      <point x="387" y="-123" type="curve" smooth="yes"/>
      <point x="387" y="-92"/>
      <point x="374" y="-61"/>
      <point x="331" y="-40" type="curve"/>
      <point x="334" y="-31"/>
      <point x="339" y="-21"/>
      <point x="345" y="-10" type="curve"/>
      <point x="486" y="6"/>
      <point x="565" y="70"/>
      <point x="565" y="198" type="curve" smooth="yes"/>
      <point x="565" y="286"/>
      <point x="513" y="338"/>
      <point x="452" y="370" type="curve"/>
      <point x="508" y="405"/>
      <point x="535" y="458"/>
      <point x="535" y="509" type="curve" smooth="yes"/>
      <point x="535" y="642"/>
      <point x="424" y="708"/>
      <point x="274" y="708" type="curve" smooth="yes"/>
      <point x="178" y="708"/>
      <point x="102" y="685"/>
      <point x="49" y="652" type="curve"/>
      <point x="99" y="529" type="line"/>
      <point x="148" y="557"/>
      <point x="200" y="575"/>
      <point x="273" y="575" type="curve" smooth="yes"/>
      <point x="338" y="575"/>
      <point x="376" y="552"/>
      <point x="376" y="507" type="curve" smooth="yes"/>
      <point x="376" y="443"/>
      <point x="319" y="423"/>
      <point x="247" y="423" type="curve" smooth="yes"/>
      <point x="142" y="423" type="line"/>
      <point x="142" y="295" type="line"/>
      <point x="236" y="295" type="line" smooth="yes"/>
      <point x="331" y="295"/>
      <point x="404" y="281"/>
      <point x="404" y="204" type="curve" smooth="yes"/>
      <point x="404" y="141"/>
      <point x="345" y="119"/>
      <point x="257" y="119" type="curve" smooth="yes"/>
      <point x="186" y="119"/>
      <point x="107" y="149"/>
      <point x="71" y="164" type="curve"/>
      <point x="25" y="42" type="line"/>
      <point x="76" y="15"/>
      <point x="159" y="-9"/>
      <point x="244" y="-13" type="curve"/>
      <point x="235" y="-32"/>
      <point x="227" y="-52"/>
      <point x="222" y="-67" type="curve"/>
      <point x="265" y="-77"/>
      <point x="278" y="-91"/>
      <point x="277" y="-107" type="curve" smooth="yes"/>
      <point x="276" y="-126"/>
      <point x="260" y="-132"/>
      <point x="241" y="-132" type="curve" smooth="yes"/>
      <point x="217" y="-132"/>
      <point x="188" y="-124"/>
      <point x="179" y="-121" type="curve"/>
      <point x="161" y="-208" type="line"/>
      <point x="190" y="-216"/>
      <point x="220" y="-221"/>
    </contour>
  </outline>
</glyph>
<glyph name="Kaverticalstroke-cy" format="2">
  <advance width="784"/>
  <unicode hex="049C"/>
  <outline>
    <contour>
      <point x="80" y="0" type="line"/>
      <point x="236" y="0" type="line"/>
      <point x="236" y="306" type="line"/>
      <point x="284" y="306" type="line"/>
      <point x="284" y="159" type="line"/>
      <point x="381" y="159" type="line"/>
      <point x="381" y="302" type="line"/>
      <point x="453" y="233"/>
      <point x="543" y="92"/>
      <point x="589" y="0" type="curve"/>
      <point x="774" y="0" type="line"/>
      <point x="695" y="159"/>
      <point x="613" y="279"/>
      <point x="505" y="374" type="curve"/>
      <point x="612" y="484"/>
      <point x="680" y="562"/>
      <point x="768" y="693" type="curve"/>
      <point x="583" y="693" type="line"/>
      <point x="514" y="587"/>
      <point x="461" y="515"/>
      <point x="381" y="425" type="curve"/>
      <point x="381" y="567" type="line"/>
      <point x="284" y="567" type="line"/>
      <point x="284" y="418" type="line"/>
      <point x="236" y="418" type="line"/>
      <point x="236" y="693" type="line"/>
      <point x="80" y="693" type="line"/>
    </contour>
  </outline>
</glyph>
<glyph name="Kastroke-cy" format="2">
  <advance width="708"/>
  <unicode hex="049E"/>
  <outline>
    <contour>
      <point x="90" y="0" type="line"/>
      <point x="246" y="0" type="line"/>
      <point x="246" y="273" type="line"/>
      <point x="342" y="198"/>
      <point x="443" y="91"/>
      <point x="499" y="0" type="curve"/>
      <point x="684" y="0" type="line"/>
      <point x="589" y="153"/>
      <point x="486" y="262"/>
      <point x="375" y="354" type="curve"/>
      <point x="506" y="466"/>
      <point x="594" y="562"/>
      <point x="698" y="693" type="curve"/>
      <point x="513" y="693" type="line"/>
      <point x="444" y="608"/>
      <point x="334" y="496"/>
      <point x="246" y="411" type="curve"/>
      <point x="246" y="558" type="line"/>
      <point x="332" y="558" type="line"/>
      <point x="332" y="658" type="line"/>
      <point x="246" y="658" type="line"/>
      <point x="246" y="738" type="line"/>
      <point x="90" y="738" type="line"/>
      <point x="90" y="658" type="line"/>
      <point x="9" y="658" type="line"/>
      <point x="9" y="558" type="line"/>
      <point x="90" y="558" type="line"/>
    </contour>
  </outline>
</glyph>
<glyph name="EnGe-cy" format="2">
  <advance width="837"/>
  <unicode hex="04A4"/>
  <outline>
    <contour>
      <point x="80" y="0" type="line"/>
      <point x="236" y="0" type="line"/>
      <point x="236" y="294" type="line"/>
      <point x="498" y="294" type="line"/>
      <point x="498" y="0" type="line"/>
      <point x="654" y="0" type="line"/>
      <point x="654" y="561" type="line"/>
      <point x="827" y="561" type="line"/>
      <point x="827" y="693" type="line"/>
      <point x="498" y="693" type="line"/>
      <point x="498" y="428" type="line"/>
      <point x="236" y="428" type="line"/>
      <point x="236" y="693" type="line"/>
      <point x="80" y="693" type="line"/>
    </contour>
  </outline>
</glyph>
<glyph name="haabkhasian-cy" format="2">
  <advance width="636"/>
  <unicode hex="04A9"/>
  <outline>
    <contour>
      <point x="610" y="-5" type="curve"/>
      <point x="617" y="97" type="line"/>
      <point x="599" y="91"/>
      <point x="576" y="87"/>
      <point x="553" y="86" type="curve" smooth="yes"/>
      <point x="553" y="86"/>
      <point x="553" y="86"/>
      <point x="553" y="86" type="curve"/>
      <point x="585" y="126"/>
      <point x="594" y="177"/>
      <point x="594" y="212" type="curve" smooth="yes"/>
      <point x="594" y="301"/>
      <point x="543" y="367"/>
      <point x="432" y="367" type="curve" smooth="yes"/>
      <point x="320" y="367"/>
      <point x="261" y="289"/>
      <point x="261" y="195" type="curve" smooth="yes"/>
      <point x="261" y="154"/>
      <point x="273" y="120"/>
      <point x="294" y="91" type="curve" smooth="yes"/>
      <point x="294" y="91"/>
      <point x="294" y="91"/>
      <point x="294" y="91" type="curve"/>
      <point x="224" y="106"/>
      <point x="173" y="160"/>
      <point x="173" y="262" type="curve" smooth="yes"/>
      <point x="173" y="342"/>
      <point x="210" y="421"/>
      <point x="327" y="421" type="curve" smooth="yes"/>
      <point x="366" y="421"/>
      <point x="395" y="413"/>
      <point x="422" y="402" type="curve"/>
      <point x="451" y="513" type="line"/>
      <point x="410" y="532"/>
      <point x="367" y="540"/>
      <point x="315" y="540" type="curve" smooth="yes"/>
      <point x="130" y="540"/>
      <point x="45" y="400"/>
      <point x="45" y="264" type="curve" smooth="yes"/>
      <point x="45" y="66"/>
      <point x="161" y="-14"/>
      <point x="357" y="-14" type="curve" smooth="yes"/>
      <point x="391" y="-14"/>
      <point x="420" y="-10"/>
      <point x="448" y="-1" type="curve"/>
      <point x="479" y="-14"/>
      <point x="510" y="-18"/>
      <point x="538" y="-18" type="curve" smooth="yes"/>
      <point x="567" y="-18"/>
      <point x="593" y="-13"/>
    </contour>
    <contour>
      <point x="432" y="111" type="curve"/>
      <point x="401" y="128"/>
      <point x="380" y="157"/>
      <point x="380" y="199" type="curve" smooth="yes"/>
      <point x="380" y="234"/>
      <point x="400" y="260"/>
      <point x="432" y="260" type="curve" smooth="yes"/>
      <point x="455" y="260"/>
      <point x="478" y="242"/>
      <point x="478" y="203" type="curve" smooth="yes"/>
      <point x="478" y="162"/>
      <point x="462" y="130"/>
    </contour>
  </outline>
</glyph>
<glyph name="hadescender-cy" format="2">
  <advance width="587"/>
  <unicode hex="04B3"/>
  <outline>
    <contour>
      <point x="440" y="-145" type="line"/>
      <point x="567" y="-145" type="line"/>
      <point x="567" y="122" type="line"/>
      <point x="469" y="122" type="line"/>
      <point x="437" y="170"/>
      <point x="399" y="221"/>
      <point x="358" y="273" type="curve"/>
      <point x="537" y="526" type="line"/>
      <point x="381" y="526" type="line"/>
      <point x="279" y="368" type="line"/>
      <point x="177" y="526" type="line"/>
      <point x="14" y="526" type="line"/>
      <point x="192" y="271" type="line"/>
      <point x="124" y="187"/>
      <point x="42" y="68"/>
      <point x="10" y="0" type="curve"/>
      <point x="164" y="0" type="line"/>
      <point x="190" y="53"/>
      <point x="233" y="126"/>
      <point x="273" y="176" type="curve"/>
      <point x="315" y="123"/>
      <point x="361" y="40"/>
      <point x="382" y="0" type="curve"/>
      <point x="440" y="0" type="line"/>
    </contour>
  </outline>
</glyph>
<glyph name="tetse-cy" format="2">
  <advance width="697"/>
  <unicode hex="04B5"/>
  <outline>
    <contour>
      <point x="550" y="-150" type="line"/>
      <point x="677" y="-150" type="line"/>
      <point x="677" y="122" type="line"/>
      <point x="588" y="122" type="line"/>
      <point x="588" y="526" type="line"/>
      <point x="439" y="526" type="line"/>
      <point x="439" y="122" type="line"/>
      <point x="264" y="122" type="line"/>
      <point x="264" y="403" type="line"/>
      <point x="369" y="403" type="line"/>
      <point x="369" y="526" type="line"/>
      <point x="10" y="526" type="line"/>
      <point x="10" y="403" type="line"/>
      <point x="115" y="403" type="line"/>
      <point x="115" y="0" type="line"/>
      <point x="550" y="0" type="line"/>
    </contour>
  </outline>
</glyph>
<glyph name="Chedescender-cy" format="2">
  <advance width="724"/>
  <unicode hex="04B6"/>
  <outline>
    <contour>
      <point x="544" y="-185" type="line"/>
      <point x="694" y="-185" type="line"/>
      <point x="694" y="132" type="line"/>
      <point x="610" y="132" type="line"/>
      <point x="610" y="693" type="line"/>
      <point x="454" y="693" type="line"/>
      <point x="454" y="364" type="line"/>
      <point x="415" y="359"/>
      <point x="378" y="356"/>
      <point x="346" y="356" type="curve" smooth="yes"/>
      <point x="262" y="356"/>
      <point x="206" y="381"/>
      <point x="206" y="489" type="curve" smooth="yes"/>
      <point x="206" y="693" type="line"/>
      <point x="50" y="693" type="line"/>
      <point x="50" y="481" type="line" smooth="yes"/>
      <point x="50" y="278"/>
      <point x="158" y="224"/>
      <point x="327" y="224" type="curve" smooth="yes"/>
      <point x="366" y="224"/>
      <point x="409" y="227"/>
      <point x="454" y="232" type="curve"/>
      <point x="454" y="0" type="line"/>
      <point x="544" y="0" type="line"/>
    </contour>
  </outline>
</glyph>
<glyph name="enhook-cy" format="2">
  <advance width="600"/>
  <unicode hex="04C8"/>
  <outline>
    <contour>
      <point x="342" y="-185" type="curve" smooth="yes"/>
      <point x="463" y="-185"/>
      <point x="530" y="-123"/>
      <point x="530" y="13" type="curve" smooth="yes"/>
      <point x="530" y="526" type="line"/>
      <point x="381" y="526" type="line"/>
      <point x="381" y="330" type="line"/>
      <point x="219" y="330" type="line"/>
      <point x="219" y="526" type="line"/>
      <point x="70" y="526" type="line"/>
      <point x="70" y="0" type="line"/>
      <point x="219" y="0" type="line"/>
      <point x="219" y="208" type="line"/>
      <point x="381" y="208" type="line"/>
      <point x="381" y="17" type="line"/>
      <point x="381" y="-34"/>
      <point x="367" y="-59"/>
      <point x="328" y="-59" type="curve" smooth="yes"/>
      <point x="303" y="-59"/>
      <point x="293" y="-58"/>
      <point x="273" y="-51" type="curve"/>
      <point x="253" y="-172" type="line"/>
      <point x="285" y="-183"/>
      <point x="323" y="-185"/>
    </contour>
  </outline>
</glyph>
<glyph name="entail-cy" format="2">
  <advance width="627"/>
  <unicode hex="04CA"/>
  <outline>
    <contour>
      <point x="481" y="-166" type="line"/>
      <point x="556" y="-99"/>
      <point x="609" y="11"/>
      <point x="606" y="122" type="curve"/>
      <point x="523" y="122" type="line"/>
      <point x="523" y="526" type="line"/>
      <point x="374" y="526" type="line"/>
      <point x="374" y="330" type="line"/>
      <point x="219" y="330" type="line"/>
      <point x="219" y="526" type="line"/>
      <point x="70" y="526" type="line"/>
      <point x="70" y="0" type="line"/>
      <point x="219" y="0" type="line"/>
      <point x="219" y="208" type="line"/>
      <point x="374" y="208" type="line"/>
      <point x="374" y="0" type="line"/>
      <point x="452" y="0" type="line"/>
      <point x="439" y="-41"/>
      <point x="421" y="-69"/>
      <point x="389" y="-108" type="curve"/>
    </contour>
  </outline>
</glyph>
<glyph name="Chekhakassian-cy" format="2">
  <advance width="680"/>
  <unicode hex="04CB"/>
  <outline>
    <contour>
      <point x="323" y="-185" type="line"/>
      <point x="473" y="-185" type="line"/>
      <point x="473" y="0" type="line"/>
      <point x="600" y="0" type="line"/>
      <point x="600" y="693" type="line"/>
      <point x="444" y="693" type="line"/>
      <point x="444" y="364" type="line"/>
      <point x="405" y="359"/>
      <point x="368" y="356"/>
      <point x="336" y="356" type="curve" smooth="yes"/>
      <point x="252" y="356"/>
      <point x="196" y="381"/>
      <point x="196" y="489" type="curve" smooth="yes"/>
      <point x="196" y="693" type="line"/>
      <point x="40" y="693" type="line"/>
      <point x="40" y="481" type="line" smooth="yes"/>
      <point x="40" y="278"/>
      <point x="148" y="224"/>
      <point x="317" y="224" type="curve" smooth="yes"/>
      <point x="356" y="224"/>
      <point x="399" y="227"/>
      <point x="444" y="232" type="curve"/>
      <point x="444" y="102" type="line"/>
      <point x="323" y="102" type="line"/>
    </contour>
  </outline>
</glyph>
<glyph name="prosgegrammeni" format="2">
  <advance width="309"/>
  <unicode hex="1FBE"/>
  <anchor x="119" y="0" name="_bottom"/>
  <outline>
    <contour>
      <point x="198" y="-220" type="curve" smooth="yes"/>
      <point x="218" y="-220"/>
      <point x="241" y="-217"/>
      <point x="249" y="-214" type="curve"/>
      <point x="249" y="-130" type="line"/>
      <point x="208" y="-130"/>
      <point x="177" y="-124"/>
      <point x="177" y="-66" type="curve" smooth="yes"/>
      <point x="177" y="-52" type="line"/>
      <point x="59" y="-52" type="line"/>
      <point x="56" y="-67"/>
      <point x="56" y="-84"/>
      <point x="56" y="-89" type="curve" smooth="yes"/>
      <point x="56" y="-189"/>
      <point x="126" y="-220"/>
    </contour>
  </outline>
</glyph>
<glyph name="perispomeni" format="2">
  <advance width="388"/>
  <unicode hex="1FC0"/>
  <anchor x="189" y="526" name="_top"/>
  <outline>
    <contour>
      <point x="27" y="598" type="curve"/>
      <point x="128" y="598" type="line"/>
      <point x="132" y="654"/>
      <point x="157" y="669"/>
      <point x="189" y="669" type="curve" smooth="yes"/>
      <point x="221" y="669"/>
      <point x="246" y="654"/>
      <point x="250" y="598" type="curve"/>
      <point x="351" y="598" type="line"/>
      <point x="351" y="705"/>
      <point x="281" y="764"/>
      <point x="189" y="764" type="curve" smooth="yes"/>
      <point x="97" y="764"/>
      <point x="27" y="705"/>
    </contour>
  </outline>
</glyph>
<glyph name="psilivaria" format="2">
  <advance width="315"/>
  <unicode hex="1FCD"/>
  <anchor x="315" y="526" name="_top"/>
  <outline>
    <contour>
      <point x="458" y="589" type="line"/>
      <point x="524" y="637" type="line"/>
      <point x="403" y="829" type="line"/>
      <point x="316" y="767" type="line"/>
    </contour>
    <contour>
      <point x="153" y="582" type="line"/>
      <point x="223" y="633"/>
      <point x="277" y="694"/>
      <point x="277" y="755" type="curve" smooth="yes"/>
      <point x="277" y="804"/>
      <point x="251" y="831"/>
      <point x="208" y="831" type="curve" smooth="yes"/>
      <point x="167" y="831"/>
      <point x="139" y="804"/>
      <point x="139" y="765" type="curve" smooth="yes"/>
      <point x="139" y="738"/>
      <point x="156" y="713"/>
      <point x="183" y="702" type="curve"/>
      <point x="164" y="675"/>
      <point x="140" y="652"/>
      <point x="108" y="625" type="curve"/>
    </contour>
  </outline>
</glyph>
<glyph name="psilioxia" format="2">
  <advance width="585"/>
  <unicode hex="1FCE"/>
  <anchor x="265" y="526" name="_top"/>
  <outline>
    <contour>
      <point x="335" y="589" type="line"/>
      <point x="477" y="767" type="line"/>
      <point x="390" y="829" type="line"/>
      <point x="269" y="637" type="line"/>
    </contour>
    <contour>
      <point x="137" y="582" type="line"/>
      <point x="207" y="633"/>
      <point x="261" y="694"/>
      <point x="261" y="755" type="curve" smooth="yes"/>
      <point x="261" y="804"/>
      <point x="235" y="831"/>
      <point x="192" y="831" type="curve" smooth="yes"/>
      <point x="151" y="831"/>
      <point x="123" y="804"/>
      <point x="123" y="765" type="curve" smooth="yes"/>
      <point x="123" y="738"/>
      <point x="140" y="713"/>
      <point x="167" y="702" type="curve"/>
      <point x="148" y="675"/>
      <point x="124" y="652"/>
      <point x="92" y="625" type="curve"/>
    </contour>
  </outline>
</glyph>
<glyph name="dasiaoxia" format="2">
  <advance width="614"/>
  <unicode hex="1FDE"/>
  <anchor x="286" y="526" name="_top"/>
  <outline>
    <contour>
      <point x="364" y="589" type="line"/>
      <point x="506" y="767" type="line"/>
      <point x="419" y="829" type="line"/>
      <point x="298" y="637" type="line"/>
    </contour>
    <contour>
      <point x="232" y="582" type="curve"/>
      <point x="277" y="625" type="line"/>
      <point x="245" y="652"/>
      <point x="221" y="675"/>
      <point x="202" y="702" type="curve"/>
      <point x="229" y="713"/>
      <point x="246" y="738"/>
      <point x="246" y="765" type="curve" smooth="yes"/>
      <point x="246" y="804"/>
      <point x="218" y="831"/>
      <point x="177" y="831" type="curve" smooth="yes"/>
      <point x="134" y="831"/>
      <point x="108" y="804"/>
      <point x="108" y="755" type="curve" smooth="yes"/>
      <point x="108" y="695"/>
      <point x="161" y="631"/>
    </contour>
  </outline>
</glyph>
<glyph name="dialytikavaria" format="2">
  <advance width="536"/>
  <unicode hex="1FED"/>
  <anchor x="268" y="526" name="_top"/>
  <outline>
    <contour>
      <point x="277" y="573" type="line"/>
      <point x="346" y="606" type="line"/>
      <point x="259" y="817" type="line"/>
      <point x="168" y="773" type="line"/>
    </contour>
    <contour>
      <point x="105" y="604" type="curve" smooth="yes"/>
      <point x="145" y="604"/>
      <point x="179" y="632"/>
      <point x="179" y="677" type="curve" smooth="yes"/>
      <point x="179" y="724"/>
      <point x="145" y="751"/>
      <point x="105" y="751" type="curve" smooth="yes"/>
      <point x="64" y="751"/>
      <point x="31" y="724"/>
      <point x="31" y="677" type="curve" smooth="yes"/>
      <point x="31" y="632"/>
      <point x="64" y="604"/>
    </contour>
    <contour>
      <point x="431" y="604" type="curve" smooth="yes"/>
      <point x="471" y="604"/>
      <point x="505" y="632"/>
      <point x="505" y="677" type="curve" smooth="yes"/>
      <point x="505" y="724"/>
      <point x="471" y="751"/>
      <point x="431" y="751" type="curve" smooth="yes"/>
      <point x="391" y="751"/>
      <point x="357" y="724"/>
      <point x="357" y="677" type="curve" smooth="yes"/>
      <point x="357" y="632"/>
      <point x="391" y="604"/>
    </contour>
  </outline>
</glyph>
<glyph name="dasia" format="2">
  <advance width="170"/>
  <unicode hex="1FFE"/>
  <anchor x="170" y="526" name="_top"/>
  <outline>
    <contour>
      <point x="224" y="582" type="curve"/>
      <point x="269" y="625" type="line"/>
      <point x="237" y="652"/>
      <point x="213" y="675"/>
      <point x="194" y="702" type="curve"/>
      <point x="221" y="713"/>
      <point x="240" y="738"/>
      <point x="240" y="765" type="curve" smooth="yes"/>
      <point x="240" y="804"/>
      <point x="210" y="831"/>
      <point x="169" y="831" type="curve" smooth="yes"/>
      <point x="126" y="831"/>
      <point x="93" y="804"/>
      <point x="93" y="755" type="curve" smooth="yes"/>
      <point x="93" y="695"/>
      <point x="149" y="633"/>
    </contour>
  </outline>
</glyph>
<glyph name="perthousand" format="2">
  <advance width="1320"/>
  <unicode hex="2030"/>
  <outline>
    <contour>
      <point x="193" y="0" type="line"/>
      <point x="332" y="0" type="line"/>
      <point x="723" y="693" type="line"/>
      <point x="584" y="693" type="line"/>
    </contour>
    <contour>
      <point x="212" y="321" type="curve" smooth="yes"/>
      <point x="320" y="321"/>
      <point x="389" y="390"/>
      <point x="389" y="515" type="curve" smooth="yes"/>
      <point x="389" y="640"/>
      <point x="320" y="709"/>
      <point x="212" y="709" type="curve" smooth="yes"/>
      <point x="104" y="709"/>
      <point x="35" y="640"/>
      <point x="35" y="515" type="curve" smooth="yes"/>
      <point x="35" y="390"/>
      <point x="104" y="321"/>
    </contour>
    <contour>
      <point x="212" y="417" type="curve" smooth="yes"/>
      <point x="173" y="417"/>
      <point x="148" y="447"/>
      <point x="148" y="515" type="curve" smooth="yes"/>
      <point x="148" y="583"/>
      <point x="173" y="612"/>
      <point x="212" y="612" type="curve" smooth="yes"/>
      <point x="249" y="612"/>
      <point x="276" y="583"/>
      <point x="276" y="515" type="curve" smooth="yes"/>
      <point x="276" y="447"/>
      <point x="249" y="417"/>
    </contour>
    <contour>
      <point x="706" y="-16" type="curve" smooth="yes"/>
      <point x="814" y="-16"/>
      <point x="883" y="53"/>
      <point x="883" y="178" type="curve" smooth="yes"/>
      <point x="883" y="303"/>
      <point x="814" y="372"/>
      <point x="706" y="372" type="curve" smooth="yes"/>
      <point x="598" y="372"/>
      <point x="529" y="303"/>
      <point x="529" y="178" type="curve" smooth="yes"/>
      <point x="529" y="53"/>
      <point x="598" y="-16"/>
    </contour>
    <contour>
      <point x="706" y="80" type="curve" smooth="yes"/>
      <point x="667" y="80"/>
      <point x="642" y="110"/>
      <point x="642" y="178" type="curve" smooth="yes"/>
      <point x="642" y="246"/>
      <point x="667" y="275"/>
      <point x="706" y="275" type="curve" smooth="yes"/>
      <point x="743" y="275"/>
      <point x="770" y="246"/>
      <point x="770" y="178" type="curve" smooth="yes"/>
      <point x="770" y="110"/>
      <point x="743" y="80"/>
    </contour>
    <contour>
      <point x="1108" y="-16" type="curve" smooth="yes"/>
      <point x="1216" y="-16"/>
      <point x="1285" y="53"/>
      <point x="1285" y="178" type="curve" smooth="yes"/>
      <point x="1285" y="303"/>
      <point x="1216" y="372"/>
      <point x="1108" y="372" type="curve" smooth="yes"/>
      <point x="1000" y="372"/>
      <point x="931" y="303"/>
      <point x="931" y="178" type="curve" smooth="yes"/>
      <point x="931" y="53"/>
      <point x="1000" y="-16"/>
    </contour>
    <contour>
      <point x="1108" y="80" type="curve" smooth="yes"/>
      <point x="1069" y="80"/>
      <point x="1044" y="110"/>
      <point x="1044" y="178" type="curve" smooth="yes"/>
      <point x="1044" y="246"/>
      <point x="1069" y="275"/>
      <point x="1108" y="275" type="curve" smooth="yes"/>
      <point x="1145" y="275"/>
      <point x="1172" y="246"/>
      <point x="1172" y="178" type="curve" smooth="yes"/>
      <point x="1172" y="110"/>
      <point x="1145" y="80"/>
    </contour>
  </outline>
</glyph>
<glyph name="tugrik" format="2">
  <advance width="564"/>
  <unicode hex="20AE"/>
  <outline>
    <contour>
      <point x="204" y="0" type="line"/>
      <point x="360" y="0" type="line"/>
      <point x="360" y="178" type="line"/>
      <point x="484" y="236" type="line"/>
      <point x="441" y="327" type="line"/>
      <point x="360" y="289" type="line"/>
      <point x="360" y="367" type="line"/>
      <point x="482" y="424" type="line"/>
      <point x="441" y="511" type="line"/>
      <point x="360" y="473" type="line"/>
      <point x="360" y="570" type="line"/>
      <point x="554" y="570" type="line"/>
      <point x="554" y="693" type="line"/>
      <point x="10" y="693" type="line"/>
      <point x="10" y="570" type="line"/>
      <point x="204" y="570" type="line"/>
      <point x="204" y="400" type="line"/>
      <point x="88" y="346" type="line"/>
      <point x="129" y="259" type="line"/>
      <point x="204" y="294" type="line"/>
      <point x="204" y="216" type="line"/>
      <point x="88" y="162" type="line"/>
      <point x="131" y="71" type="line"/>
      <point x="204" y="105" type="line"/>
    </contour>
  </outline>
</glyph>
<glyph name="hryvnia" format="2">
  <advance width="564"/>
  <unicode hex="20B4"/>
  <outline>
    <contour>
      <point x="307" y="-14" type="curve" smooth="yes"/>
      <point x="418" y="-14"/>
      <point x="484" y="18"/>
      <point x="517" y="39" type="curve"/>
      <point x="473" y="158" type="line"/>
      <point x="436" y="138"/>
      <point x="390" y="115"/>
      <point x="311" y="115" type="curve" smooth="yes"/>
      <point x="234" y="115"/>
      <point x="204" y="148"/>
      <point x="204" y="191" type="curve" smooth="yes"/>
      <point x="204" y="197"/>
      <point x="204" y="202"/>
      <point x="205" y="205" type="curve"/>
      <point x="543" y="205" type="line"/>
      <point x="543" y="305" type="line"/>
      <point x="301" y="305" type="line"/>
      <point x="342" y="330"/>
      <point x="390" y="354"/>
      <point x="427" y="385" type="curve"/>
      <point x="543" y="385" type="line"/>
      <point x="543" y="485" type="line"/>
      <point x="489" y="485" type="line"/>
      <point x="489" y="490"/>
      <point x="490" y="494"/>
      <point x="490" y="501" type="curve" smooth="yes"/>
      <point x="490" y="630"/>
      <point x="409" y="709"/>
      <point x="266" y="709" type="curve" smooth="yes"/>
      <point x="181" y="709"/>
      <point x="119" y="685"/>
      <point x="79" y="661" type="curve"/>
      <point x="124" y="543" type="line"/>
      <point x="159" y="562"/>
      <point x="193" y="579"/>
      <point x="252" y="579" type="curve" smooth="yes"/>
      <point x="313" y="579"/>
      <point x="347" y="556"/>
      <point x="347" y="513" type="curve" smooth="yes"/>
      <point x="347" y="503"/>
      <point x="345" y="494"/>
      <point x="342" y="485" type="curve"/>
      <point x="21" y="485" type="line"/>
      <point x="21" y="385" type="line"/>
      <point x="224" y="385" type="line"/>
      <point x="183" y="362"/>
      <point x="140" y="338"/>
      <point x="108" y="305" type="curve"/>
      <point x="21" y="305" type="line"/>
      <point x="21" y="205" type="line"/>
      <point x="61" y="205" type="line"/>
      <point x="61" y="200"/>
      <point x="61" y="195"/>
      <point x="61" y="190" type="curve" smooth="yes"/>
      <point x="61" y="62"/>
      <point x="138" y="-14"/>
    </contour>
  </outline>
</glyph>
<glyph name="tenge" format="2">
  <advance width="564"/>
  <unicode hex="20B8"/>
  <outline>
    <contour>
      <point x="203" y="0" type="line"/>
      <point x="359" y="0" type="line"/>
      <point x="359" y="377" type="line"/>
      <point x="535" y="377" type="line"/>
      <point x="535" y="500" type="line"/>
      <point x="29" y="500" type="line"/>
      <point x="29" y="377" type="line"/>
      <point x="203" y="377" type="line"/>
    </contour>
    <contour>
      <point x="29" y="570" type="line"/>
      <point x="535" y="570" type="line"/>
      <point x="535" y="693" type="line"/>
      <point x="29" y="693" type="line"/>
    </contour>
  </outline>
</glyph>
<glyph name="literSign" format="2">
  <advance width="541"/>
  <unicode hex="2113"/>
  <outline>
    <contour>
      <point x="310" y="-14" type="curve" smooth="yes"/>
      <point x="390" y="-14"/>
      <point x="455" y="13"/>
      <point x="506" y="61" type="curve"/>
      <point x="445" y="157" type="line"/>
      <point x="417" y="133"/>
      <point x="377" y="112"/>
      <point x="340" y="112" type="curve" smooth="yes"/>
      <point x="283" y="112"/>
      <point x="255" y="143"/>
      <point x="255" y="206" type="curve" smooth="yes"/>
      <point x="255" y="239" type="line"/>
      <point x="392" y="360"/>
      <point x="473" y="468"/>
      <point x="473" y="589" type="curve" smooth="yes"/>
      <point x="473" y="690"/>
      <point x="422" y="776"/>
      <point x="310" y="776" type="curve" smooth="yes"/>
      <point x="193" y="776"/>
      <point x="117" y="692"/>
      <point x="117" y="504" type="curve" smooth="yes"/>
      <point x="117" y="264" type="line"/>
      <point x="26" y="194" type="line"/>
      <point x="74" y="122" type="line"/>
      <point x="119" y="154" type="line"/>
      <point x="119" y="153" type="line"/>
      <point x="125" y="51"/>
      <point x="198" y="-14"/>
    </contour>
    <contour>
      <point x="255" y="372" type="curve"/>
      <point x="255" y="520" type="line"/>
      <point x="255" y="638"/>
      <point x="286" y="672"/>
      <point x="318" y="672" type="curve" smooth="yes"/>
      <point x="358" y="672"/>
      <point x="372" y="645"/>
      <point x="372" y="593" type="curve" smooth="yes"/>
      <point x="372" y="528"/>
      <point x="324" y="447"/>
    </contour>
  </outline>
</glyph>
<glyph name="numero" format="2">
  <advance width="1121"/>
  <unicode hex="2116"/>
  <outline>
    <contour>
      <point x="80" y="0" type="line"/>
      <point x="234" y="0" type="line"/>
      <point x="234" y="444" type="line"/>
      <point x="341" y="307"/>
      <point x="436" y="159"/>
      <point x="525" y="0" type="curve"/>
      <point x="656" y="0" type="line"/>
      <point x="656" y="693" type="line"/>
      <point x="501" y="693" type="line"/>
      <point x="501" y="294" type="line"/>
      <point x="415" y="439"/>
      <point x="296" y="604"/>
      <point x="207" y="693" type="curve"/>
      <point x="80" y="693" type="line"/>
    </contour>
    <contour>
      <point x="736" y="122" type="line"/>
      <point x="1076" y="122" type="line"/>
      <point x="1076" y="245" type="line"/>
      <point x="736" y="245" type="line"/>
    </contour>
    <contour>
      <point x="906" y="328" type="curve" smooth="yes"/>
      <point x="1019" y="328"/>
      <point x="1101" y="403"/>
      <point x="1101" y="518" type="curve" smooth="yes"/>
      <point x="1101" y="634"/>
      <point x="1019" y="708"/>
      <point x="906" y="708" type="curve" smooth="yes"/>
      <point x="793" y="708"/>
      <point x="711" y="634"/>
      <point x="711" y="518" type="curve" smooth="yes"/>
      <point x="711" y="403"/>
      <point x="793" y="328"/>
    </contour>
    <contour>
      <point x="905" y="435" type="curve" smooth="yes"/>
      <point x="858" y="435"/>
      <point x="832" y="469"/>
      <point x="832" y="518" type="curve" smooth="yes"/>
      <point x="832" y="569"/>
      <point x="858" y="602"/>
      <point x="905" y="602" type="curve" smooth="yes"/>
      <point x="953" y="602"/>
      <point x="980" y="569"/>
      <point x="980" y="518" type="curve" smooth="yes"/>
      <point x="980" y="469"/>
      <point x="953" y="435"/>
    </contour>
  </outline>
</glyph>
<glyph name="summation" format="2">
  <advance width="543"/>
  <unicode hex="2211"/>
  <outline>
    <contour>
      <point x="15" y="-109" type="line"/>
      <point x="523" y="-109" type="line"/>
      <point x="523" y="22" type="line"/>
      <point x="199" y="22" type="line"/>
      <point x="250" y="110"/>
      <point x="324" y="217"/>
      <point x="393" y="302" type="curve"/>
      <point x="333" y="386"/>
      <point x="264" y="490"/>
      <point x="214" y="562" type="curve"/>
      <point x="523" y="562" type="line"/>
      <point x="523" y="693" type="line"/>
      <point x="18" y="693" type="line"/>
      <point x="18" y="600" type="line"/>
      <point x="86" y="500"/>
      <point x="153" y="405"/>
      <point x="222" y="306" type="curve"/>
      <point x="154" y="210"/>
      <point x="80" y="108"/>
      <point x="15" y="-13" type="curve"/>
    </contour>
  </outline>
</glyph>
<glyph name="approxequal" format="2">
  <advance width="564"/>
  <unicode hex="2248"/>
  <outline>
    <contour>
      <point x="385" y="71" type="curve" smooth="yes"/>
      <point x="488" y="71"/>
      <point x="531" y="169"/>
      <point x="544" y="243" type="curve"/>
      <point x="442" y="271" type="line"/>
      <point x="426" y="204"/>
      <point x="402" y="198"/>
      <point x="380" y="198" type="curve" smooth="yes"/>
      <point x="322" y="198"/>
      <point x="261" y="273"/>
      <point x="181" y="273" type="curve" smooth="yes"/>
      <point x="77" y="273"/>
      <point x="35" y="175"/>
      <point x="22" y="101" type="curve"/>
      <point x="124" y="73" type="line"/>
      <point x="140" y="140"/>
      <point x="164" y="146"/>
      <point x="186" y="146" type="curve" smooth="yes"/>
      <point x="244" y="146"/>
      <point x="305" y="71"/>
    </contour>
    <contour>
      <point x="384" y="315" type="curve" smooth="yes"/>
      <point x="487" y="315"/>
      <point x="530" y="413"/>
      <point x="543" y="487" type="curve"/>
      <point x="441" y="515" type="line"/>
      <point x="425" y="448"/>
      <point x="401" y="442"/>
      <point x="379" y="442" type="curve" smooth="yes"/>
      <point x="321" y="442"/>
      <point x="260" y="517"/>
      <point x="180" y="517" type="curve" smooth="yes"/>
      <point x="76" y="517"/>
      <point x="34" y="419"/>
      <point x="21" y="345" type="curve"/>
      <point x="123" y="317" type="line"/>
      <point x="139" y="384"/>
      <point x="163" y="390"/>
      <point x="185" y="390" type="curve" smooth="yes"/>
      <point x="243" y="390"/>
      <point x="304" y="315"/>
    </contour>
  </outline>
</glyph>
<glyph name="notequal" format="2">
  <advance width="564"/>
  <unicode hex="2260"/>
  <outline>
    <contour>
      <point x="179" y="-4" type="line"/>
      <point x="247" y="126" type="line"/>
      <point x="517" y="126" type="line"/>
      <point x="517" y="251" type="line"/>
      <point x="313" y="251" type="line"/>
      <point x="362" y="345" type="line"/>
      <point x="517" y="345" type="line"/>
      <point x="517" y="470" type="line"/>
      <point x="428" y="470" type="line"/>
      <point x="471" y="552" type="line"/>
      <point x="387" y="598" type="line"/>
      <point x="319" y="470" type="line"/>
      <point x="47" y="470" type="line"/>
      <point x="47" y="345" type="line"/>
      <point x="254" y="345" type="line"/>
      <point x="204" y="251" type="line"/>
      <point x="47" y="251" type="line"/>
      <point x="47" y="126" type="line"/>
      <point x="139" y="126" type="line"/>
      <point x="95" y="42" type="line"/>
    </contour>
  </outline>
</glyph>
<glyph name="acute_greek.sc" format="2">
  <advance width="276"/>
  <anchor x="276" y="589" name="_topleft"/>
  <outline>
    <contour>
      <point x="68" y="396" type="line"/>
      <point x="233" y="535" type="line"/>
      <point x="142" y="619" type="line"/>
      <point x="0" y="457" type="line"/>
    </contour>
  </outline>
</glyph>
<glyph name="ampersand.c2sc" format="2">
  <advance width="635"/>
  <outline>
    <contour>
      <point x="250" y="-8" type="curve" smooth="yes"/>
      <point x="318" y="-8"/>
      <point x="380" y="12"/>
      <point x="434" y="49" type="curve"/>
      <point x="446" y="38"/>
      <point x="456" y="23"/>
      <point x="471" y="0" type="curve"/>
      <point x="626" y="0" type="line"/>
      <point x="600" y="53"/>
      <point x="562" y="107"/>
      <point x="525" y="149" type="curve"/>
      <point x="549" y="191"/>
      <point x="568" y="254"/>
      <point x="572" y="294" type="curve"/>
      <point x="445" y="310" type="line"/>
      <point x="444" y="294"/>
      <point x="435" y="259"/>
      <point x="427" y="237" type="curve"/>
      <point x="348" y="311" type="line"/>
      <point x="408" y="348"/>
      <point x="447" y="408"/>
      <point x="447" y="471" type="curve" smooth="yes"/>
      <point x="447" y="547"/>
      <point x="389" y="610"/>
      <point x="274" y="610" type="curve" smooth="yes"/>
      <point x="159" y="610"/>
      <point x="91" y="552"/>
      <point x="91" y="448" type="curve" smooth="yes"/>
      <point x="91" y="403"/>
      <point x="119" y="366"/>
      <point x="141" y="338" type="curve"/>
      <point x="80" y="303"/>
      <point x="27" y="246"/>
      <point x="27" y="160" type="curve" smooth="yes"/>
      <point x="27" y="83"/>
      <point x="77" y="-8"/>
    </contour>
    <contour>
      <point x="256" y="110" type="curve" smooth="yes"/>
      <point x="191" y="110"/>
      <point x="168" y="151"/>
      <point x="168" y="177" type="curve" smooth="yes"/>
      <point x="168" y="210"/>
      <point x="191" y="240"/>
      <point x="224" y="256" type="curve"/>
      <point x="352" y="132" type="line"/>
      <point x="331" y="119"/>
      <point x="299" y="110"/>
    </contour>
    <contour>
      <point x="262" y="384" type="curve"/>
      <point x="241" y="401"/>
      <point x="220" y="428"/>
      <point x="220" y="454" type="curve" smooth="yes"/>
      <point x="220" y="483"/>
      <point x="238" y="504"/>
      <point x="269" y="504" type="curve" smooth="yes"/>
      <point x="308" y="504"/>
      <point x="318" y="484"/>
      <point x="318" y="463" type="curve" smooth="yes"/>
      <point x="318" y="429"/>
      <point x="297" y="404"/>
    </contour>
  </outline>
</glyph>
<glyph name="aring.sc" format="2">
  <advance width="655"/>
  <outline>
    <contour>
      <point x="15" y="0" type="curve"/>
      <point x="173" y="0" type="line"/>
      <point x="184" y="37"/>
      <point x="200" y="78"/>
      <point x="214" y="119" type="curve"/>
      <point x="436" y="119" type="line"/>
      <point x="450" y="78"/>
      <point x="464" y="44"/>
      <point x="477" y="0" type="curve"/>
      <point x="640" y="0" type="line"/>
      <point x="548" y="260"/>
      <point x="481" y="419"/>
      <point x="404" y="582" type="curve"/>
      <point x="424" y="600"/>
      <point x="435" y="625"/>
      <point x="435" y="656" type="curve" smooth="yes"/>
      <point x="435" y="724"/>
      <point x="384" y="758"/>
      <point x="327" y="758" type="curve" smooth="yes"/>
      <point x="273" y="758"/>
      <point x="221" y="724"/>
      <point x="221" y="656" type="curve" smooth="yes"/>
      <point x="221" y="624"/>
      <point x="232" y="600"/>
      <point x="251" y="582" type="curve"/>
      <point x="173" y="423"/>
      <point x="104" y="253"/>
    </contour>
    <contour>
      <point x="248" y="239" type="line"/>
      <point x="283" y="334"/>
      <point x="320" y="422"/>
      <point x="324" y="438" type="curve"/>
      <point x="336" y="410"/>
      <point x="370" y="324"/>
      <point x="401" y="239" type="curve"/>
    </contour>
    <contour>
      <point x="327" y="619" type="curve" smooth="yes"/>
      <point x="309" y="619"/>
      <point x="290" y="631"/>
      <point x="290" y="656" type="curve" smooth="yes"/>
      <point x="290" y="682"/>
      <point x="309" y="694"/>
      <point x="327" y="694" type="curve" smooth="yes"/>
      <point x="346" y="694"/>
      <point x="365" y="682"/>
      <point x="365" y="656" type="curve" smooth="yes"/>
      <point x="365" y="631"/>
      <point x="346" y="619"/>
    </contour>
  </outline>
</glyph>
<glyph name="brevecomb.cyr.sc" format="2">
  <anchor x="0" y="589" name="_top"/>
  <anchor x="0" y="826" name="top"/>
  <outline>
    <contour>
      <point x="0" y="656" type="curve" smooth="yes"/>
      <point x="85" y="656"/>
      <point x="165" y="707"/>
      <point x="173" y="798" type="curve"/>
      <point x="71" y="825" type="line"/>
      <point x="60" y="772"/>
      <point x="35" y="756"/>
      <point x="0" y="756" type="curve" smooth="yes"/>
      <point x="-33" y="756"/>
      <point x="-59" y="775"/>
      <point x="-70" y="826" type="curve"/>
      <point x="-173" y="799" type="line"/>
      <point x="-165" y="708"/>
      <point x="-84" y="656"/>
    </contour>
  </outline>
</glyph>
<glyph name="c.sc" format="2">
  <advance width="583"/>
  <anchor x="292" y="0" name="bottom"/>
  <anchor x="351" y="589" name="top"/>
  <outline>
    <contour>
      <point x="354" y="-12" type="curve" smooth="yes"/>
      <point x="445" y="-12"/>
      <point x="518" y="9"/>
      <point x="561" y="35" type="curve"/>
      <point x="519" y="156" type="line"/>
      <point x="489" y="142"/>
      <point x="446" y="122"/>
      <point x="367" y="122" type="curve" smooth="yes"/>
      <point x="244" y="122"/>
      <point x="205" y="202"/>
      <point x="205" y="298" type="curve" smooth="yes"/>
      <point x="205" y="430"/>
      <point x="286" y="469"/>
      <point x="357" y="469" type="curve" smooth="yes"/>
      <point x="414" y="469"/>
      <point x="464" y="457"/>
      <point x="508" y="435" type="curve"/>
      <point x="551" y="556" type="line"/>
      <point x="524" y="572"/>
      <point x="459" y="603"/>
      <point x="361" y="603" type="curve" smooth="yes"/>
      <point x="178" y="603"/>
      <point x="47" y="489"/>
      <point x="47" y="295" type="curve" smooth="yes"/>
      <point x="47" y="99"/>
      <point x="150" y="-12"/>
    </contour>
  </outline>
</glyph>
<glyph name="chedescenderabkhasian-cy.sc" format="2">
  <advance width="790"/>
  <outline>
    <contour>
      <point x="394" y="-157" type="line"/>
      <point x="540" y="-157" type="line"/>
      <point x="540" y="-11" type="line"/>
      <point x="619" y="-3"/>
      <point x="680" y="26"/>
      <point x="706" y="39" type="curve"/>
      <point x="668" y="156" type="line"/>
      <point x="639" y="144"/>
      <point x="579" y="118"/>
      <point x="511" y="118" type="curve" smooth="yes"/>
      <point x="404" y="118"/>
      <point x="356" y="148"/>
      <point x="343" y="246" type="curve"/>
      <point x="736" y="246" type="line"/>
      <point x="739" y="261"/>
      <point x="742" y="294"/>
      <point x="742" y="304" type="curve" smooth="yes"/>
      <point x="742" y="503"/>
      <point x="631" y="602"/>
      <point x="471" y="602" type="curve" smooth="yes"/>
      <point x="336" y="602"/>
      <point x="221" y="538"/>
      <point x="190" y="379" type="curve"/>
      <point x="143" y="390"/>
      <point x="134" y="409"/>
      <point x="134" y="428" type="curve" smooth="yes"/>
      <point x="134" y="436"/>
      <point x="135" y="447"/>
      <point x="138" y="464" type="curve"/>
      <point x="24" y="479" type="line"/>
      <point x="18" y="461"/>
      <point x="13" y="430"/>
      <point x="13" y="408" type="curve" smooth="yes"/>
      <point x="13" y="313"/>
      <point x="77" y="275"/>
      <point x="185" y="259" type="curve"/>
      <point x="192" y="139"/>
      <point x="255" y="34"/>
      <point x="394" y="-1" type="curve"/>
    </contour>
    <contour>
      <point x="348" y="370" type="line"/>
      <point x="359" y="433"/>
      <point x="394" y="474"/>
      <point x="470" y="474" type="curve" smooth="yes"/>
      <point x="534" y="474"/>
      <point x="577" y="437"/>
      <point x="585" y="370" type="curve"/>
    </contour>
  </outline>
</glyph>
<glyph name="cheverticalstroke-cy.sc" format="2">
  <advance width="604"/>
  <outline>
    <contour>
      <point x="378" y="0" type="line"/>
      <point x="530" y="0" type="line"/>
      <point x="530" y="589" type="line"/>
      <point x="378" y="589" type="line"/>
      <point x="378" y="316" type="line"/>
      <point x="364" y="315"/>
      <point x="353" y="314"/>
      <point x="339" y="313" type="curve"/>
      <point x="339" y="407" type="line"/>
      <point x="246" y="407" type="line"/>
      <point x="246" y="317" type="line"/>
      <point x="201" y="329"/>
      <point x="188" y="358"/>
      <point x="188" y="405" type="curve" smooth="yes"/>
      <point x="188" y="589" type="line"/>
      <point x="36" y="589" type="line"/>
      <point x="36" y="405" type="line" smooth="yes"/>
      <point x="36" y="280"/>
      <point x="76" y="197"/>
      <point x="246" y="185" type="curve"/>
      <point x="246" y="88" type="line"/>
      <point x="339" y="88" type="line"/>
      <point x="339" y="185" type="line"/>
      <point x="353" y="186"/>
      <point x="363" y="186"/>
      <point x="378" y="188" type="curve"/>
    </contour>
  </outline>
</glyph>
<glyph name="copyright.c2sc" format="2">
  <advance width="681"/>
  <outline>
    <contour>
      <point x="341" y="-13" type="curve" smooth="yes"/>
      <point x="499" y="-13"/>
      <point x="643" y="100"/>
      <point x="643" y="295" type="curve" smooth="yes"/>
      <point x="643" y="490"/>
      <point x="499" y="603"/>
      <point x="341" y="603" type="curve" smooth="yes"/>
      <point x="182" y="603"/>
      <point x="38" y="490"/>
      <point x="38" y="295" type="curve" smooth="yes"/>
      <point x="38" y="100"/>
      <point x="182" y="-13"/>
    </contour>
    <contour>
      <point x="356" y="139" type="curve" smooth="yes"/>
      <point x="405" y="139"/>
      <point x="441" y="156"/>
      <point x="459" y="166" type="curve"/>
      <point x="433" y="253" type="line"/>
      <point x="415" y="247"/>
      <point x="396" y="237"/>
      <point x="362" y="237" type="curve" smooth="yes"/>
      <point x="314" y="237"/>
      <point x="309" y="273"/>
      <point x="309" y="302" type="curve" smooth="yes"/>
      <point x="309" y="339"/>
      <point x="330" y="358"/>
      <point x="362" y="358" type="curve" smooth="yes"/>
      <point x="391" y="358"/>
      <point x="409" y="352"/>
      <point x="425" y="343" type="curve"/>
      <point x="455" y="427" type="line"/>
      <point x="443" y="433"/>
      <point x="408" y="454"/>
      <point x="353" y="454" type="curve" smooth="yes"/>
      <point x="258" y="454"/>
      <point x="198" y="398"/>
      <point x="198" y="297" type="curve" smooth="yes"/>
      <point x="198" y="195"/>
      <point x="252" y="139"/>
    </contour>
    <contour>
      <point x="341" y="79" type="curve" smooth="yes"/>
      <point x="219" y="79"/>
      <point x="135" y="165"/>
      <point x="135" y="295" type="curve" smooth="yes"/>
      <point x="135" y="426"/>
      <point x="220" y="512"/>
      <point x="341" y="512" type="curve" smooth="yes"/>
      <point x="462" y="512"/>
      <point x="546" y="425"/>
      <point x="546" y="295" type="curve" smooth="yes"/>
      <point x="546" y="165"/>
      <point x="462" y="79"/>
    </contour>
  </outline>
</glyph>
<glyph name="dieresiscomb_gravecomb" format="2">
  <anchor x="0" y="526" name="_top"/>
  <anchor x="0" y="880" name="top"/>
  <outline>
    <contour>
      <point x="-3" y="663" type="line"/>
      <point x="60" y="710" type="line"/>
      <point x="-59" y="880" type="line"/>
      <point x="-138" y="816" type="line"/>
    </contour>
    <contour>
      <point x="-132" y="590" type="curve" smooth="yes"/>
      <point x="-97" y="590"/>
      <point x="-68" y="614"/>
      <point x="-68" y="653" type="curve" smooth="yes"/>
      <point x="-68" y="692"/>
      <point x="-97" y="716"/>
      <point x="-132" y="716" type="curve" smooth="yes"/>
      <point x="-167" y="716"/>
      <point x="-196" y="692"/>
      <point x="-196" y="653" type="curve" smooth="yes"/>
      <point x="-196" y="614"/>
      <point x="-167" y="590"/>
    </contour>
    <contour>
      <point x="132" y="590" type="curve" smooth="yes"/>
      <point x="168" y="590"/>
      <point x="196" y="614"/>
      <point x="196" y="653" type="curve" smooth="yes"/>
      <point x="196" y="692"/>
      <point x="168" y="716"/>
      <point x="132" y="716" type="curve" smooth="yes"/>
      <point x="97" y="716"/>
      <point x="68" y="692"/>
      <point x="68" y="653" type="curve" smooth="yes"/>
      <point x="68" y="614"/>
      <point x="97" y="590"/>
    </contour>
  </outline>
</glyph>
<glyph name="eight.osf" format="2">
  <advance width="568"/>
  <outline>
    <contour>
      <point x="281" y="-14" type="curve" smooth="yes"/>
      <point x="445" y="-14"/>
      <point x="528" y="74"/>
      <point x="528" y="193" type="curve" smooth="yes"/>
      <point x="528" y="265"/>
      <point x="498" y="316"/>
      <point x="422" y="365" type="curve"/>
      <point x="473" y="397"/>
      <point x="511" y="456"/>
      <point x="511" y="520" type="curve" smooth="yes"/>
      <point x="511" y="607"/>
      <point x="446" y="709"/>
      <point x="282" y="709" type="curve" smooth="yes"/>
      <point x="143" y="709"/>
      <point x="52" y="615"/>
      <point x="52" y="507" type="curve" smooth="yes"/>
      <point x="52" y="436"/>
      <point x="79" y="398"/>
      <point x="136" y="351" type="curve"/>
      <point x="84" y="312"/>
      <point x="37" y="261"/>
      <point x="37" y="181" type="curve" smooth="yes"/>
      <point x="37" y="103"/>
      <point x="95" y="-14"/>
    </contour>
    <contour>
      <point x="282" y="106" type="curve" smooth="yes"/>
      <point x="210" y="106"/>
      <point x="182" y="154"/>
      <point x="182" y="187" type="curve" smooth="yes"/>
      <point x="182" y="239"/>
      <point x="211" y="275"/>
      <point x="248" y="303" type="curve"/>
      <point x="323" y="279"/>
      <point x="382" y="249"/>
      <point x="382" y="187" type="curve" smooth="yes"/>
      <point x="382" y="146"/>
      <point x="351" y="106"/>
    </contour>
    <contour>
      <point x="301" y="406" type="curve"/>
      <point x="225" y="433"/>
      <point x="197" y="471"/>
      <point x="197" y="514" type="curve" smooth="yes"/>
      <point x="197" y="546"/>
      <point x="223" y="589"/>
      <point x="282" y="589" type="curve" smooth="yes"/>
      <point x="343" y="589"/>
      <point x="367" y="544"/>
      <point x="367" y="516" type="curve" smooth="yes"/>
      <point x="367" y="465"/>
      <point x="344" y="433"/>
    </contour>
  </outline>
</glyph>
<glyph name="eight.tosf" format="2">
  <advance width="564"/>
  <outline>
    <contour>
      <point x="280" y="-14" type="curve" smooth="yes"/>
      <point x="444" y="-14"/>
      <point x="527" y="74"/>
      <point x="527" y="193" type="curve" smooth="yes"/>
      <point x="527" y="265"/>
      <point x="497" y="316"/>
      <point x="421" y="365" type="curve"/>
      <point x="472" y="397"/>
      <point x="510" y="456"/>
      <point x="510" y="520" type="curve" smooth="yes"/>
      <point x="510" y="607"/>
      <point x="445" y="709"/>
      <point x="281" y="709" type="curve" smooth="yes"/>
      <point x="142" y="709"/>
      <point x="51" y="615"/>
      <point x="51" y="507" type="curve" smooth="yes"/>
      <point x="51" y="436"/>
      <point x="78" y="398"/>
      <point x="135" y="351" type="curve"/>
      <point x="83" y="312"/>
      <point x="36" y="261"/>
      <point x="36" y="181" type="curve" smooth="yes"/>
      <point x="36" y="103"/>
      <point x="94" y="-14"/>
    </contour>
    <contour>
      <point x="281" y="106" type="curve" smooth="yes"/>
      <point x="209" y="106"/>
      <point x="181" y="154"/>
      <point x="181" y="187" type="curve" smooth="yes"/>
      <point x="181" y="239"/>
      <point x="210" y="275"/>
      <point x="247" y="303" type="curve"/>
      <point x="322" y="279"/>
      <point x="381" y="249"/>
      <point x="381" y="187" type="curve" smooth="yes"/>
      <point x="381" y="146"/>
      <point x="350" y="106"/>
    </contour>
    <contour>
      <point x="300" y="406" type="curve"/>
      <point x="224" y="433"/>
      <point x="196" y="471"/>
      <point x="196" y="514" type="curve" smooth="yes"/>
      <point x="196" y="546"/>
      <point x="222" y="589"/>
      <point x="281" y="589" type="curve" smooth="yes"/>
      <point x="342" y="589"/>
      <point x="366" y="544"/>
      <point x="366" y="516" type="curve" smooth="yes"/>
      <point x="366" y="465"/>
      <point x="343" y="433"/>
    </contour>
  </outline>
</glyph>
<glyph name="eogonek.sc" format="2">
  <advance width="550"/>
  <anchor x="275" y="589" name="top"/>
  <outline>
    <contour>
      <point x="439" y="-194" type="curve" smooth="yes"/>
      <point x="467" y="-194"/>
      <point x="507" y="-190"/>
      <point x="533" y="-179" type="curve"/>
      <point x="521" y="-83" type="line"/>
      <point x="499" y="-90"/>
      <point x="484" y="-91"/>
      <point x="475" y="-91" type="curve" smooth="yes"/>
      <point x="455" y="-91"/>
      <point x="451" y="-82"/>
      <point x="451" y="-72" type="curve" smooth="yes"/>
      <point x="451" y="-49"/>
      <point x="495" y="-15"/>
      <point x="513" y="0" type="curve"/>
      <point x="513" y="127" type="line"/>
      <point x="226" y="127" type="line"/>
      <point x="226" y="245" type="line"/>
      <point x="463" y="245" type="line"/>
      <point x="463" y="369" type="line"/>
      <point x="226" y="369" type="line"/>
      <point x="226" y="462" type="line"/>
      <point x="494" y="462" type="line"/>
      <point x="494" y="589" type="line"/>
      <point x="74" y="589" type="line"/>
      <point x="74" y="0" type="line"/>
      <point x="400" y="0" type="line"/>
      <point x="366" y="-26"/>
      <point x="325" y="-68"/>
      <point x="325" y="-113" type="curve" smooth="yes"/>
      <point x="325" y="-162"/>
      <point x="357" y="-194"/>
    </contour>
  </outline>
</glyph>
<glyph name="ereversed-cy.sc" format="2">
  <advance width="621"/>
  <anchor x="287" y="589" name="top"/>
  <outline>
    <contour>
      <point x="266" y="-12" type="curve" smooth="yes"/>
      <point x="434" y="-12"/>
      <point x="575" y="73"/>
      <point x="575" y="295" type="curve" smooth="yes"/>
      <point x="575" y="510"/>
      <point x="438" y="604"/>
      <point x="268" y="604" type="curve" smooth="yes"/>
      <point x="203" y="604"/>
      <point x="127" y="591"/>
      <point x="54" y="553" type="curve"/>
      <point x="99" y="435" type="line"/>
      <point x="131" y="451"/>
      <point x="193" y="473"/>
      <point x="263" y="473" type="curve" smooth="yes"/>
      <point x="349" y="473"/>
      <point x="397" y="439"/>
      <point x="412" y="363" type="curve"/>
      <point x="167" y="363" type="line"/>
      <point x="167" y="235" type="line"/>
      <point x="415" y="235" type="line"/>
      <point x="399" y="156"/>
      <point x="347" y="120"/>
      <point x="264" y="120" type="curve" smooth="yes"/>
      <point x="184" y="120"/>
      <point x="128" y="150"/>
      <point x="96" y="162" type="curve"/>
      <point x="47" y="41" type="line"/>
      <point x="116" y="7"/>
      <point x="178" y="-12"/>
    </contour>
  </outline>
</glyph>
<glyph name="ertick-cy.sc" format="2">
  <advance width="587"/>
  <outline>
    <contour>
      <point x="80" y="0" type="line"/>
      <point x="232" y="0" type="line"/>
      <point x="232" y="169" type="line"/>
      <point x="266" y="169" type="line" smooth="yes"/>
      <point x="302" y="169"/>
      <point x="335" y="171"/>
      <point x="364" y="176" type="curve"/>
      <point x="412" y="96" type="line"/>
      <point x="491" y="143" type="line"/>
      <point x="454" y="205" type="line"/>
      <point x="518" y="238"/>
      <point x="552" y="296"/>
      <point x="552" y="381" type="curve" smooth="yes"/>
      <point x="552" y="537"/>
      <point x="449" y="596"/>
      <point x="267" y="596" type="curve" smooth="yes"/>
      <point x="212" y="596"/>
      <point x="143" y="592"/>
      <point x="80" y="581" type="curve"/>
    </contour>
    <contour>
      <point x="232" y="299" type="line"/>
      <point x="232" y="465" type="line"/>
      <point x="244" y="466"/>
      <point x="267" y="467"/>
      <point x="277" y="467" type="curve" smooth="yes"/>
      <point x="353" y="467"/>
      <point x="395" y="448"/>
      <point x="395" y="382" type="curve" smooth="yes"/>
      <point x="395" y="360"/>
      <point x="390" y="343"/>
      <point x="380" y="331" type="curve"/>
      <point x="337" y="403" type="line"/>
      <point x="257" y="355" type="line"/>
      <point x="290" y="300" type="line"/>
      <point x="283" y="299"/>
      <point x="276" y="299"/>
      <point x="268" y="299" type="curve" smooth="yes"/>
    </contour>
  </outline>
</glyph>
<glyph name="estroke.sc" format="2">
  <advance width="547"/>
  <anchor x="274" y="0" name="bottom"/>
  <anchor x="274" y="589" name="top"/>
  <outline>
    <contour>
      <point x="256" y="-84" type="line"/>
      <point x="287" y="0" type="line"/>
      <point x="518" y="0" type="line"/>
      <point x="518" y="127" type="line"/>
      <point x="336" y="127" type="line"/>
      <point x="382" y="245" type="line"/>
      <point x="468" y="245" type="line"/>
      <point x="468" y="369" type="line"/>
      <point x="429" y="369" type="line"/>
      <point x="531" y="635" type="line"/>
      <point x="449" y="662" type="line"/>
      <point x="420" y="589" type="line"/>
      <point x="74" y="589" type="line"/>
      <point x="74" y="0" type="line"/>
      <point x="197" y="0" type="line"/>
      <point x="175" y="-56" type="line"/>
    </contour>
    <contour>
      <point x="226" y="127" type="line"/>
      <point x="226" y="245" type="line"/>
      <point x="290" y="245" type="line"/>
      <point x="244" y="127" type="line"/>
    </contour>
    <contour>
      <point x="226" y="369" type="line"/>
      <point x="226" y="462" type="line"/>
      <point x="373" y="462" type="line"/>
      <point x="337" y="369" type="line"/>
    </contour>
  </outline>
</glyph>
<glyph name="exclam.c2sc" format="2">
  <advance width="274"/>
  <outline>
    <contour>
      <point x="81" y="208" type="curve"/>
      <point x="195" y="208" type="line"/>
      <point x="208" y="290"/>
      <point x="217" y="384"/>
      <point x="217" y="469" type="curve" smooth="yes"/>
      <point x="217" y="589" type="line"/>
      <point x="58" y="589" type="line"/>
      <point x="58" y="469" type="line" smooth="yes"/>
      <point x="58" y="384"/>
      <point x="68" y="290"/>
    </contour>
    <contour>
      <point x="137" y="-13" type="curve" smooth="yes"/>
      <point x="185" y="-13"/>
      <point x="230" y="20"/>
      <point x="230" y="79" type="curve" smooth="yes"/>
      <point x="230" y="138"/>
      <point x="185" y="171"/>
      <point x="137" y="171" type="curve" smooth="yes"/>
      <point x="89" y="171"/>
      <point x="44" y="138"/>
      <point x="44" y="79" type="curve" smooth="yes"/>
      <point x="44" y="20"/>
      <point x="89" y="-13"/>
    </contour>
  </outline>
</glyph>
<glyph name="five.osf" format="2">
  <advance width="524"/>
  <outline>
    <contour>
      <point x="212" y="-119" type="curve" smooth="yes"/>
      <point x="396" y="-119"/>
      <point x="486" y="-23"/>
      <point x="486" y="105" type="curve" smooth="yes"/>
      <point x="486" y="244"/>
      <point x="396" y="323"/>
      <point x="201" y="336" type="curve"/>
      <point x="205" y="369"/>
      <point x="208" y="416"/>
      <point x="211" y="464" type="curve"/>
      <point x="461" y="464" type="line"/>
      <point x="461" y="589" type="line"/>
      <point x="86" y="589" type="line"/>
      <point x="81" y="477"/>
      <point x="72" y="344"/>
      <point x="57" y="220" type="curve"/>
      <point x="276" y="220"/>
      <point x="337" y="177"/>
      <point x="337" y="100" type="curve" smooth="yes"/>
      <point x="337" y="51"/>
      <point x="298" y="8"/>
      <point x="206" y="8" type="curve" smooth="yes"/>
      <point x="130" y="8"/>
      <point x="75" y="25"/>
      <point x="42" y="40" type="curve"/>
      <point x="15" y="-83" type="line"/>
      <point x="46" y="-98"/>
      <point x="141" y="-119"/>
    </contour>
  </outline>
</glyph>
<glyph name="haabkhasian-cy.sc" format="2">
  <advance width="733"/>
  <outline>
    <contour>
      <point x="718" y="5" type="curve"/>
      <point x="718" y="113" type="line"/>
      <point x="682" y="99"/>
      <point x="620" y="97"/>
      <point x="587" y="97" type="curve" smooth="yes"/>
      <point x="594" y="97"/>
      <point x="601" y="96"/>
      <point x="607" y="94" type="curve"/>
      <point x="652" y="138"/>
      <point x="667" y="194"/>
      <point x="667" y="246" type="curve" smooth="yes"/>
      <point x="667" y="333"/>
      <point x="604" y="415"/>
      <point x="466" y="415" type="curve" smooth="yes"/>
      <point x="335" y="415"/>
      <point x="273" y="321"/>
      <point x="273" y="209" type="curve" smooth="yes"/>
      <point x="273" y="185"/>
      <point x="279" y="144"/>
      <point x="301" y="115" type="curve" smooth="yes"/>
      <point x="301" y="115"/>
      <point x="301" y="115"/>
      <point x="301" y="115" type="curve"/>
      <point x="233" y="138"/>
      <point x="204" y="197"/>
      <point x="204" y="276" type="curve" smooth="yes"/>
      <point x="204" y="407"/>
      <point x="258" y="477"/>
      <point x="388" y="477" type="curve" smooth="yes"/>
      <point x="419" y="477"/>
      <point x="454" y="469"/>
      <point x="479" y="456" type="curve"/>
      <point x="514" y="576" type="line"/>
      <point x="475" y="593"/>
      <point x="426" y="603"/>
      <point x="374" y="603" type="curve" smooth="yes"/>
      <point x="145" y="603"/>
      <point x="47" y="467"/>
      <point x="47" y="296" type="curve" smooth="yes"/>
      <point x="47" y="166"/>
      <point x="103" y="-11"/>
      <point x="356" y="-11" type="curve" smooth="yes"/>
      <point x="400" y="-11"/>
      <point x="431" y="-8"/>
      <point x="453" y="1" type="curve"/>
      <point x="499" y="-8"/>
      <point x="541" y="-13"/>
      <point x="589" y="-13" type="curve" smooth="yes"/>
      <point x="633" y="-13"/>
      <point x="680" y="-8"/>
    </contour>
    <contour>
      <point x="450" y="117" type="curve"/>
      <point x="424" y="138"/>
      <point x="406" y="166"/>
      <point x="406" y="208" type="curve" smooth="yes"/>
      <point x="406" y="258"/>
      <point x="430" y="290"/>
      <point x="467" y="290" type="curve" smooth="yes"/>
      <point x="498" y="290"/>
      <point x="522" y="270"/>
      <point x="522" y="225" type="curve" smooth="yes"/>
      <point x="522" y="163"/>
      <point x="484" y="130"/>
    </contour>
  </outline>
</glyph>
<glyph name="ii-cy.sc" format="2">
  <advance width="678"/>
  <anchor x="658" y="0" name="bottomright"/>
  <anchor x="339" y="589" name="top"/>
  <outline>
    <contour>
      <point x="74" y="0" type="line"/>
      <point x="202" y="0" type="line"/>
      <point x="281" y="136"/>
      <point x="350" y="240"/>
      <point x="452" y="358" type="curve"/>
      <point x="452" y="0" type="line"/>
      <point x="604" y="0" type="line"/>
      <point x="604" y="589" type="line"/>
      <point x="481" y="589" type="line"/>
      <point x="412" y="527"/>
      <point x="310" y="394"/>
      <point x="226" y="274" type="curve"/>
      <point x="226" y="589" type="line"/>
      <point x="74" y="589" type="line"/>
    </contour>
  </outline>
</glyph>
<glyph name="kabashkir-cy.sc" format="2">
  <advance width="724"/>
  <outline>
    <contour>
      <point x="173" y="0" type="line"/>
      <point x="325" y="0" type="line"/>
      <point x="325" y="240" type="line"/>
      <point x="396" y="182"/>
      <point x="476" y="80"/>
      <point x="527" y="0" type="curve"/>
      <point x="707" y="0" type="line"/>
      <point x="621" y="135"/>
      <point x="543" y="237"/>
      <point x="447" y="320" type="curve"/>
      <point x="539" y="412"/>
      <point x="614" y="494"/>
      <point x="695" y="589" type="curve"/>
      <point x="515" y="589" type="line"/>
      <point x="453" y="522"/>
      <point x="391" y="449"/>
      <point x="325" y="378" type="curve"/>
      <point x="325" y="589" type="line"/>
      <point x="24" y="589" type="line"/>
      <point x="24" y="461" type="line"/>
      <point x="173" y="461" type="line"/>
    </contour>
  </outline>
</glyph>
<glyph name="lslash.sc" format="2">
  <advance width="542"/>
  <outline>
    <contour>
      <point x="104" y="0" type="line"/>
      <point x="519" y="0" type="line"/>
      <point x="519" y="129" type="line"/>
      <point x="255" y="129" type="line"/>
      <point x="255" y="283" type="line"/>
      <point x="410" y="360" type="line"/>
      <point x="362" y="456" type="line"/>
      <point x="255" y="403" type="line"/>
      <point x="255" y="589" type="line"/>
      <point x="104" y="589" type="line"/>
      <point x="104" y="328" type="line"/>
      <point x="6" y="280" type="line"/>
      <point x="53" y="183" type="line"/>
      <point x="104" y="208" type="line"/>
    </contour>
  </outline>
</glyph>
<glyph name="psilioxia.sc" format="2">
  <advance width="447"/>
  <anchor x="447" y="589" name="_topleft"/>
  <outline>
    <contour>
      <point x="250" y="376" type="line"/>
      <point x="392" y="554" type="line"/>
      <point x="305" y="616" type="line"/>
      <point x="184" y="424" type="line"/>
    </contour>
    <contour>
      <point x="52" y="369" type="line"/>
      <point x="122" y="420"/>
      <point x="176" y="481"/>
      <point x="176" y="542" type="curve" smooth="yes"/>
      <point x="176" y="591"/>
      <point x="150" y="618"/>
      <point x="107" y="618" type="curve" smooth="yes"/>
      <point x="66" y="618"/>
      <point x="38" y="591"/>
      <point x="38" y="552" type="curve" smooth="yes"/>
      <point x="38" y="525"/>
      <point x="55" y="500"/>
      <point x="82" y="489" type="curve"/>
      <point x="63" y="462"/>
      <point x="39" y="439"/>
      <point x="7" y="412" type="curve"/>
    </contour>
  </outline>
</glyph>
<glyph name="q.sc" format="2">
  <advance width="701"/>
  <anchor x="351" y="0" name="bottom"/>
  <anchor x="351" y="589" name="top"/>
  <outline>
    <contour>
      <point x="586" y="-160" type="curve"/>
      <point x="617" y="-51" type="line"/>
      <point x="517" y="-45"/>
      <point x="458" y="-40"/>
      <point x="446" y="0" type="curve"/>
      <point x="570" y="32"/>
      <point x="655" y="134"/>
      <point x="655" y="295" type="curve" smooth="yes"/>
      <point x="655" y="496"/>
      <point x="519" y="603"/>
      <point x="351" y="603" type="curve" smooth="yes"/>
      <point x="189" y="603"/>
      <point x="47" y="496"/>
      <point x="47" y="295" type="curve" smooth="yes"/>
      <point x="47" y="114"/>
      <point x="156" y="13"/>
      <point x="295" y="-7" type="curve"/>
      <point x="325" y="-101"/>
      <point x="385" y="-156"/>
    </contour>
    <contour>
      <point x="351" y="121" type="curve" smooth="yes"/>
      <point x="257" y="121"/>
      <point x="204" y="192"/>
      <point x="204" y="295" type="curve" smooth="yes"/>
      <point x="204" y="396"/>
      <point x="257" y="470"/>
      <point x="351" y="470" type="curve" smooth="yes"/>
      <point x="445" y="470"/>
      <point x="498" y="399"/>
      <point x="498" y="295" type="curve" smooth="yes"/>
      <point x="498" y="192"/>
      <point x="445" y="121"/>
    </contour>
  </outline>
</glyph>
<glyph name="question.c2sc" format="2">
  <advance width="395"/>
  <outline>
    <contour>
      <point x="129" y="205" type="curve"/>
      <point x="257" y="205" type="line"/>
      <point x="256" y="216"/>
      <point x="256" y="232"/>
      <point x="256" y="239" type="curve" smooth="yes"/>
      <point x="256" y="317"/>
      <point x="374" y="346"/>
      <point x="374" y="451" type="curve" smooth="yes"/>
      <point x="374" y="549"/>
      <point x="318" y="600"/>
      <point x="193" y="600" type="curve" smooth="yes"/>
      <point x="131" y="600"/>
      <point x="63" y="579"/>
      <point x="14" y="548" type="curve"/>
      <point x="56" y="444" type="line"/>
      <point x="95" y="467"/>
      <point x="130" y="482"/>
      <point x="168" y="482" type="curve" smooth="yes"/>
      <point x="201" y="482"/>
      <point x="218" y="468"/>
      <point x="218" y="441" type="curve" smooth="yes"/>
      <point x="218" y="386"/>
      <point x="126" y="353"/>
      <point x="126" y="257" type="curve" smooth="yes"/>
      <point x="126" y="243"/>
      <point x="126" y="220"/>
    </contour>
    <contour>
      <point x="195" y="-13" type="curve" smooth="yes"/>
      <point x="243" y="-13"/>
      <point x="288" y="20"/>
      <point x="288" y="79" type="curve" smooth="yes"/>
      <point x="288" y="138"/>
      <point x="243" y="171"/>
      <point x="195" y="171" type="curve" smooth="yes"/>
      <point x="147" y="171"/>
      <point x="102" y="138"/>
      <point x="102" y="79" type="curve" smooth="yes"/>
      <point x="102" y="20"/>
      <point x="147" y="-13"/>
    </contour>
  </outline>
</glyph>
<glyph name="ringcomb_acutecomb" format="2">
  <anchor x="0" y="526" name="_top"/>
  <outline>
    <contour>
      <point x="0" y="592" type="curve" smooth="yes"/>
      <point x="53" y="592"/>
      <point x="102" y="627"/>
      <point x="102" y="691" type="curve" smooth="yes"/>
      <point x="102" y="755"/>
      <point x="53" y="790"/>
      <point x="0" y="790" type="curve" smooth="yes"/>
      <point x="-52" y="790"/>
      <point x="-101" y="755"/>
      <point x="-101" y="691" type="curve" smooth="yes"/>
      <point x="-101" y="627"/>
      <point x="-52" y="592"/>
    </contour>
    <contour>
      <point x="0" y="650" type="curve" smooth="yes"/>
      <point x="-19" y="650"/>
      <point x="-39" y="664"/>
      <point x="-39" y="691" type="curve" smooth="yes"/>
      <point x="-39" y="718"/>
      <point x="-19" y="732"/>
      <point x="0" y="732" type="curve" smooth="yes"/>
      <point x="20" y="732"/>
      <point x="39" y="718"/>
      <point x="39" y="691" type="curve" smooth="yes"/>
      <point x="39" y="664"/>
      <point x="20" y="650"/>
    </contour>
    <contour>
      <point x="-73" y="804" type="line"/>
      <point x="98" y="868" type="line"/>
      <point x="58" y="949" type="line"/>
      <point x="-104" y="865" type="line"/>
    </contour>
  </outline>
</glyph>
<glyph name="seven.osf" format="2">
  <advance width="502"/>
  <outline>
    <contour>
      <point x="106" y="-105" type="curve"/>
      <point x="257" y="-105" type="line"/>
      <point x="273" y="136"/>
      <point x="407" y="388"/>
      <point x="492" y="481" type="curve"/>
      <point x="492" y="589" type="line"/>
      <point x="7" y="589" type="line"/>
      <point x="7" y="462" type="line"/>
      <point x="308" y="462" type="line"/>
      <point x="214" y="330"/>
      <point x="122" y="89"/>
    </contour>
  </outline>
</glyph>
<glyph name="seven.tosf" format="2">
  <advance width="564"/>
  <outline>
    <contour>
      <point x="139" y="-105" type="curve"/>
      <point x="290" y="-105" type="line"/>
      <point x="306" y="136"/>
      <point x="440" y="388"/>
      <point x="525" y="481" type="curve"/>
      <point x="525" y="589" type="line"/>
      <point x="40" y="589" type="line"/>
      <point x="40" y="462" type="line"/>
      <point x="341" y="462" type="line"/>
      <point x="247" y="330"/>
      <point x="155" y="89"/>
    </contour>
  </outline>
</glyph>
<glyph name="sigma.sc" format="2">
  <advance width="538"/>
  <outline>
    <contour>
      <point x="32" y="0" type="line"/>
      <point x="497" y="0" type="line"/>
      <point x="497" y="127" type="line"/>
      <point x="223" y="127" type="line"/>
      <point x="259" y="166"/>
      <point x="361" y="267"/>
      <point x="386" y="295" type="curve"/>
      <point x="350" y="341"/>
      <point x="297" y="404"/>
      <point x="247" y="462" type="curve"/>
      <point x="498" y="462" type="line"/>
      <point x="498" y="589" type="line"/>
      <point x="45" y="589" type="line"/>
      <point x="45" y="492" type="line"/>
      <point x="106" y="425"/>
      <point x="166" y="360"/>
      <point x="215" y="295" type="curve"/>
      <point x="160" y="238"/>
      <point x="76" y="152"/>
      <point x="32" y="103" type="curve"/>
    </contour>
  </outline>
</glyph>
<glyph name="six.numr" format="2">
  <advance width="363"/>
  <outline>
    <contour>
      <point x="188" y="294" type="curve" smooth="yes"/>
      <point x="289" y="294"/>
      <point x="336" y="360"/>
      <point x="336" y="432" type="curve" smooth="yes"/>
      <point x="336" y="501"/>
      <point x="298" y="552"/>
      <point x="199" y="552" type="curve" smooth="yes"/>
      <point x="176" y="552"/>
      <point x="153" y="546"/>
      <point x="140" y="541" type="curve"/>
      <point x="167" y="586"/>
      <point x="214" y="609"/>
      <point x="309" y="613" type="curve"/>
      <point x="304" y="702" type="line"/>
      <point x="133" y="702"/>
      <point x="31" y="611"/>
      <point x="31" y="465" type="curve" smooth="yes"/>
      <point x="31" y="356"/>
      <point x="84" y="294"/>
    </contour>
    <contour>
      <point x="190" y="380" type="curve" smooth="yes"/>
      <point x="151" y="380"/>
      <point x="132" y="406"/>
      <point x="133" y="457" type="curve" smooth="yes"/>
      <point x="133" y="461"/>
      <point x="133" y="465"/>
      <point x="133" y="469" type="curve"/>
      <point x="142" y="474"/>
      <point x="163" y="479"/>
      <point x="179" y="479" type="curve" smooth="yes"/>
      <point x="222" y="479"/>
      <point x="237" y="462"/>
      <point x="237" y="429" type="curve" smooth="yes"/>
      <point x="237" y="404"/>
      <point x="223" y="380"/>
    </contour>
  </outline>
</glyph>
<glyph name="six.osf" format="2">
  <advance width="568"/>
  <outline>
    <contour>
      <point x="290" y="-14" type="curve" smooth="yes"/>
      <point x="455" y="-14"/>
      <point x="531" y="115"/>
      <point x="531" y="222" type="curve" smooth="yes"/>
      <point x="531" y="342"/>
      <point x="464" y="442"/>
      <point x="291" y="442" type="curve" smooth="yes"/>
      <point x="264" y="442"/>
      <point x="232" y="437"/>
      <point x="203" y="424" type="curve"/>
      <point x="243" y="533"/>
      <point x="350" y="573"/>
      <point x="485" y="576" type="curve"/>
      <point x="477" y="698" type="line"/>
      <point x="206" y="695"/>
      <point x="35" y="550"/>
      <point x="35" y="283" type="curve" smooth="yes"/>
      <point x="35" y="98"/>
      <point x="123" y="-14"/>
    </contour>
    <contour>
      <point x="289" y="110" type="curve" smooth="yes"/>
      <point x="209" y="110"/>
      <point x="185" y="188"/>
      <point x="185" y="285" type="curve" smooth="yes"/>
      <point x="185" y="293"/>
      <point x="186" y="306"/>
      <point x="186" y="311" type="curve"/>
      <point x="205" y="320"/>
      <point x="243" y="326"/>
      <point x="272" y="326" type="curve" smooth="yes"/>
      <point x="352" y="326"/>
      <point x="383" y="288"/>
      <point x="383" y="220" type="curve" smooth="yes"/>
      <point x="383" y="172"/>
      <point x="355" y="110"/>
    </contour>
  </outline>
</glyph>
<glyph name="six.tosf" format="2">
  <advance width="564"/>
  <outline>
    <contour>
      <point x="291" y="-14" type="curve" smooth="yes"/>
      <point x="456" y="-14"/>
      <point x="532" y="115"/>
      <point x="532" y="222" type="curve" smooth="yes"/>
      <point x="532" y="342"/>
      <point x="465" y="442"/>
      <point x="292" y="442" type="curve" smooth="yes"/>
      <point x="265" y="442"/>
      <point x="233" y="437"/>
      <point x="204" y="424" type="curve"/>
      <point x="244" y="533"/>
      <point x="351" y="573"/>
      <point x="486" y="576" type="curve"/>
      <point x="478" y="698" type="line"/>
      <point x="207" y="695"/>
      <point x="36" y="550"/>
      <point x="36" y="283" type="curve" smooth="yes"/>
      <point x="36" y="98"/>
      <point x="124" y="-14"/>
    </contour>
    <contour>
      <point x="290" y="110" type="curve" smooth="yes"/>
      <point x="210" y="110"/>
      <point x="186" y="188"/>
      <point x="186" y="285" type="curve" smooth="yes"/>
      <point x="186" y="293"/>
      <point x="187" y="306"/>
      <point x="187" y="311" type="curve"/>
      <point x="206" y="320"/>
      <point x="244" y="326"/>
      <point x="273" y="326" type="curve" smooth="yes"/>
      <point x="353" y="326"/>
      <point x="384" y="288"/>
      <point x="384" y="220" type="curve" smooth="yes"/>
      <point x="384" y="172"/>
      <point x="356" y="110"/>
    </contour>
  </outline>
</glyph>
<glyph name="three.osf" format="2">
  <advance width="519"/>
  <outline>
    <contour>
      <point x="204" y="-122" type="curve" smooth="yes"/>
      <point x="397" y="-122"/>
      <point x="481" y="-29"/>
      <point x="481" y="99" type="curve" smooth="yes"/>
      <point x="481" y="180"/>
      <point x="440" y="240"/>
      <point x="368" y="269" type="curve"/>
      <point x="420" y="296"/>
      <point x="453" y="352"/>
      <point x="453" y="407" type="curve" smooth="yes"/>
      <point x="453" y="519"/>
      <point x="380" y="602"/>
      <point x="217" y="602" type="curve" smooth="yes"/>
      <point x="130" y="602"/>
      <point x="57" y="567"/>
      <point x="14" y="540" type="curve"/>
      <point x="67" y="431" type="line"/>
      <point x="107" y="456"/>
      <point x="156" y="476"/>
      <point x="213" y="476" type="curve" smooth="yes"/>
      <point x="258" y="476"/>
      <point x="304" y="453"/>
      <point x="304" y="402" type="curve" smooth="yes"/>
      <point x="304" y="335"/>
      <point x="249" y="317"/>
      <point x="190" y="317" type="curve" smooth="yes"/>
      <point x="124" y="317" type="line"/>
      <point x="124" y="197" type="line"/>
      <point x="182" y="197" type="line" smooth="yes"/>
      <point x="266" y="197"/>
      <point x="331" y="174"/>
      <point x="331" y="101" type="curve" smooth="yes"/>
      <point x="331" y="42"/>
      <point x="290" y="5"/>
      <point x="198" y="5" type="curve" smooth="yes"/>
      <point x="118" y="5"/>
      <point x="66" y="26"/>
      <point x="31" y="41" type="curve"/>
      <point x="2" y="-83" type="line"/>
      <point x="37" y="-99"/>
      <point x="132" y="-122"/>
    </contour>
  </outline>
</glyph>
<glyph name="three.tosf" format="2">
  <advance width="564"/>
  <outline>
    <contour>
      <point x="222" y="-122" type="curve" smooth="yes"/>
      <point x="415" y="-122"/>
      <point x="499" y="-29"/>
      <point x="499" y="99" type="curve" smooth="yes"/>
      <point x="499" y="180"/>
      <point x="458" y="240"/>
      <point x="386" y="269" type="curve"/>
      <point x="438" y="296"/>
      <point x="471" y="352"/>
      <point x="471" y="407" type="curve" smooth="yes"/>
      <point x="471" y="519"/>
      <point x="398" y="602"/>
      <point x="235" y="602" type="curve" smooth="yes"/>
      <point x="148" y="602"/>
      <point x="75" y="567"/>
      <point x="32" y="540" type="curve"/>
      <point x="85" y="431" type="line"/>
      <point x="125" y="456"/>
      <point x="174" y="476"/>
      <point x="231" y="476" type="curve" smooth="yes"/>
      <point x="276" y="476"/>
      <point x="322" y="453"/>
      <point x="322" y="402" type="curve" smooth="yes"/>
      <point x="322" y="335"/>
      <point x="267" y="317"/>
      <point x="208" y="317" type="curve" smooth="yes"/>
      <point x="142" y="317" type="line"/>
      <point x="142" y="197" type="line"/>
      <point x="200" y="197" type="line" smooth="yes"/>
      <point x="284" y="197"/>
      <point x="349" y="174"/>
      <point x="349" y="101" type="curve" smooth="yes"/>
      <point x="349" y="42"/>
      <point x="308" y="5"/>
      <point x="216" y="5" type="curve" smooth="yes"/>
      <point x="136" y="5"/>
      <point x="84" y="26"/>
      <point x="49" y="41" type="curve"/>
      <point x="20" y="-83" type="line"/>
      <point x="55" y="-99"/>
      <point x="150" y="-122"/>
    </contour>
  </outline>
</glyph>
<glyph name="tonos.sc" format="2">
  <advance width="223"/>
  <anchor x="221" y="589" name="_topleft"/>
  <outline>
    <contour>
      <point x="102" y="372" type="line"/>
      <point x="181" y="587" type="line"/>
      <point x="59" y="621" type="line"/>
      <point x="5" y="397" type="line"/>
    </contour>
  </outline>
</glyph>
<glyph name="tpalatalhook.sc" format="2">
  <advance width="558"/>
  <outline>
    <contour>
      <point x="389" y="-159" type="curve" smooth="yes"/>
      <point x="404" y="-159"/>
      <point x="438" y="-158"/>
      <point x="470" y="-147" type="curve"/>
      <point x="451" y="-31" type="line"/>
      <point x="432" y="-37"/>
      <point x="427" y="-38"/>
      <point x="402" y="-38" type="curve" smooth="yes"/>
      <point x="368" y="-38"/>
      <point x="356" y="-13"/>
      <point x="356" y="30" type="curve" smooth="yes"/>
      <point x="356" y="461" type="line"/>
      <point x="534" y="461" type="line"/>
      <point x="534" y="589" type="line"/>
      <point x="24" y="589" type="line"/>
      <point x="24" y="461" type="line"/>
      <point x="204" y="461" type="line"/>
      <point x="204" y="23" type="line" smooth="yes"/>
      <point x="204" y="-104"/>
      <point x="265" y="-159"/>
    </contour>
  </outline>
</glyph>
<glyph name="tshe-cy.sc" format="2">
  <advance width="691"/>
  <outline>
    <contour>
      <point x="185" y="0" type="line"/>
      <point x="337" y="0" type="line"/>
      <point x="337" y="243" type="line"/>
      <point x="358" y="245"/>
      <point x="382" y="245"/>
      <point x="401" y="245" type="curve" smooth="yes"/>
      <point x="477" y="245"/>
      <point x="503" y="219"/>
      <point x="503" y="167" type="curve" smooth="yes"/>
      <point x="503" y="0" type="line"/>
      <point x="655" y="0" type="line"/>
      <point x="655" y="166" type="line" smooth="yes"/>
      <point x="655" y="290"/>
      <point x="599" y="372"/>
      <point x="410" y="372" type="curve" smooth="yes"/>
      <point x="387" y="372"/>
      <point x="365" y="371"/>
      <point x="337" y="369" type="curve"/>
      <point x="337" y="460" type="line"/>
      <point x="534" y="460" type="line"/>
      <point x="534" y="589" type="line"/>
      <point x="24" y="589" type="line"/>
      <point x="24" y="460" type="line"/>
      <point x="185" y="460" type="line"/>
    </contour>
  </outline>
</glyph>
<glyph name="two.tosf" format="2">
  <advance width="564"/>
  <outline>
    <contour>
      <point x="72" y="0" type="curve"/>
      <point x="498" y="0" type="line"/>
      <point x="498" y="120" type="line"/>
      <point x="242" y="120" type="line"/>
      <point x="248" y="137"/>
      <point x="305" y="195"/>
      <point x="338" y="226" type="curve" smooth="yes"/>
      <point x="421" y="302"/>
      <point x="480" y="354"/>
      <point x="480" y="434" type="curve" smooth="yes"/>
      <point x="480" y="530"/>
      <point x="410" y="602"/>
      <point x="282" y="602" type="curve" smooth="yes"/>
      <point x="191" y="602"/>
      <point x="111" y="570"/>
      <point x="53" y="519" type="curve"/>
      <point x="124" y="422" type="line"/>
      <point x="150" y="452"/>
      <point x="208" y="480"/>
      <point x="253" y="480" type="curve" smooth="yes"/>
      <point x="295" y="480"/>
      <point x="328" y="455"/>
      <point x="328" y="421" type="curve" smooth="yes"/>
      <point x="328" y="380"/>
      <point x="271" y="333"/>
      <point x="225" y="292" type="curve" smooth="yes"/>
      <point x="152" y="226"/>
      <point x="70" y="148"/>
      <point x="70" y="49" type="curve" smooth="yes"/>
      <point x="70" y="26"/>
      <point x="69" y="11"/>
    </contour>
  </outline>
</glyph>
<glyph name="u.sc" format="2">
  <advance width="633"/>
  <anchor x="317" y="0" name="bottom"/>
  <anchor x="570" y="10" name="ogonek"/>
  <anchor x="317" y="589" name="top"/>
  <anchor x="613" y="589" name="topright"/>
  <outline>
    <contour>
      <point x="314" y="-12" type="curve" smooth="yes"/>
      <point x="487" y="-12"/>
      <point x="569" y="82"/>
      <point x="569" y="224" type="curve" smooth="yes"/>
      <point x="569" y="589" type="line"/>
      <point x="417" y="589" type="line"/>
      <point x="417" y="236" type="line" smooth="yes"/>
      <point x="417" y="149"/>
      <point x="375" y="119"/>
      <point x="316" y="119" type="curve" smooth="yes"/>
      <point x="257" y="119"/>
      <point x="216" y="149"/>
      <point x="216" y="236" type="curve" smooth="yes"/>
      <point x="216" y="589" type="line"/>
      <point x="64" y="589" type="line"/>
      <point x="64" y="224" type="line" smooth="yes"/>
      <point x="64" y="84"/>
      <point x="143" y="-12"/>
    </contour>
  </outline>
</glyph>
<glyph name="yat-cy.sc" format="2">
  <advance width="667"/>
  <outline>
    <contour>
      <point x="339" y="-8" type="curve" smooth="yes"/>
      <point x="510" y="-8"/>
      <point x="621" y="63"/>
      <point x="621" y="197" type="curve" smooth="yes"/>
      <point x="621" y="336"/>
      <point x="524" y="402"/>
      <point x="334" y="402" type="curve" smooth="yes"/>
      <point x="324" y="402"/>
      <point x="318" y="402"/>
      <point x="308" y="402" type="curve"/>
      <point x="308" y="444" type="line"/>
      <point x="469" y="444" type="line"/>
      <point x="469" y="562" type="line"/>
      <point x="308" y="562" type="line"/>
      <point x="308" y="627" type="line"/>
      <point x="156" y="627" type="line"/>
      <point x="156" y="562" type="line"/>
      <point x="18" y="562" type="line"/>
      <point x="18" y="444" type="line"/>
      <point x="156" y="444" type="line"/>
      <point x="156" y="14" type="line"/>
      <point x="224" y="-1"/>
      <point x="287" y="-8"/>
    </contour>
    <contour>
      <point x="350" y="120" type="curve" smooth="yes"/>
      <point x="330" y="120"/>
      <point x="318" y="120"/>
      <point x="308" y="120" type="curve"/>
      <point x="308" y="274" type="line"/>
      <point x="314" y="274"/>
      <point x="322" y="274"/>
      <point x="324" y="274" type="curve" smooth="yes"/>
      <point x="417" y="274"/>
      <point x="466" y="257"/>
      <point x="466" y="196" type="curve" smooth="yes"/>
      <point x="466" y="136"/>
      <point x="413" y="120"/>
    </contour>
  </outline>
</glyph>
<glyph name="z.sc" format="2">
  <advance width="552"/>
  <anchor x="276" y="0" name="bottom"/>
  <anchor x="276" y="295" name="center"/>
  <anchor x="276" y="589" name="top"/>
  <outline>
    <contour>
      <point x="36" y="0" type="line"/>
      <point x="522" y="0" type="line"/>
      <point x="522" y="127" type="line"/>
      <point x="225" y="127" type="line"/>
      <point x="307" y="257"/>
      <point x="443" y="420"/>
      <point x="512" y="487" type="curve"/>
      <point x="512" y="589" type="line"/>
      <point x="49" y="589" type="line"/>
      <point x="49" y="462" type="line"/>
      <point x="307" y="462" type="line"/>
      <point x="205" y="340"/>
      <point x="93" y="186"/>
      <point x="36" y="88" type="curve"/>
    </contour>
  </outline>
</glyph>
<glyph name="zero.numr" format="2">
  <advance width="363"/>
  <outline>
    <contour>
      <point x="182" y="294" type="curve" smooth="yes"/>
      <point x="287" y="294"/>
      <point x="348" y="369"/>
      <point x="348" y="502" type="curve" smooth="yes"/>
      <point x="348" y="634"/>
      <point x="287" y="709"/>
      <point x="182" y="709" type="curve" smooth="yes"/>
      <point x="75" y="709"/>
      <point x="15" y="634"/>
      <point x="15" y="502" type="curve" smooth="yes"/>
      <point x="15" y="369"/>
      <point x="75" y="294"/>
    </contour>
    <contour>
      <point x="183" y="384" type="curve" smooth="yes"/>
      <point x="138" y="384"/>
      <point x="122" y="431"/>
      <point x="122" y="502" type="curve" smooth="yes"/>
      <point x="122" y="571"/>
      <point x="138" y="619"/>
      <point x="183" y="619" type="curve" smooth="yes"/>
      <point x="228" y="619"/>
      <point x="241" y="571"/>
      <point x="241" y="502" type="curve" smooth="yes"/>
      <point x="241" y="431"/>
      <point x="228" y="384"/>
    </contour>
  </outline>
</glyph>
<glyph name="zero.tosf" format="2">
  <advance width="564"/>
  <outline>
    <contour>
      <point x="282" y="-11" type="curve" smooth="yes"/>
      <point x="427" y="-11"/>
      <point x="513" y="114"/>
      <point x="513" y="296" type="curve" smooth="yes"/>
      <point x="513" y="489"/>
      <point x="427" y="602"/>
      <point x="282" y="602" type="curve" smooth="yes"/>
      <point x="141" y="602"/>
      <point x="51" y="488"/>
      <point x="51" y="296" type="curve" smooth="yes"/>
      <point x="51" y="114"/>
      <point x="136" y="-11"/>
    </contour>
    <contour>
      <point x="282" y="125" type="curve" smooth="yes"/>
      <point x="219" y="125"/>
      <point x="202" y="200"/>
      <point x="202" y="296" type="curve" smooth="yes"/>
      <point x="202" y="402"/>
      <point x="219" y="476"/>
      <point x="282" y="476" type="curve" smooth="yes"/>
      <point x="346" y="476"/>
      <point x="362" y="401"/>
      <point x="362" y="296" type="curve" smooth="yes"/>
      <point x="362" y="202"/>
      <point x="346" y="125"/>
    </contour>
  </outline>
</glyph>
